<?xml version="1.0" encoding="UTF-8" standalone="no"?>
<svg
   xmlns:dc="http://purl.org/dc/elements/1.1/"
   xmlns:cc="http://creativecommons.org/ns#"
   xmlns:rdf="http://www.w3.org/1999/02/22-rdf-syntax-ns#"
   xmlns:svg="http://www.w3.org/2000/svg"
   xmlns="http://www.w3.org/2000/svg"
   xmlns:sodipodi="http://sodipodi.sourceforge.net/DTD/sodipodi-0.dtd"
   xmlns:inkscape="http://www.inkscape.org/namespaces/inkscape"
   width="320"
   height="320"
   id="svg2"
   version="1.1"
   inkscape:version="0.48.4 r9939"
   sodipodi:docname="cognos.svg">
  <metadata
     id="metadata23">
    <rdf:RDF>
      <cc:Work
         rdf:about="">
        <dc:format>image/svg+xml</dc:format>
        <dc:type
           rdf:resource="http://purl.org/dc/dcmitype/StillImage" />
      </cc:Work>
    </rdf:RDF>
  </metadata>
  <sodipodi:namedview
     pagecolor="#ffffff"
     bordercolor="#666666"
     borderopacity="1"
     objecttolerance="10"
     gridtolerance="10"
     guidetolerance="10"
     inkscape:pageopacity="0"
     inkscape:pageshadow="2"
     inkscape:window-width="1480"
     inkscape:window-height="643"
     id="namedview21"
     showgrid="false"
     inkscape:zoom="0.70462206"
     inkscape:cx="260.533"
     inkscape:cy="199.33295"
     inkscape:window-x="0"
     inkscape:window-y="0"
     inkscape:window-maximized="0"
     inkscape:current-layer="svg2" />
  <defs
     id="defs4">
    <style
       type="text/css"
       id="style6"> 
  path { stroke-linecap: round; stroke-linejoin: round; }
  .ruleline { shape-rendering: crispEdges; }
</style>
  </defs>
  <path
     style="fill:#ff0000;stroke:none"
     inkscape:connector-curvature="0"
     id="path11"
     d="m 132.84856,57.583923 1.098,0.369865 0.41,1.268909 1.653,0.162516 0.706,-0.09367 1.286,0.162516 1.714,-0.09687 0.871,0.02161 1.201,0.01441 1.172,-0.06245 0.882,-0.04883 1.145,0.01441 1.411,0.008 1.382,-0.06725 1.141,-0.05844 1.317,0.0072 1.475,0.004 1.387,-0.02001 1.312,-0.02001 1.37,0.0024 1.408,0.0016 1.32,8.01e-4 1.398,8.01e-4 1.397,-0.04883 1.158,-0.04403 1.04,0.04403 1.241,0.04883 1.154,0.02482 1.161,0.02482 1.102,8.01e-4 1.005,0 2.053,0.04803 1.753,-0.04563 1.632,0.04563 1.452,0.04723 1.408,0.04723 1.463,0.04643 1.261,0.04323 1.208,0.08886 1.37,0.09927 1.201,0.04083 1.229,0.140901 1.392,0.05604 1.257,0.04963 0.95,-0.0016 0.604,0.03923 0.606,0.04403 0.919,0.06004 -0.909,-0.316227 -1.296,-0.879029 0.018,0.116083 0.173,0.515569 0.313,0.560402 0.167,0.493153 0.271,0.691695 0.249,0.843004 0.255,1.010323 0.167,1.168837 0.29,1.435428 0.168,1.359373 0.24,1.537101 0.228,1.456243 0.18,1.580331 0.159,0.875027 0.123,0.634854 0.018,0.658072 0.033,0.904647 0.096,0.882232 0.088,0.798172 0.088,0.798171 0.08,0.713311 0.025,0.783761 0.029,0.868622 0.03,0.869423 0.029,0.868622 0.029,0.868622 0.03,0.865419 0.029,0.959087 0.028,0.928665 0,0.905448 0.001,1.007922 0.062,1.030338 0.061,1.002318 0.092,0.955083 0.1,1.016728 0.192,1.039144 0.172,0.914255 0.142,0.867822 0.154,0.933468 0.184,0.910252 0.172,0.848607 0.143,0.778158 0.14,0.762946 0.232,1.531497 0.224,1.336958 0.105,1.22728 0.054,1.21847 0,1.16804 -0.054,1.21126 -0.109,1.17445 -0.17,1.31614 -0.176,1.31534 -0.178,1.37618 -0.182,1.50989 -0.122,1.50347 -0.113,1.45865 -0.176,1.45304 -0.116,1.44663 -0.176,1.35617 -0.121,1.40261 -0.116,1.2529 -0.117,1.16963 -0.122,1.27692 -0.062,1.22327 -0.06,1.18325 0,1.2497 0.066,1.16643 0.125,1.05516 0.118,0.99271 0.105,0.80697 0.002,0.8326 0.142,0.94948 0.107,0.59162 0.061,0.62525 0.095,0.36426 -0.052,0.57321 0.182,0.18333 0.525,-0.73492 1.506,1.55231 -0.538,0.50676 -0.003,0.0112 0.871,0.78857 3.383,0.4251 1.229,-2.05027 -0.17,-1.03754 0.065,-0.36586 -0.139,-0.85742 -0.057,-0.59562 -0.127,-0.72372 -0.093,-0.554 0.002,-0.76375 -0.129,-1.07196 -0.117,-0.9799 -0.11,-0.91666 -0.051,-0.90065 0,-1.00552 0.057,-1.07116 0.055,-1.12481 0.113,-1.16563 0.118,-1.17845 0.118,-1.28332 0.114,-1.32094 0.176,-1.36818 0.119,-1.46585 0.176,-1.45864 0.121,-1.54751 0.113,-1.40821 0.17,-1.40261 0.174,-1.34736 0.176,-1.31534 0.182,-1.40821 0.126,-1.36178 0.063,-1.41861 0,-1.36818 -0.063,-1.41141 -0.13,-1.49787 -0.245,-1.481065 -0.238,-1.568323 -0.153,-0.833397 -0.15,-0.818986 -0.18,-0.889437 -0.168,-0.827793 -0.14,-0.851009 -0.151,-0.917457 -0.18,-0.963891 -0.16,-0.839 -0.076,-0.815784 -0.084,-0.876628 -0.056,-0.923862 -0.056,-0.89424 0.001,-0.871024 0,-0.973497 -0.03,-0.997514 -0.03,-0.966292 -0.029,-0.872625 -0.029,-0.868622 -0.03,-0.868622 -0.029,-0.869422 -0.029,-0.868622 -0.034,-0.954284 -0.096,-0.883832 -0.088,-0.798172 -0.088,-0.798972 -0.08,-0.714912 -0.025,-0.738929 -0.041,-0.986306 -0.171,-0.961489 -0.134,-0.722117 -0.172,-1.519488 -0.241,-1.54991 -0.23,-1.469052 -0.183,-1.457844 -0.297,-1.477057 -0.186,-1.273712 -0.332,-1.337758 -0.337,-1.129609 -0.315,-0.811781 -0.303,-0.821388 -0.274,-0.473139 -0.061,-0.235369 -0.451,-1.011924 -2.001,-1.724435 -2.082,-0.221759 -0.254,-0.03443 -0.685,-0.04963 -0.921,-0.05524 -1.045,-8e-4 -1.09,-0.04483 -1.071,-0.03763 -1.236,-0.140901 -1.38,-0.05284 -1.212,-0.08886 -1.373,-0.09927 -1.438,-0.05124 -1.47,-0.04643 -1.408,-0.04723 -1.481,-0.04643 -1.888,-0.04803 -1.767,0.04803 -1.937,-0.04643 -1.107,8.01e-4 -1.01,8e-4 -1.069,-0.02242 -1.075,-0.02242 -1.164,-0.04483 -1.365,-0.05044 -1.483,0.05044 -1.242,0.04563 -1.243,0 -1.32,8e-4 -1.408,0.0024 -1.446,0.0016 -1.387,0.02722 -1.312,0.02642 -1.399,0.0048 -1.558,0.0072 -1.381,0.08246 -1.141,0.07285 -1.171,0.0088 -1.437,0.01361 -1.171,0.09207 -0.88,0.07846 -0.912,0.01441 -1.241,0.02242 -1.455,0.184132 -1.764,-0.02562 -1.054,0.282603 -1.163,0.256984 -1.584,1.456242 0.511,1.403405 z"
     __comy="238.720"
     __comx="265.135"
     __timestamp="0x14bc21ad940" />
  <path
     style="fill:#ff0000;stroke:none"
     inkscape:connector-curvature="0"
     id="path13"
     d="m 131.08456,55.493671 0.617,-0.967172 0.475,-1.352152 -2.411,-2.532574 -2.506,0.994535 0.369,-0.311382 -0.314,0.03491 -0.476,0.08775 -1.076,0.233065 -1.847,0.689758 -1.722,2.11268 -0.286,1.670139 -0.011,1.133242 0.003,0.913387 0.123,1.032279 0.061,1.026617 0.182,1.275722 0.128,1.295538 0.288,1.459721 0.106,1.502182 0.232,1.805072 0.051,0.888854 0.06,1.028504 0.091,1.138903 0.079,0.942639 -0.029,0.942638 -0.027,1.043601 -0.085,1.236092 -0.086,1.274779 -0.115,1.357814 -0.115,1.360645 -0.145,1.44368 -0.136,1.374799 -0.221,1.375742 -0.248,1.555023 -0.157,1.528603 -0.122,1.254963 -0.287,1.255908 -0.358,1.622017 -0.171,1.623904 -0.139,1.368194 -0.196,1.313465 -0.217,1.475762 -0.127,1.420091 -0.113,1.279497 -0.141,1.169098 -0.151,1.254017 -0.121,1.25497 -0.116,1.20306 -0.115,1.09267 -0.125,1.1908 -0.065,1.21911 -0.058,1.12852 -0.058,1.04549 -0.056,1.00869 -0.085,1.00775 -0.094,1.13512 -0.033,1.05115 -0.029,0.96435 -0.058,1.76544 -0.059,1.71071 -0.055,1.5371 -0.12,1.55124 0.001,1.54465 0.128,1.36725 0.112,1.15588 0.06,1.07474 0.141,1.25213 0.209,1.12664 0.239,1.01341 0.158,0.79921 0.18,1.01624 0.217,1.01246 0.271,0.9049 0.226,0.74637 0.212,0.74826 0.203,0.81714 0.214,0.58974 0.212,0.90112 0.372,0.68787 4.377,2.78357 2.281,-4.94437 -1.045,-1.6022 -1.778,-1.24364 -1.705,-0.59163 -1.523,-0.26515 -1.497,-0.0142 -1.17,0.002 -1.758,-0.11229 -1.988,0.0566 -1.048,0.0274 -1.104,0.0293 -1.105,0.0576 -1.046,0.0547 -1.164,0.0557 -1.26,0.0604 -1.26,0.11795 -1.089,0.10285 -1.059,0.051 -1.138,0.0547 -1.226,0.0547 -1.232,0.0557 -1.232,0.0557 -1.147999,0.0519 -1.12,0 -1.161,0 -1.19,-0.0274 -1.231,-0.0274 -1.202,-0.0274 -1.114,-0.0255 -1.086,-0.0774 -1.097,-0.0764 -1.156,-0.13116 -1.305,-0.14625 -1.216,-0.0887 -1.137,-0.0821 -1.078,-0.083 -1.073,-0.0821 -0.985,-0.0821 -1.039,-0.0859 -2.035,-0.11984 -1.755,0.0557 -1.438,0 -1.362,0.0698 -0.903,0.11983 -0.474,0.0434 -0.43,0.0434 -0.511,-0.0528 -0.562,-9.4e-4 -1.166,-0.051 -0.941,0.14908 -0.904,0.11417 -1.093,0.22175 -0.564,0.16041 -0.638,0.12266 -0.649,0.20853 -0.867,0.15286 -0.489,0.21042 -0.658,0.0708 -3.073,2.42312 0.335,2.13721 -0.225,-0.42084 -0.026,1.34461 0.002,0.8162 0.062,1.02001 0.06,1.19646 0.116,1.36253 0.055,1.32385 -0.168,1.67391 -0.115,1.85791 -0.11,0.97661 -0.118,1.06059 -0.119,1.11531 -0.108,1.03228 -0.165,1.05964 -0.184,1.18797 -0.154,1.27006 -0.15,1.24836 -0.12,1.19269 -0.122,1.20589 -0.091,1.26252 -0.09,1.25119 -0.061,1.19646 -0.062,1.24175 -10e-4,1.21345 0,1.13418 0,1.13513 0.002,1.22194 0.062,1.13796 0.062,1.10588 0.092,1.02378 0.09,0.98605 0.188,1.81734 0.236,1.51161 0.173,1.522 0.165,1.17193 0.063,1.26251 0.188,1.14928 0.119,1.06531 0.156,0.82469 -0.01,0.77185 0.059,0.88602 10e-4,0.86432 0.069,0.81337 0.049,0.47179 -10e-4,0.48595 0.071,0.82846 0.048,0.41706 0.219,1.55031 2.241,2.28913 2.754,0.23495 0.922,-0.29817 0.569,-0.0934 0.759,-0.14814 0.742,-0.21608 0.848,-0.14625 0.992,-0.24439 1.435,-0.10568 1.495,-0.32743 1.636,-0.0859 1.042,-0.0868 1.091,-0.0915 1.121,-0.15003 0.879,-0.12172 0.879,-0.0443 1.085,-0.0594 1.836,-0.16041 1.777,0.004 1.935,-0.0623 1.764,-0.16701 1.525,-0.0491 1.936,-0.0613 1.758,-0.16984 1.802,-0.10946 1.819,-0.16229 1.713999,-0.0491 1.705,0 1.639,-9.4e-4 1.514,0.051 1.646,0.11417 1.47,9.5e-4 1.458,0.0538 1.593,0.0576 1.66,0 1.525,-0.0557 1.705,-0.002 1.654,-0.11323 1.41,-0.0528 1.422,-0.0557 1.363,-0.0642 0.667,-0.0991 0.423,0.084 0.529,0.0557 0.821,0.1104 0.775,0.0774 0.722,0.005 0.334,-0.005 0.241,0.0283 0.445,0.0679 0.553,0.1387 0.41,0.12644 -0.7,-0.79544 0.691,-3.58089 2.098,-0.90584 -1.3,1.7862 -1.361,0.66145 -0.007,0.0113 0.399,1.65787 0.93,2.22968 3.975,-0.57464 0.574,-4.68771 -2.108,-1.68052 -1.468,-0.53879 -1.207,-0.30383 -0.962,-0.1538 -0.816,-0.0821 -0.721,-0.005 -0.335,0.005 -0.281,-0.034 -0.821,-0.1104 -0.528,-0.0557 -1.219,-0.13682 -1.328,0.12172 -1.101,0.0472 -1.394,0.0557 -1.523,0.0576 -1.515,0.10757 -1.58,-0.002 -1.526,0.0557 -1.39,0 -1.458,-0.0538 -1.593,-0.0566 -1.346,9.4e-4 -1.522,-0.10756 -1.772,-0.0594 -1.764,-9.4e-4 -1.813999,0 -2.041,0.0613 -1.935,0.17079 -1.836,0.11134 -1.645,0.1623 -1.701,0.05 -1.76,0.0604 -1.756,0.16607 -1.586,0.0491 -1.978,0.003 -2.036,0.17173 -0.968,0.051 -1.174,0.067 -1.174,0.15475 -0.933,0.12738 -0.904,0.0736 -0.953,0.0802 -2.118,0.13587 -1.556,0.33592 -1.498,0.11512 -1.355,0.30949 -1.03,0.18683 -0.783,0.22552 -0.414,0.0745 -1.191,0.23872 -0.251,0.14437 1.463,0.23495 1.419,1.40311 0.219,0.44348 -0.069,-0.6907 -0.047,-0.5001 0,-0.51047 -0.069,-0.74543 -0.048,-0.5152 0.001,-0.79638 -0.058,-0.88603 -0.011,-1.10965 -0.195,-1.1691 -0.116,-1.03794 -0.164,-0.95396 -0.054,-1.17381 -0.187,-1.37386 -0.18,-1.57861 -0.232,-1.47765 -0.165,-1.61541 -0.086,-0.95019 -0.084,-0.91433 -0.055,-0.99831 -0.055,-0.96434 10e-4,-1.04832 0,-1.13513 0,-1.13418 -10e-4,-1.05681 0.056,-1.08418 0.057,-1.12852 0.086,-1.1842 0.084,-1.17381 0.113,-1.11815 0.114,-1.1323 0.144,-1.18797 0.139,-1.16532 0.169,-1.08229 0.186,-1.20967 0.127,-1.18231 0.116,-1.09833 0.116,-1.04265 0.125,-1.12853 0.12,-1.90509 0.184,-1.98058 -0.063,-1.88716 -0.119,-1.40499 -0.056,-1.12758 -0.055,-0.86338 10e-4,-0.62182 -0.026,-0.53784 0.127,-1.75035 -0.486,1.14079 -2.018,2.09192 0.985,-0.15191 0.567,-0.23212 0.541,-0.0679 0.759,-0.23495 0.535,-0.0981 0.61,-0.17173 0.55,-0.11134 0.856,-0.10663 0.233,-0.0726 0.476,0.0604 0.494,-0.002 0.78,0.0585 1.095,-0.0679 0.7,-0.066 0.739,-0.10285 0.867,-0.0406 1.379,9.4e-4 1.53,-0.0557 1.602,0.10191 0.956,0.0793 1.01,0.084 1.098,0.084 1.092,0.084 1.152,0.084 1.071,0.0764 1.159,0.13116 1.308,0.14626 1.25,0.0887 1.261,0.0887 1.291,0.0302 1.204,0.0283 1.233,0.0274 1.274,0.0283 1.244,9.5e-4 1.285999,-9.5e-4 1.315,-0.0585 1.232,-0.0557 1.232,-0.0547 1.239,-0.0557 1.15,-0.0557 1.229,-0.0604 1.258,-0.11795 1.086,-0.10379 1.087,-0.05 1.183,-0.0557 1.066,-0.0566 1.007,-0.0528 1.008,-0.0264 1.063,-0.0274 1.65,-0.0547 1.645,0.10946 1.411,0.002 0.85,-0.0142 0.355,0.067 0.289,0.0727 -0.135,-0.13588 -0.341,-0.49538 2.516,-3.83754 3.79,1.01246 -0.215,-0.30855 -0.022,-0.3161 -0.256,-0.73977 -0.149,-0.62182 -0.257,-0.91244 -0.243,-0.80299 -0.199,-0.64636 -0.135,-0.64729 -0.172,-0.97755 -0.194,-0.97189 -0.231,-0.97944 -0.142,-0.7558 -0.094,-0.85112 -0.057,-1.0285 -0.123,-1.28044 -0.106,-1.06908 0.001,-1.00114 0.114,-1.43802 0.062,-1.67391 0.059,-1.72204 0.059,-1.77676 0.03,-0.97378 0.025,-0.88602 0.082,-0.96906 0.092,-1.09456 0.061,-1.09455 0.059,-1.0587 0.059,-1.14079 0.053,-1.05115 0.11,-1.02379 0.119,-1.12191 0.119,-1.23232 0.113,-1.18137 0.143,-1.18042 0.152,-1.267228 0.122,-1.37763 0.108,-1.237035 0.193,-1.291764 0.215,-1.455003 0.155,-1.510674 0.122,-1.254964 0.287,-1.255907 0.358,-1.622017 0.171,-1.623905 0.137,-1.351209 0.221,-1.378573 0.248,-1.557853 0.158,-1.558797 0.148,-1.490859 0.12,-1.406881 0.119,-1.410655 0.09,-1.327619 0.092,-1.364419 0.032,-1.170985 0.029,-1.271949 -0.097,-1.271948 -0.085,-1.075683 -0.057,-0.964341 -0.067,-1.10399 -0.237,-1.848477 -0.129,-1.707883 -0.298,-1.53049 -0.107,-1.139846 -0.17,-1.159662 -0.056,-0.966228 -0.112,-0.850167 0.003,-0.526519 -0.011,-0.859603 -0.168,0.341577 -0.784,0.895459 -0.322,0.246275 0.802,-0.209476 0.58,-0.133988 1.328,-0.406684 1.543,-0.976607 -1.802,-0.0019 -1.355,-1.31441 0.827,-0.134932 0.499,0.694476 z"
     __comy="268.023"
     __comx="194.547"
     __timestamp="0x14bc21adee4" />
  <path
     style="fill:#ff0000;stroke:none"
     inkscape:connector-curvature="0"
     id="path15"
     d="m 124.04656,192.79357 0.647,-0.531 1.135,0.151 1.087,0.955 -0.317,0.375 -1.555,0.257 0.099,0.128 -0.312,-0.21 0.175,0.363 -0.009,0.822 0.198,1.557 -0.092,1.807 0.022,1.381 0.023,1.086 -0.11,1.028 -0.136,1.43 0.021,1.696 0.029,1.24 -0.155,1.124 -0.2,1.632 0.024,1.81 0.028,1.486 -0.028,1.369 -0.029,1.401 -0.057,1.402 -0.06,1.47 -0.03,1.352 -0.03,1.4 0.03,1.341 0.029,1.22 -0.001,1.074 0.001,1.067 -0.029,1.007 -0.03,1.105 0,1.075 0,0.972 -0.059,1.934 0.061,1.946 0.059,1.422 0.059,1.466 0.064,1.504 0.144,1.487 0.252,1.339 0.182,1.148 0.253,1.208 0.164,0.765 0.176,0.997 0.148,0.653 0.036,0.569 0.064,0.646 0.053,0.47 0.048,0.42 -0.046,0.195 -0.222,0.824 -0.225,1.197 -0.075,0.657 -0.054,0.49 -0.136,1.073 -0.003,0.703 0.728,2.977 3.929,1.285 1.504,-0.602 0.559,-0.226 0.387,-0.1 0.669,-0.154 0.75,-0.161 0.876,-0.164 0.778,-0.143 0.79,-0.041 0.866,-0.053 0.828,0.043 1.168,0.169 1.371,0.12 1.144,0.147 1.368,0.286 1.635,0.253 1.792,0.254 1.899,0.129 1.942,0.121 2.054,0.061 1.028,0.029 1.124,0.031 1.183,-0.031 1.089,-0.029 1.948,-0.058 1.004,0 1.106,0 1.077,-0.03 1.028,-0.03 1.887,-0.057 1.641,0.057 1.646,0.06 1.71,-0.059 1.648,0 1.65,-0.063 1.842,-0.134 1.529,-0.235 1.447,-0.105 1.664,-0.124 1.554,-0.186 1.279,-0.162 1.074,-0.047 1.177,0 1.232,-0.059 0.973,0.001 1.081,-0.001 1.115,0.059 1.298,0 1.202,-0.063 1.174,-0.058 1.22,-0.066 1.269,-0.141 1.077,-0.188 1.004,-0.16 0.976,-0.107 1.167,-0.132 0.914,-0.165 0.779,-0.043 0.769,-0.064 0.441,-0.049 1.158,-0.089 2.947,-2.859 -2.95,-1.833 -0.853,-0.534 -0.013,0.002 -0.501,1.109 -2.012,-0.425 1.774,-2.273 0.102,-0.089 -0.732,0.069 -0.639,0.053 -1.098,0.074 -1.081,0.187 -0.945,0.103 -1.136,0.128 -1.226,0.192 -0.917,0.164 -0.844,0.093 -1.009,0.052 -1.173,0.059 -1.028,0.055 -0.93,0 -1.115,-0.059 -1.265,-0.001 -1.14,0.001 -1.232,0.059 -1.169,0 -1.508,0.07 -1.537,0.189 -1.379,0.167 -1.505,0.11 -1.721,0.131 -1.521,0.234 -1.443,0.1 -1.401,0.054 -1.638,0 -1.575,0.058 -1.405,-0.056 -1.879,-0.061 -2.103,0.06 -1.025,0.03 -0.977,0.028 -1.006,-0.001 -1.107,0.001 -2.042,0.06 -1.081,0.029 -0.988,0.028 -0.93,-0.028 -1.025,-0.029 -1.935,-0.057 -1.813,-0.114 -1.621,-0.105 -1.494,-0.216 -1.415,-0.217 -1.448,-0.3 -1.555,-0.204 -1.328,-0.115 -1.296,-0.183 -1.518,-0.075 -1.247,0.064 -1.205,0.077 -1.216,0.209 -1.001,0.188 -0.893,0.191 -0.856,0.198 -0.904,0.252 -1.201,0.478 0.096,0.102 2.756,1.167 0.845,1.804 -0.003,-0.587 0.099,-0.688 0.063,-0.566 0.042,-0.398 0.127,-0.681 0.247,-0.936 0.189,-1.33 -0.069,-1.34 -0.065,-0.586 -0.053,-0.528 -0.081,-0.956 -0.204,-0.99 -0.176,-0.998 -0.188,-0.877 -0.216,-1.021 -0.17,-1.082 -0.218,-1.125 -0.09,-0.977 -0.054,-1.312 -0.059,-1.467 -0.058,-1.395 -0.056,-1.691 0.058,-1.821 0.001,-1.081 -0.001,-0.978 0.029,-1.008 0.03,-1.104 0,-1.164 0,-1.155 -0.03,-1.302 -0.028,-1.182 0.028,-1.24 0.029,-1.288 0.057,-1.405 0.06,-1.473 0.03,-1.473 0.03,-1.506 -0.03,-1.623 -0.035,-1.3 0.152,-1.125 0.197,-1.634 -0.03,-1.752 -0.037,-1.296 0.099,-1.033 0.124,-1.437 -0.035,-1.495 -0.037,-1.2 0.025,-2.183 -0.271,-1.963 -0.244,-1.759 -0.764,-1.75 -1.016,-1.383 -2.13,-1.163 -2.962,-0.212 -1.022,1.431 -0.203,1.542 1.252,1.207 -0.644,0.525 z"
     __comy="399.107"
     __comx="263.160"
     __timestamp="0x14bc21aea8d" />
  <path
     style="fill:#ff0000;stroke:none"
     inkscape:connector-curvature="0"
     id="path17"
     d="m 193.79656,187.98357 0.98,0.891 -0.336,1.113 -2.331,-0.894 0.037,0.068 -0.358,0.328 0.086,1.424 -0.382,1.071 0.175,1.841 -0.281,1.476 0.128,1.49 0.086,0.661 -0.185,1.745 0.095,1.525 0.079,0.973 -0.078,0.886 -0.098,1.394 0.095,1.571 0.081,1.122 -0.055,1.064 -0.063,1.38 0.03,1.497 0.029,1.26 -0.055,1.143 -0.06,1.305 -0.031,1.423 -0.029,1.375 -0.03,1.258 -0.03,1.302 0,1.273 0,1.185 -0.028,1.038 -0.031,1.179 0.031,1.208 0.028,1.068 0,1.949 0,1.027 0.002,1.132 0.122,2.039 0.114,1.943 0.057,1.83 0.058,1.822 -0.001,1.647 0.001,1.629 -0.059,1.408 0.007,1.312 -0.183,1.508 0.12,1.518 0.01,1.261 0.278,1.582 0.378,1.092 0.218,0.936 0.32,1.032 0.314,1.064 0.3,0.842 0.223,0.727 0.218,0.65 0.092,0.311 0.127,0.982 2.31,-3.39 2.845,1.76 -1.949,-0.162 -0.538,-1.162 -0.013,0.003 0.048,1.303 -1.361,1.598 3.548,3.167 1.959,-4.562 -0.109,-0.896 -0.259,-0.98 -0.252,-0.758 -0.246,-0.798 -0.287,-0.801 -0.272,-0.93 -0.266,-0.846 -0.253,-1.059 -0.325,-0.902 -0.075,-0.413 0.01,-0.968 -0.114,-1.064 0.169,-1.191 0.007,-1.621 0.058,-1.408 0.001,-1.774 0,-1.756 -0.06,-1.932 -0.061,-1.925 -0.12,-2.046 -0.112,-1.834 0.001,-0.92 0,-1.027 0,-2.041 -0.03,-1.161 -0.029,-1.021 0.029,-0.992 0.03,-1.133 0,-1.279 0,-1.191 0.029,-1.221 0.029,-1.265 0.029,-1.382 0.028,-1.335 0.057,-1.217 0.063,-1.38 -0.03,-1.497 -0.029,-1.26 0.055,-1.143 0.062,-1.459 -0.095,-1.518 -0.081,-1.069 0.078,-0.894 0.098,-1.402 -0.097,-1.491 -0.081,-0.939 0.167,-1.893 -0.148,-1.392 -0.107,-0.564 0.188,-1.574 -0.294,-1.444 0.204,-1.042 -0.266,-1.274 0.111,-1.08 -0.549,-1.458 -2.566,-2.301 -0.923,2.285 -0.427,0.422 z"
     __comy="391.848"
     __comx="294.231"
     __timestamp="0x14bc21aefe8" />
  <path
     style="fill:#ff0000;stroke:none"
     inkscape:connector-curvature="0"
     id="path19"
     d="m 193.74656,192.66957 1.277,0.457 0.02,1.973 1.836,-0.116 0.471,-0.07 1.293,0.093 1.423,-0.161 1.891,0.008 1.801,-0.298 0.829,-0.038 1.174,-0.068 1.174,-0.164 0.78,-0.119 0.838,0.009 1.421,-0.016 1.388,-0.253 0.768,-0.162 0.854,-0.01 1.34,-0.04 1.252,-0.168 0.858,-0.125 1.004,-0.019 1.306,-0.033 1.158,-0.095 0.956,-0.081 1.043,-0.025 1.147,-0.03 1.088,-0.029 1.038,-0.029 1.097,10e-4 1.144,0 1.144,0 1.144,0 1.144,0 1.098,-10e-4 1.068,0.029 1.067,0.028 1.036,0.056 1.18,0.062 1.209,0.002 1.067,-0.001 1.007,0.029 1.105,0.03 1.867,0 1.774,0 1.332,-0.058 1.277,0.058 1.132,0 1.025,-0.003 0.559,-0.055 0.4,0.045 0.645,0.059 0.549,0.042 0.632,0.115 0.801,0.076 0.61,0.056 0.904,0.076 1.557,-0.177 -0.09,-0.059 3.092,-1.025 0.489,-4.233 -0.416,-0.862 -0.126,-0.13 0.043,-0.074 -0.129,-0.659 -0.096,-0.624 -0.097,-0.81 -0.048,-1.087 10e-4,-1.504 0,-1.894 0.028,-1.191 0.029,-1.199 0.057,-1.346 0.056,-1.319 0.113,-1.465 0.116,-1.504 0.145,-1.622 0.141,-1.588 0.199,-1.648 0.199,-1.651 0.257,-1.71 0.259,-1.727 0.288,-1.698 0.277,-1.644 0.334,-1.497 0.344,-1.546 0.372,-1.518 0.403,-1.649 0.283,-1.502 0.231,-1.249 0.311,-1.075 0.367,-1.288 0.279,-1.113 0.247,-0.992 0.54,-1.863 0.392,-1.759 0.265,-1.466 0.15,-1.311 0.003,-1.288 -0.086,-1.018 -0.165,-0.924 -0.189,-0.746 -0.394,-1.107 -1.742,-2.264 -3.861,-0.023 -0.587,0.645 0.87,-0.318 -0.394,-0.003 -0.88,-0.059 -0.878,0.002 -0.587,0.059 -0.412,-0.004 -0.791,0.003 -0.849,0.067 -0.847,0.074 -0.559,0.102 -0.649,-0.01 -0.764,0.057 -0.546,-0.043 -0.608,-0.07 -0.99,-0.266 -1.109,-0.219 -1.299,-0.398 -1.625,-0.377 -1.772,-0.427 -2.008,-0.377 -1.128,-0.183 -1.064,-0.173 -1.152,-0.201 -1.268,-0.221 -1.327,-0.159 -1.283,-0.153 -1.372,-0.122 -1.32,-0.117 -1.321,-0.118 -1.323,-0.117 -1.353,-0.118 -1.384,-0.12 -1.355,-0.091 -1.361,-0.09 -1.39,-0.061 -1.383,-0.06 -1.267,-0.03 -1.273,-0.03 -1.245,-0.001 -1.292,0.002 -1.234,0.062 -1.1,0.056 -1.071,0.028 -1.324,0.041 -1.205,0.171 -0.917,0.136 -1.626,0.162 -1.872,0.136 -1.593,0.313 -1.176,0.167 -0.809,0.146 -0.84,-0.003 -1.134,0.154 -0.399,0.086 -0.215,-0.009 -0.587,-0.059 -0.819,-0.004 -0.335,0.005 -0.528,-0.059 -1.307,-0.001 -1.513,0.232 -1.357,0.717 -0.146,0.143 -2.586,3.62 4.717,0.977 0.184,-1.601 -0.009,-0.011 -0.871,-0.662 2.957,0.742 -1.413,3.269 0.91,-0.562 -0.184,0.013 -0.34,0.115 0.571,-0.001 0.528,0.058 0.722,0.006 0.471,-0.005 0.586,0.059 1.193,-0.01 0.892,-0.148 0.508,-0.081 0.921,-0.003 1.303,-0.206 1.287,-0.185 1.341,-0.274 1.531,-0.099 1.894,-0.19 1.078,-0.157 0.789,-0.122 0.906,-0.018 1.158,-0.031 1.188,-0.06 1.054,-0.056 1.113,0.001 1.161,0 1.191,0.029 1.197,0.028 1.315,0.058 1.309,0.056 1.28,0.086 1.285,0.085 1.314,0.115 1.346,0.117 1.317,0.117 1.32,0.117 1.32,0.117 1.268,0.113 1.18,0.141 1.137,0.134 1.079,0.19 1.195,0.209 1.107,0.179 1.042,0.169 1.747,0.327 1.631,0.395 1.426,0.327 1.399,0.423 1.238,0.251 1.24,0.319 1.269,0.165 1.213,0.075 0.997,-0.061 0.993,-0.01 0.849,-0.132 0.561,-0.044 0.559,-0.049 0.5,0.003 0.761,-0.005 0.587,-0.058 0.296,0.002 0.88,0.059 1.014,-0.004 1.925,-0.435 0.587,-0.646 -2.805,-0.14 -1.273,-1.208 0.193,0.536 0.046,0.192 0.069,0.367 0.031,0.39 0.003,0.589 -0.085,0.684 -0.203,1.116 -0.312,1.409 -0.517,1.774 -0.28,1.12 -0.25,0.999 -0.336,1.176 -0.393,1.389 -0.298,1.568 -0.245,1.313 -0.359,1.461 -0.391,1.591 -0.36,1.622 -0.37,1.671 -0.31,1.818 -0.298,1.763 -0.269,1.793 -0.272,1.81 -0.211,1.752 -0.212,1.755 -0.152,1.697 -0.148,1.664 -0.119,1.547 -0.122,1.585 -0.061,1.438 -0.06,1.412 -0.031,1.265 -0.03,1.273 0,1.978 0.001,1.663 0.069,1.496 0.138,1.184 0.139,0.901 0.105,0.514 0.161,0.983 0.578,1.278 0.17,0.311 0.841,-3.059 1.919,-1.261 -1.029,0.176 -0.32,0.058 -0.152,-0.041 -0.68,-0.062 -0.491,-0.041 -0.658,-0.119 -0.859,-0.076 -0.646,-0.058 -1.007,-0.072 -0.85,0.061 -0.734,-0.003 -0.98,0.001 -1.423,-0.059 -1.484,0.059 -1.628,-0.001 -1.77,0.001 -1.008,-0.029 -1.104,-0.03 -1.164,0 -1.02,0.001 -0.991,-0.055 -1.133,-0.061 -1.164,-0.031 -1.16,-0.03 -1.19,0 -1.144,0 -1.144,0 -1.144,0 -1.144,0 -1.192,0 -1.132,0.03 -1.083,0.03 -1.142,0.029 -1.245,0.033 -1.156,0.095 -0.953,0.081 -1.1,0.025 -1.402,0.04 -1.253,0.169 -0.861,0.125 -0.947,0.019 -1.435,0.048 -1.344,0.249 -0.723,0.158 -0.75,-0.016 -1.334,0.009 -1.273,0.174 -0.879,0.13 -0.879,0.049 -1.224,0.079 -1.602,0.289 -1.746,0.008 -1.277,0.19 -1.522,-0.024 -1.29,0.283 -0.98,0.47 -2.443,1.856 1.628,1.983 z"
     __comy="353.370"
     __comx="325.602"
     __timestamp="0x14bc21af306" />
</svg>
