<?xml version="1.0" encoding="UTF-8" standalone="no"?>
<!-- Created with Inkscape (http://www.inkscape.org/) -->

<svg
   xmlns:dc="http://purl.org/dc/elements/1.1/"
   xmlns:cc="http://creativecommons.org/ns#"
   xmlns:rdf="http://www.w3.org/1999/02/22-rdf-syntax-ns#"
   xmlns:svg="http://www.w3.org/2000/svg"
   xmlns="http://www.w3.org/2000/svg"
   xmlns:sodipodi="http://sodipodi.sourceforge.net/DTD/sodipodi-0.dtd"
   xmlns:inkscape="http://www.inkscape.org/namespaces/inkscape"
   width="320"
   height="320"
   id="svg3958"
   version="1.1"
   inkscape:version="0.48.5 r10040"
   sodipodi:docname="insight.svg">
  <defs
     id="defs3960" />
  <sodipodi:namedview
     id="base"
     pagecolor="#ffffff"
     bordercolor="#666666"
     borderopacity="1.0"
     inkscape:pageopacity="0.0"
     inkscape:pageshadow="2"
     inkscape:zoom="1.4"
     inkscape:cx="184.66518"
     inkscape:cy="175.06494"
     inkscape:document-units="px"
     inkscape:current-layer="layer1"
     showgrid="false"
     inkscape:window-width="897"
     inkscape:window-height="727"
     inkscape:window-x="481"
     inkscape:window-y="22"
     inkscape:window-maximized="0" />
  <metadata
     id="metadata3963">
    <rdf:RDF>
      <cc:Work
         rdf:about="">
        <dc:format>image/svg+xml</dc:format>
        <dc:type
           rdf:resource="http://purl.org/dc/dcmitype/StillImage" />
      </cc:Work>
    </rdf:RDF>
  </metadata>
  <g
     inkscape:label="Layer 1"
     inkscape:groupmode="layer"
     id="layer1"
     transform="translate(0,-732.36218)">
    <rect
       style="fill:#f2f2f2;stroke:#ff0000;stroke-width:0;stroke-miterlimit:4;stroke-opacity:1;stroke-dasharray:none"
       id="rect3968"
       width="132.14285"
       height="141.42857"
       x="11.428572"
       y="17.142857"
       transform="translate(0,732.36218)" />
    <rect
       style="fill:#f2f2f2;stroke:#ff0000;stroke-width:0;stroke-miterlimit:4;stroke-opacity:1;stroke-dasharray:none"
       id="rect3968-3"
       width="132.14285"
       height="141.42857"
       x="174.64285"
       y="889.505" />
    <rect
       style="fill:#f9f9f9;stroke:#ff0000;stroke-width:0;stroke-miterlimit:4;stroke-opacity:1;stroke-dasharray:none"
       id="rect3968-2"
       width="132.14285"
       height="141.42857"
       x="8.2142868"
       y="745.21936" />
    <rect
       style="fill:#f9f9f9;stroke:#ff0000;stroke-width:0;stroke-miterlimit:4;stroke-opacity:1;stroke-dasharray:none"
       id="rect3968-2-2"
       width="132.14285"
       height="141.42857"
       x="171.07143"
       y="885.2193" />
    <text
       xml:space="preserve"
       style="font-size:24px;font-style:normal;font-variant:normal;font-weight:normal;font-stretch:normal;line-height:125%;letter-spacing:0px;word-spacing:0px;fill:#666666;fill-opacity:1;stroke:none;font-family:Segoe UI;-inkscape-font-specification:Segoe UI"
       x="25"
       y="779.64789"
       id="text4026"
       sodipodi:linespacing="125%"><tspan
         sodipodi:role="line"
         id="tspan4028"
         x="25"
         y="779.64789">01010101</tspan><tspan
         sodipodi:role="line"
         x="25"
         y="809.64789"
         id="tspan4030">10101011</tspan><tspan
         sodipodi:role="line"
         x="25"
         y="839.64789"
         id="tspan4032">01001110</tspan><tspan
         sodipodi:role="line"
         x="25"
         y="869.64789"
         id="tspan4036">11010101</tspan></text>
    <path
       style="fill:none;stroke:#000000;stroke-width:1px;stroke-linecap:butt;stroke-linejoin:miter;stroke-opacity:1"
       d="m 190.71429,905.93361 c 0,94.28569 0,97.14289 0,97.14289 l 5.71428,0 90.71429,0"
       id="path4042"
       inkscape:connector-curvature="0" />
    <rect
       style="fill:#000080;stroke:#ff0000;stroke-width:0;stroke-miterlimit:4;stroke-opacity:1;stroke-dasharray:none"
       id="rect4044"
       width="10.714286"
       height="28.571426"
       x="197.85715"
       y="970.93359" />
    <rect
       style="fill:#000080;stroke:#ff0000;stroke-width:0;stroke-miterlimit:4;stroke-opacity:1;stroke-dasharray:none"
       id="rect4044-1"
       width="10.714286"
       height="36.42857"
       x="216.78572"
       y="962.71936" />
    <rect
       style="fill:#000080;stroke:#ff0000;stroke-width:0;stroke-miterlimit:4;stroke-opacity:1;stroke-dasharray:none"
       id="rect4044-6"
       width="10.714286"
       height="42.142857"
       x="235.35715"
       y="956.29077" />
    <rect
       style="fill:#000080;stroke:#ff0000;stroke-width:0;stroke-miterlimit:4;stroke-opacity:1;stroke-dasharray:none"
       id="rect4044-8"
       width="10.714286"
       height="55"
       x="255.35713"
       y="943.43365" />
    <rect
       style="fill:#000080;stroke:#ff0000;stroke-width:0;stroke-miterlimit:4;stroke-opacity:1;stroke-dasharray:none"
       id="rect4044-5"
       width="10.714286"
       height="69.285713"
       x="272.5"
       y="929.14795" />
    <path
       style="fill:none;stroke:#000000;stroke-width:1px;stroke-linecap:butt;stroke-linejoin:miter;stroke-opacity:1"
       d="m 74.285714,186.42857 c 0,5 0,10 0,15 0,0.71429 0,1.42857 0,2.14286 0,0.71428 -0.140083,1.44244 0,2.14286 0.104412,0.52205 0.545927,0.92349 0.714286,1.42857 0.07529,0.22587 0,0.47619 0,0.71428 0.238095,0.71429 0.377568,1.46942 0.714286,2.14286 0.150584,0.30117 0.607806,0.39485 0.714286,0.71429 0.150584,0.45175 -0.115494,0.96659 0,1.42857 0.129125,0.5165 0.545926,0.92349 0.714285,1.42857 0.07529,0.22588 -0.106479,0.50133 0,0.71428 0.150585,0.30117 0.563701,0.41312 0.714286,0.71429 0.106479,0.21296 -0.106479,0.50133 0,0.71429 0.150585,0.30116 0.563701,0.41311 0.714286,0.71428 0.106479,0.21296 -0.10648,0.50133 0,0.71429 0.150584,0.30117 0.527508,0.43412 0.714285,0.71428 0.295321,0.44298 0.418965,0.98559 0.714286,1.42857 0.373555,0.56034 1.055017,0.86824 1.428572,1.42858 0.29532,0.44298 0.337824,1.05211 0.714285,1.42857 0.376462,0.37646 0.98559,0.41896 1.428572,0.71428 2.142857,1.42857 -1.428572,0 2.142857,2.14286 5.807952,3.48477 -0.765049,-1.46241 3.571428,1.42857 3.013548,2.00903 -3.880252,-1.22584 2.857143,2.14286 0.673435,0.33672 1.428572,0.47619 2.142857,0.71428 0.714286,0.2381 1.418904,0.50745 2.142858,0.71429 0.94392,0.26969 1.937956,0.36959 2.857142,0.71429 0.996996,0.37387 1.860146,1.05469 2.857146,1.42857 1.83086,0.68657 3.27317,0.56515 5,1.42857 0.76783,0.38392 1.31742,1.19273 2.14285,1.42857 0.91574,0.26164 1.91772,-0.15657 2.85715,0 0.52515,0.0875 0.90651,0.60987 1.42857,0.71429 1.40083,0.28016 2.8998,-0.34648 4.28571,0 0.32667,0.0817 0.39485,0.6078 0.71429,0.71428 0.45175,0.15059 0.95238,0 1.42857,0 0.2381,0 0.50133,-0.10648 0.71429,0 0.30117,0.15059 0.41311,0.5637 0.71428,0.71429 0.13745,0.0687 3.5314,0.0133 3.57143,0 0.50508,-0.16836 0.91207,-0.58516 1.42857,-0.71429 0.46197,-0.11549 0.9666,0.11549 1.42857,0 0.5165,-0.12912 0.91207,-0.58516 1.42857,-0.71428 0.64754,-0.16189 2.74167,0 3.57143,0"
       id="path4087"
       inkscape:connector-curvature="0"
       transform="translate(0,732.36218)" />
    <path
       style="fill:none;stroke:#000000;stroke-width:1px;stroke-linecap:butt;stroke-linejoin:miter;stroke-opacity:1"
       d="m 120.71429,219.28571 c 1.31637,2.23725 3.19547,3.90976 5,5.71429 0.47619,0.47619 0.88982,1.02451 1.42857,1.42857 0.42591,0.31944 0.97204,0.44037 1.42857,0.71429 0.73613,0.44167 1.40673,0.98689 2.14286,1.42857 0.45652,0.27391 1.00265,0.39485 1.42857,0.71428 0.53875,0.40407 0.88982,1.02451 1.42857,1.42858 0.42592,0.31943 0.95238,0.47619 1.42857,0.71428 0.47619,0.2381 0.9235,0.54593 1.42857,0.71429 0.22588,0.0753 0.54593,-0.16836 0.71429,0 0.16836,0.16836 -0.16836,0.54592 0,0.71428 0.33671,0.33672 1.00265,-0.21296 1.42857,0 0.30117,0.15059 0.39485,0.60781 0.71428,0.71429 0.64098,0.45175 1.46523,-0.22588 2.14286,0 0.50508,0.16836 0.9235,0.54593 1.42857,0.71428 0.22588,0.0753 0.54593,-0.16835 0.71429,0 0.16836,0.16836 -0.16836,0.54593 0,0.71429 0.16836,0.16836 0.50133,-0.10648 0.71428,0 0.30117,0.15058 0.41312,0.5637 0.71429,0.71429 0.21296,0.10648 0.54593,-0.16836 0.71429,0 0.16835,0.16835 -0.16836,0.54592 0,0.71428 0.37646,0.37646 1.05211,0.33783 1.42857,0.71429 0.16836,0.16836 0.21296,0.6078 0,0.71428 -0.42592,0.21296 -0.97682,-0.15058 -1.42857,0 -0.63888,0.21296 -0.82624,1.1274 -1.42858,1.42857 -0.21295,0.10648 -0.4884,-0.0753 -0.71428,0 -0.50508,0.16836 -0.95238,0.47619 -1.42857,0.71429 -0.47619,0.2381 -0.98559,0.41896 -1.42857,0.71429 -0.28017,0.18677 -0.43412,0.5275 -0.71429,0.71428 -0.88596,0.59064 -1.90476,0.95238 -2.85714,1.42857 -0.47619,0.2381 -0.95238,0.47619 -1.42857,0.71429 -0.47619,0.23809 -0.91207,0.58516 -1.42858,0.71428 -0.46197,0.1155 -1.03235,-0.26414 -1.42857,0 -0.44298,0.29533 -0.33782,1.05211 -0.71428,1.42858 -0.37646,0.37646 -0.98559,0.41896 -1.42857,0.71428 -0.28017,0.18678 -0.39485,0.60781 -0.71429,0.71429 -0.45175,0.15058 -0.97682,-0.15059 -1.42857,0 -0.32607,0.10869 -1.82117,1.82117 -2.14286,2.14285 -0.23809,0.2381 -0.41311,0.56371 -0.71428,0.71429 -0.21296,0.10648 -0.50133,-0.10648 -0.71429,0 -0.88264,0.44132 -0.71429,0.68963 -0.71429,1.42857"
       id="path4089"
       inkscape:connector-curvature="0"
       transform="translate(0,732.36218)" />
  </g>
</svg>
