<?xml version="1.0" encoding="UTF-8" standalone="no"?>
<svg
   xmlns:dc="http://purl.org/dc/elements/1.1/"
   xmlns:cc="http://creativecommons.org/ns#"
   xmlns:rdf="http://www.w3.org/1999/02/22-rdf-syntax-ns#"
   xmlns:svg="http://www.w3.org/2000/svg"
   xmlns="http://www.w3.org/2000/svg"
   xmlns:sodipodi="http://sodipodi.sourceforge.net/DTD/sodipodi-0.dtd"
   xmlns:inkscape="http://www.inkscape.org/namespaces/inkscape"
   width="320"
   height="320"
   id="svg2"
   version="1.1"
   inkscape:version="0.48.4 r9939"
   sodipodi:docname="project_costs.svg">
  <metadata
     id="metadata35">
    <rdf:RDF>
      <cc:Work
         rdf:about="">
        <dc:format>image/svg+xml</dc:format>
        <dc:type
           rdf:resource="http://purl.org/dc/dcmitype/StillImage" />
      </cc:Work>
    </rdf:RDF>
  </metadata>
  <sodipodi:namedview
     pagecolor="#ffffff"
     bordercolor="#666666"
     borderopacity="1"
     objecttolerance="10"
     gridtolerance="10"
     guidetolerance="10"
     inkscape:pageopacity="0"
     inkscape:pageshadow="2"
     inkscape:window-width="640"
     inkscape:window-height="480"
     id="namedview33"
     showgrid="false"
     inkscape:zoom="0.23935091"
     inkscape:cx="303.5"
     inkscape:cy="493"
     inkscape:window-x="0"
     inkscape:window-y="0"
     inkscape:window-maximized="0"
     inkscape:current-layer="svg2" />
  <defs
     id="defs4">
    <style
       type="text/css"
       id="style6"> 
  path { stroke-linecap: round; stroke-linejoin: round; }
  .ruleline { shape-rendering: crispEdges; }
</style>
  </defs>
  <g
     id="page_1"
     width="607.000"
     height="986.000"
     xruling="0.000"
     yruling="0.000"
     marginLeft="0.000"
     papercolor="#FFFFFF"
     rulecolor="#FF0000FF"
     transform="translate(-58.491525,-156.28814)">
    <path
       __timestamp="0x14bc21d1d4e"
       __comx="234.110"
       __comy="351.235"
       d="m 146.365,356.462 0.712,0.174 -0.26,-0.508 -0.772,-0.02 0.816,0.099 1.571,1.083 -0.754,1.309 0.9,0.095 0.49,0.199 0.198,-0.047 1.095,0.145 1.048,-0.16 1.712,0.184 1.921,-0.245 0.921,-0.018 1.343,-0.043 1.34,-0.204 0.922,-0.151 1.097,-0.045 1.493,-0.074 1.462,-0.232 1.054,-0.178 1.199,-0.043 1.521,-0.065 1.49,-0.157 1.194,-0.132 1.34,0.005 1.7,-0.005 1.641,-0.159 1.325,-0.136 1.414,-0.024 1.622,-0.031 1.593,-0.091 1.49,-0.086 1.548,-0.057 1.62,-0.06 1.561,-0.09 1.488,-0.086 1.576,-0.058 1.619,-0.058 1.501,-0.059 1.495,-0.059 1.524,-0.058 1.56,-0.061 1.532,-0.09 1.393,-0.083 1.364,0.001 1.502,0 1.502,-0.03 1.465,-0.029 1.524,-0.029 1.456,-0.029 1.368,0.029 1.439,0.029 1.528,0.029 1.523,0.03 1.435,0.029 1.509,0.03 1.537,-0.03 1.36,-0.029 1.331,0.056 1.582,0.062 1.552,-0.062 1.373,-0.057 1.315,-0.029 1.311,-0.028 1.37,0 1.483,-10e-4 1.453,-0.061 1.304,-0.056 1.275,0 1.422,0 1.481,-0.061 1.371,-0.058 1.4,-0.028 1.472,-0.03 1.501,-0.06 1.431,-0.057 1.432,-0.029 1.505,-0.03 1.446,-0.06 1.405,-0.059 1.464,-0.058 1.433,-0.058 1.374,-0.028 1.445,-0.031 1.444,-0.06 1.373,-0.057 1.343,-0.028 1.414,-0.031 1.444,-0.06 1.446,-0.06 1.418,-0.09 1.338,-0.086 1.397,-0.057 1.404,-0.057 1.316,-0.029 1.35,-0.029 1.349,-0.029 1.312,-0.029 1.223,0 1.341,-10e-4 1.37,-0.061 1.165,-0.055 0.989,0.028 1.21,0.03 1.15,-0.03 0.945,-0.028 1.594,0.058 1.495,-0.003 1.166,0.105 1.266,0.128 0.895,-0.012 0.989,0.185 1.066,-0.052 0.83,0.112 1.156,0.007 1.191,-0.006 1.273,-0.136 0.962,-0.12 1.026,-0.129 0.89,-0.162 1.131,-0.087 1.104,-0.314 0.66,-0.071 1.147,-0.149 1.009,-0.249 0.89,-0.146 1.229,-0.185 1.32,-0.263 1.056,-0.26 1.153,-0.105 1.302,-0.245 1.146,-0.156 0.976,-0.103 0.989,-0.054 0.783,-0.054 0.511,-0.004 0.023,-0.006 0.131,0.051 0.054,-0.003 4.232,0.863 -0.557,-4.28 -1.22,-0.299 -0.011,0.007 -0.515,0.758 -0.675,-2.521 2.12,-0.661 -1.12,-0.473 -1.041,-0.301 -1.034,-0.124 -1.131,-0.003 -0.977,0.063 -1.123,0.063 -1.254,0.132 -1.435,0.196 -1.162,0.224 -1.311,0.13 -1.408,0.327 -1.027,0.206 -1.118,0.166 -1.222,0.207 -0.868,0.221 -0.73,0.084 -1.218,0.164 -0.891,0.273 -0.746,0.03 -1.105,0.191 -0.851,0.105 -0.915,0.115 -0.839,0.098 -0.804,-0.005 -0.721,0.007 -1.048,-0.123 -0.811,0.065 -0.771,-0.167 -1.218,-0.012 -0.963,-0.106 -1.532,-0.13 -1.674,-0.003 -1.691,-0.059 -1.167,0.03 -0.962,0.028 -1.02,-0.028 -1.24,-0.03 -1.416,0.062 -1.211,0.056 -1.182,-0.001 -1.3,0 -1.387,0.03 -1.349,0.03 -1.35,0.029 -1.382,0.03 -1.471,0.06 -1.478,0.061 -1.418,0.09 -1.34,0.086 -1.37,0.056 -1.372,0.058 -1.343,0.028 -1.415,0.03 -1.443,0.06 -1.372,0.058 -1.372,0.028 -1.441,0.03 -1.5,0.06 -1.47,0.059 -1.411,0.059 -1.37,0.057 -1.429,0.028 -1.501,0.031 -1.502,0.06 -1.433,0.057 -1.403,0.028 -1.474,0.031 -1.445,0.06 -1.336,0.056 -1.276,-0.001 -1.424,0.001 -1.453,0.061 -1.304,0.057 -1.334,-0.001 -1.446,0 -1.387,0.03 -1.384,0.03 -1.443,0.06 -1.264,0.056 -1.293,-0.056 -1.544,-0.061 -1.573,0.029 -1.396,0.029 -1.367,-0.029 -1.439,-0.029 -1.528,-0.029 -1.523,-0.03 -1.435,-0.029 -1.507,-0.03 -1.595,0.03 -1.526,0.029 -1.468,0.03 -1.432,0.029 -1.432,-10e-4 -1.569,0.002 -1.599,0.092 -1.461,0.087 -1.489,0.057 -1.527,0.058 -1.497,0.059 -1.492,0.059 -1.608,0.058 -1.65,0.06 -1.563,0.09 -1.489,0.086 -1.548,0.058 -1.62,0.06 -1.562,0.09 -1.457,0.084 -1.487,0.028 -1.696,0.035 -1.608,0.157 -1.293,0.134 -1.351,-0.004 -1.711,0.005 -1.563,0.161 -1.267,0.137 -1.295,0.052 -1.617,0.073 -1.469,0.233 -1.061,0.179 -1.088,0.043 -1.485,0.073 -1.307,0.201 -0.889,0.148 -0.887,0.016 -1.308,0.04 -1.481,0.225 -1.809,-0.168 -1.064,0.192 -1.369,-0.09 -0.741,0.187 -1.269,0.317 -0.157,0.682 -1.81,1.191 1.923,2.139 1.872,-0.018 -1.945,-0.49 0.445,0.666 -0.697,-0.178 z"
       id="path9"
       inkscape:connector-curvature="0"
       style="fill:#000000;stroke:none" />
    <path
       __timestamp="0x14bc21d2285"
       __comx="239.707"
       __comy="385.065"
       d="m 141.679,362.268 1.187,0.611 0.186,1.226 0.966,0.075 -0.262,0.132 -1.271,-0.544 -0.278,-0.115 -0.184,0.876 0.249,1.848 -0.108,0.527 -0.151,1.274 0.049,1.629 0.049,1.123 -0.108,1.122 -0.129,1.5 -0.004,1.795 0.003,1.481 -0.135,1.423 -0.158,1.745 -0.004,1.863 0.005,1.514 -0.161,1.457 -0.187,1.768 -0.065,1.797 -0.05,1.516 -0.189,1.487 -0.216,1.737 -0.125,1.767 -0.109,1.569 -0.194,1.482 -0.212,1.645 -0.153,1.615 -0.138,1.472 -0.195,1.354 -0.218,1.539 -0.127,1.511 -0.117,1.395 -0.116,1.277 -0.12,1.327 -0.091,1.298 -0.086,1.238 -0.086,1.033 -0.095,1.151 -0.033,1.122 -0.029,1.02 -0.06,1.869 0,1.881 0.064,1.724 0.118,1.472 0.059,1.472 0.124,1.504 0.119,1.253 0.128,1.326 0.176,1.173 0.108,1.147 0.11,1.09 0.054,1.15 0.065,1.215 0.117,1.115 0.049,0.931 0.003,1.256 0.134,1.377 0.131,1.111 0.164,0.961 0.073,1.046 0.223,1.019 0.154,0.715 0.108,0.651 0.099,0.532 0.048,0.504 0.118,0.88 0.079,0.736 0.142,0.666 0.652,1.918 2.856,1.791 2.118,-0.274 0.801,-0.245 0.648,-0.274 0.832,-0.211 0.661,-0.152 0.579,-0.125 0.945,-0.041 1.081,-0.112 1.304,0.004 1.467,-0.059 1.443,-0.002 1.522,0.115 1.715,0.062 1.772,0.057 1.881,0.117 2.045,0.062 1.08,10e-4 1.071,-10e-4 1.217,-0.03 1.129,-0.028 1.101,0 1.144,0 1.29,0 1.291,0 1.32,0 1.281,0 1.281,0.028 1.323,0.03 1.41,0.029 1.367,0.028 1.279,0.057 1.204,0.052 1.205,0.136 1.347,0.149 1.259,0.12 1.156,0.11 1.186,0.166 1.375,0.19 1.317,0.098 1.172,0.086 1.26,0.114 1.411,0.127 1.47,0.034 1.315,0.028 1.373,0.058 1.516,0.061 1.574,-0.03 1.533,-0.031 1.591,-0.091 1.458,-0.085 1.458,-0.027 1.561,-0.031 1.531,-0.059 1.464,-0.058 1.375,-0.029 1.372,-0.028 1.342,0 1.298,-0.001 1.18,0.056 1.301,0.06 1.271,0.031 1.095,0.023 1.008,0.106 1.239,0.126 1.327,0.064 1.15,0.054 1.149,0.11 1.358,0.127 1.417,0.035 1.256,0.028 1.344,0.058 1.417,0.06 1.446,0.03 1.478,0.03 1.595,-0.03 1.527,-0.029 1.468,-0.029 1.569,-0.033 1.598,-0.124 1.429,-0.113 1.4,-0.055 1.582,-0.065 1.493,-0.157 1.231,-0.135 1.231,-0.023 1.531,-0.035 1.501,-0.16 1.238,-0.137 1.208,-0.052 1.46,-0.067 1.312,-0.162 0.998,-0.129 1.084,-0.02 1.346,-0.033 1.316,-0.093 1.229,-0.088 1.258,-0.087 1.265,-0.089 1.234,-0.088 1.224,-0.087 1.312,-0.088 1.283,-0.085 1.254,-0.057 1.366,-0.063 1.396,-0.123 1.25,-0.112 1.133,-0.055 1.276,-0.063 1.364,-0.123 1.222,-0.112 1.075,-0.054 1.185,-0.061 1.215,-0.091 1.089,-0.083 1.002,-0.026 1.192,-0.034 1.104,-0.095 0.946,-0.084 2,-0.118 1.996,-0.181 1.888,-0.177 1.829,-0.177 1.755,-0.176 1.935,-0.182 1.653,-0.224 1.75,-0.053 2.001,-0.186 1.655,-0.172 1.7,-0.113 1.643,-0.114 1.757,-0.058 1.814,-0.121 1.823,-0.117 1.768,-0.123 1.838,-0.19 1.584,-0.235 1.574,-0.162 1.664,-0.126 1.227,-0.182 0.98,-0.103 0.638,-0.047 -3.094,-3.364 3.312,-3.426 0.465,1.021 -1.367,0.822 -1.312,-0.666 -0.013,0.006 -0.373,1.681 -0.076,2.347 1.521,1.49 4.838,-3.543 -4.151,-3.364 -1.004,0.07 -1.25,0.132 -1.119,0.17 -1.505,0.109 -1.828,0.19 -1.584,0.234 -1.566,0.162 -1.634,0.112 -1.814,0.117 -1.706,0.114 -1.764,0.059 -1.759,0.121 -1.82,0.122 -1.748,0.18 -1.754,0.166 -1.887,0.064 -1.867,0.245 -1.82,0.17 -1.765,0.177 -1.808,0.175 -1.867,0.175 -1.876,0.171 -1.99,0.117 -1.048,0.092 -0.891,0.08 -0.979,0.025 -1.169,0.032 -1.257,0.094 -1.132,0.085 -1.103,0.056 -1.213,0.063 -1.359,0.123 -1.218,0.111 -1.129,0.055 -1.273,0.062 -1.389,0.123 -1.245,0.112 -1.215,0.054 -1.328,0.061 -1.357,0.09 -1.328,0.088 -1.24,0.089 -1.229,0.088 -1.259,0.088 -1.264,0.088 -1.235,0.088 -1.148,0.083 -1.177,0.026 -1.438,0.038 -1.35,0.165 -1.034,0.132 -1.181,0.049 -1.431,0.066 -1.461,0.157 -1.197,0.133 -1.227,0.023 -1.527,0.036 -1.526,0.159 -1.264,0.136 -1.351,0.052 -1.534,0.062 -1.563,0.122 -1.394,0.111 -1.365,0.026 -1.465,0.029 -1.524,0.03 -1.455,0.028 -1.338,-0.028 -1.37,-0.029 -1.341,-0.057 -1.414,-0.06 -1.325,-0.03 -1.164,-0.024 -1.106,-0.108 -1.315,-0.124 -1.315,-0.064 -1.136,-0.053 -1.049,-0.109 -1.281,-0.128 -1.369,-0.035 -1.192,-0.029 -1.222,-0.057 -1.343,-0.061 -1.46,-10e-4 -1.415,0 -1.444,0.03 -1.441,0.03 -1.528,0.06 -1.461,0.057 -1.49,0.029 -1.593,0.031 -1.592,0.091 -1.46,0.085 -1.401,0.028 -1.359,0.028 -1.3,-0.055 -1.443,-0.06 -1.384,-0.031 -1.229,-0.024 -1.17,-0.109 -1.321,-0.12 -1.234,-0.09 -1.088,-0.078 -1.148,-0.162 -1.337,-0.186 -1.308,-0.125 -1.205,-0.115 -1.292,-0.143 -1.436,-0.158 -1.435,-0.066 -1.362,-0.06 -1.449,-0.03 -1.406,-0.03 -1.317,-0.029 -1.359,-0.03 -1.359,0 -1.32,0 -1.291,0 -1.29,0 -1.144,0 -1.188,0 -1.217,0.03 -1.13,0.029 -0.983,0 -0.974,0 -1.826,-0.055 -1.874,-0.118 -1.866,-0.06 -1.57,-0.056 -1.646,-0.12 -1.842,-0.001 -1.467,0.058 -1.512,0.004 -1.265,0.123 -1.285,0.076 -1.181,0.227 -0.865,0.2 -1.396,0.375 -0.761,0.313 -0.372,0.107 0.827,0.079 1.918,1.204 0.417,0.627 -0.093,-0.39 -0.038,-0.438 -0.117,-0.88 -0.069,-0.668 -0.135,-0.759 -0.127,-0.758 -0.198,-0.927 -0.129,-0.507 -0.045,-0.831 -0.188,-1.151 -0.103,-0.884 -0.101,-0.969 0.003,-1.091 -0.069,-1.298 -0.117,-1.115 -0.052,-1.014 -0.064,-1.315 -0.124,-1.256 -0.127,-1.317 -0.176,-1.174 -0.107,-1.138 -0.116,-1.211 -0.11,-1.312 -0.058,-1.461 -0.117,-1.462 -0.053,-1.444 0,-1.639 0.057,-1.769 0.03,-1.033 0.025,-0.931 0.081,-0.961 0.09,-1.079 0.09,-1.285 0.085,-1.225 0.115,-1.254 0.118,-1.304 0.118,-1.421 0.108,-1.306 0.192,-1.335 0.216,-1.521 0.156,-1.637 0.14,-1.494 0.198,-1.524 0.217,-1.686 0.126,-1.775 0.11,-1.577 0.195,-1.549 0.221,-1.798 0.067,-1.828 0.053,-1.547 0.164,-1.517 0.191,-1.829 0.005,-1.888 -0.003,-1.54 0.135,-1.423 0.158,-1.745 0.003,-1.804 -0.003,-1.491 0.105,-1.199 0.127,-1.576 -0.069,-1.577 -0.068,-1.07 0.084,-0.72 0.126,-1.468 -0.337,-1.906 0.05,-1.471 -1.333,-3.166 -2.797,-1.483 -1.787,0.485 -0.56,0.309 -0.987,1.343 0.248,1.903 z"
       id="path11"
       inkscape:connector-curvature="0"
       style="fill:#000000;stroke:none" />
    <path
       __timestamp="0x14bc21d2917"
       __comx="324.278"
       __comy="365.572"
       d="m 327.36,352.401 0.737,-2.066 0.317,-0.521 -3.519,-2.135 -2.613,4.051 0.169,0.642 -0.118,0.509 0.18,1.405 -0.062,1.14 0.176,1.848 -0.06,1.794 0.063,1.342 0.054,0.998 -0.08,1.087 -0.095,1.445 0.029,1.62 0.029,1.363 -0.056,1.393 -0.061,1.565 0,1.74 0.002,1.545 -0.111,1.487 -0.119,1.651 -0.091,1.769 -0.085,1.693 -0.115,1.575 -0.12,1.65 -0.09,1.738 -0.084,1.638 -0.142,1.61 -0.151,1.731 -0.092,1.702 -0.086,1.61 -0.115,1.58 -0.117,1.606 -0.117,1.518 -0.119,1.555 -0.09,1.496 -0.088,1.46 -0.087,1.372 -0.088,1.368 -0.087,1.251 -0.09,1.3 -0.061,1.271 -0.048,1.074 -0.128,0.899 -0.158,1.143 -0.097,1.084 -0.086,0.983 -0.167,1.733 -0.234,1.69 -0.192,1.878 -0.065,1.758 -0.061,1.771 0.119,1.708 0.008,1.55 0.261,1.761 0.172,1.261 0.177,1.302 0.169,1.179 0.125,1.171 0.179,1.019 0.12,1.015 0.23,1.216 0.267,0.949 0.267,0.989 0.398,1.111 0.322,0.641 0.112,0.57 0.538,1.126 3.105,-2.91 0.164,1.471 -0.013,0.002 0.516,3.7 2.987,-4.083 -0.635,-1.455 -0.123,-0.603 -0.498,-1.119 -0.189,-0.532 -0.203,-0.771 -0.202,-0.694 -0.122,-0.662 -0.115,-0.979 -0.173,-0.976 -0.11,-1.058 -0.183,-1.285 -0.174,-1.28 -0.18,-1.32 -0.209,-1.29 0.008,-1.266 -0.116,-1.578 0.057,-1.397 0.053,-1.527 0.159,-1.525 0.236,-1.712 0.185,-1.905 0.089,-1.012 0.079,-0.91 0.136,-0.969 0.165,-1.213 0.07,-1.39 0.056,-1.194 0.086,-1.222 0.089,-1.272 0.088,-1.389 0.089,-1.386 0.088,-1.473 0.086,-1.437 0.116,-1.496 0.117,-1.533 0.118,-1.62 0.12,-1.647 0.09,-1.676 0.084,-1.584 0.142,-1.612 0.152,-1.735 0.092,-1.764 0.085,-1.665 0.115,-1.576 0.12,-1.652 0.09,-1.769 0.086,-1.692 0.115,-1.576 0.124,-1.74 0.003,-1.799 -10e-4,-1.603 0.057,-1.428 0.061,-1.599 -0.03,-1.571 -0.03,-1.312 0.081,-1.137 0.096,-1.495 -0.063,-1.407 -0.054,-1.063 0.057,-1.961 -0.176,-1.79 0.056,-1.323 -0.172,-0.942 0.117,-0.782 -0.184,-0.884 -2.495,2.996 -2.699,-1.08 1.257,0.653 2.027,-1.479 z"
       id="path13"
       inkscape:connector-curvature="0"
       style="fill:#000000;stroke:none" />
    <path
       __timestamp="0x14bc21d2e1d"
       __comx="232.228"
       __comy="385.407"
       d="m 241.589,381.63 2.459,0.56 0.416,-3.294 -2.076,-1.234 -0.931,-0.375 -0.72,-0.088 -0.867,-0.343 -0.782,-0.131 -1.302,-0.424 -0.948,-0.117 -1.542,-0.423 -1.269,0.014 -1.425,-0.199 -1.26,0.106 -1.593,-0.121 -1.753,0.273 -1.619,0.249 -1.578,0.36 -1.782,0.339 -1.734,0.611 -1.754,0.426 -1.89,0.732 -1.728,0.706 -1.58,0.788 -1.847,1.034 -1.397,1.284 -1.243,1.062 -1.188,1.246 -1.265,1.343 -1.072,1.461 -1.102,1.501 -0.926,1.597 -0.906,1.356 -0.979,1.572 -0.925,1.779 -0.78,1.691 -0.684,1.736 -0.65,1.655 -0.652,1.709 -0.471,1.73 -0.367,1.47 -0.377,1.636 -0.275,1.532 -0.141,1.58 -0.066,1.463 0.062,1.462 0.059,1.173 0.071,1.463 0.223,1.5 0.319,1.351 0.326,1.381 0.731,1.654 0.59,1.241 0.699,1.258 0.815,1.253 0.885,1.098 0.939,1.134 1.037,1.041 1.081,1.011 1.086,0.869 1.215,0.831 1.457,0.769 1.459,0.586 1.712,0.533 1.607,0.223 1.622,0.254 1.677,0.073 1.595,0.06 1.652,0.001 1.408,0 1.408,0 1.408,0 1.517,-0.007 1.515,-0.191 1.232,-0.117 1.497,-0.196 1.575,-0.291 1.565,-0.471 1.335,-0.424 1.47,-0.491 1.486,-0.534 1.583,-0.549 1.567,-0.626 1.331,-0.556 1.424,-0.492 1.468,-0.508 1.581,-0.488 1.544,-0.594 1.392,-0.443 1.489,-0.497 1.584,-0.596 1.706,-0.786 1.538,-0.93 1.502,-0.945 1.516,-1.35 1.213,-1.278 1.145,-1.335 1.202,-1.503 0.972,-1.699 0.757,-1.574 0.689,-1.443 0.654,-1.619 0.387,-1.519 0.469,-1.409 0.409,-1.631 0.321,-1.662 0.253,-1.522 0.194,-1.556 0.129,-1.608 0.065,-1.489 10e-4,-1.366 -0.011,-1.565 -0.223,-1.474 -0.292,-1.37 -0.408,-1.306 -0.463,-1.353 -0.69,-1.327 -0.601,-1.022 -0.824,-1.456 -1.097,-1.275 -1.006,-1.182 -1.156,-1.286 -1.38,-1.246 -1.333,-1.081 -1.42,-1.095 -1.718,-1.137 -1.801,-0.872 -1.961,-0.766 -2.06,-0.538 -1.034,-0.243 -0.974,-0.229 -1.032,-0.259 -1.257,-0.307 -1.347,-0.179 -1.107,-0.142 -1.136,-0.171 -1.267,-0.188 -1.326,-0.128 -1.398,-0.129 -1.28,-0.004 -0.784,0.016 -1.052,-0.218 -1.822,-0.319 -2.046,0.289 -1.09,0.316 -1.442,0.501 -1.159,0.844 -0.912,0.991 -1.054,0.519 -1.078,0.554 0.002,0.014 1.151,0.378 1.176,0.343 1.2,0.697 0.953,0.551 1.022,0.56 1.373,0.374 1.475,0.055 0.935,0.209 1.706,0.31 1.446,0.016 0.948,-0.004 1.066,0.106 1.139,0.107 1.08,0.163 1.21,0.181 1.181,0.152 0.941,0.114 0.855,0.22 1.08,0.27 1.021,0.241 0.961,0.226 1.577,0.4 1.324,0.525 1.133,0.536 1.098,0.74 1.161,0.9 1.131,0.914 0.968,0.866 0.838,0.944 0.989,1.164 0.663,0.719 0.466,0.891 0.573,0.973 0.366,0.668 0.241,0.759 0.296,0.923 0.177,0.86 0.129,0.755 -0.01,1.017 0,1.214 -0.052,1.21 -0.106,1.326 -0.158,1.26 -0.216,1.294 -0.266,1.389 -0.295,1.184 -0.469,1.408 -0.318,1.297 -0.402,0.962 -0.602,1.256 -0.65,1.359 -0.554,1 -0.792,0.961 -0.967,1.129 -0.899,0.952 -0.831,0.762 -0.963,0.58 -1.16,0.713 -1.111,0.505 -1.231,0.46 -1.327,0.442 -1.542,0.495 -1.507,0.58 -1.469,0.45 -1.583,0.548 -1.626,0.564 -1.485,0.617 -1.367,0.548 -1.468,0.507 -1.447,0.521 -1.346,0.449 -1.247,0.397 -1.133,0.35 -1.006,0.179 -1.203,0.156 -1.232,0.117 -1.183,0.161 -1.064,-0.007 -1.408,0 -1.408,0 -1.408,0 -1.517,10e-4 -1.456,-0.057 -1.256,-0.044 -1.311,-0.216 -1.093,-0.128 -0.869,-0.289 -0.888,-0.353 -0.772,-0.404 -0.662,-0.46 -0.674,-0.539 -0.796,-0.749 -0.723,-0.719 -0.704,-0.86 -0.64,-0.78 -0.476,-0.742 -0.475,-0.854 -0.466,-0.988 -0.442,-0.928 -0.143,-0.731 -0.268,-1.112 -0.129,-0.848 -0.046,-1.118 -0.059,-1.173 -0.055,-1.12 0.051,-1.001 0.094,-1.119 0.194,-1.049 0.327,-1.414 0.337,-1.347 0.351,-1.32 0.521,-1.342 0.641,-1.631 0.606,-1.549 0.629,-1.36 0.718,-1.389 0.78,-1.244 0.972,-1.46 0.834,-1.454 0.892,-1.197 0.806,-1.121 0.964,-1.004 0.924,-0.983 1.104,-0.933 0.832,-0.827 0.97,-0.492 1.235,-0.62 1.44,-0.585 1.395,-0.558 1.649,-0.396 1.552,-0.562 1.386,-0.248 1.473,-0.344 1.431,-0.22 0.946,-0.197 1.34,0.114 1.087,-0.129 1.274,0.153 0.843,-0.103 1.157,0.281 0.929,0 1.279,0.281 0.744,-0.015 1.127,0.244 0.455,-0.087 0.241,0.094 -0.668,-0.882 0.416,-2.239 1.286,1.382 z"
       id="path15"
       inkscape:connector-curvature="0"
       style="fill:#000000;stroke:none" />
    <path
       __timestamp="0x14bc21d3444"
       __comx="230.882"
       __comy="397.562"
       d="m 236.948,393.762 -1.448,-2.547 -0.694,0.25 -0.427,0.192 -0.128,0.007 -1.026,-0.027 -0.368,0.12 -1.033,-0.269 -0.63,0.148 -1.08,-0.307 -1.108,0.213 -0.859,-0.065 -1.1,0.126 -1.131,0.174 -1.142,0.208 -1.222,0.35 -1.034,0.342 -1.152,0.463 -0.801,0.427 -1.074,0.485 -0.793,0.578 -0.994,0.748 -1.396,2.559 0.477,2.956 1.377,1.761 0.489,0.496 0.585,0.647 0.755,0.76 0.846,0.776 1.112,0.89 1.003,0.653 1.142,0.701 1.131,0.635 1.503,0.676 1.281,0.412 1.414,0.465 1.09,0.211 0.88,0.355 0.871,0.268 0.541,0.233 0.629,0.396 0.463,0.239 0.191,0.163 0.461,0.466 0.589,0.526 0.57,0.517 0.595,0.59 0.723,0.596 0.466,0.415 0.511,0.458 0.255,0.239 0.202,0.311 0.075,0.044 -0.053,-0.056 0.031,0.084 -0.003,-0.131 0.024,-0.071 0.071,-0.178 0.112,-0.158 -0.185,0.233 0.296,-0.168 -0.488,0.09 -0.366,0.162 0.049,-0.042 -0.646,-0.052 -0.767,-0.049 -0.65,-0.095 -0.808,-0.129 -0.943,-0.28 -1.199,-0.241 -0.897,-0.251 -1.018,-0.304 -1.309,-0.494 -1.317,-0.335 -1.408,-0.395 -1.441,-0.214 -1.075,-0.169 -1.025,-0.171 -1.168,-0.201 -0.88,-0.059 -1.427,-0.201 -0.495,0.12 -2.836,0.274 -0.432,0.862 1.249,-0.07 0,5.449 3.009,-0.071 -0.197,-0.193 -1.076,0.743 0.796,-0.114 0.567,0.15 0.88,0.059 0.827,0.151 1.087,0.181 1.155,0.183 1.022,0.138 1.057,0.309 1.029,0.252 1.155,0.444 1.329,0.401 1.215,0.335 1.148,0.228 1.052,0.307 1.304,0.223 0.992,0.14 0.994,0.069 0.879,0.065 1.34,-0.043 1.042,-0.307 0.685,-0.145 1.469,-0.637 1.693,-1.527 0.698,-0.979 0.541,-1.234 0.259,-1.362 -0.003,-1.187 -0.205,-1.089 -0.405,-1.23 -0.629,-1.012 -0.619,-0.862 -0.8,-0.818 -0.663,-0.597 -0.59,-0.524 -0.568,-0.46 -0.461,-0.466 -0.721,-0.657 -0.467,-0.413 -0.594,-0.589 -0.983,-0.775 -0.828,-0.466 -0.896,-0.543 -1.336,-0.588 -1.007,-0.318 -1.232,-0.467 -1.256,-0.258 -1.05,-0.356 -0.948,-0.292 -0.844,-0.38 -0.747,-0.421 -0.97,-0.59 -0.64,-0.403 -0.648,-0.518 -0.562,-0.515 -0.535,-0.531 -0.589,-0.644 -0.45,-0.442 -0.265,-0.117 0.125,1.314 -0.457,1.033 0.061,0.045 0.263,-0.244 0.57,-0.219 0.724,-0.394 0.608,-0.241 0.726,-0.245 0.772,-0.237 0.736,-0.143 0.981,-0.179 0.543,-0.109 1.37,-0.065 0.418,-0.256 1.148,0.163 0.779,-0.322 1.196,0.084 0.806,-0.35 0.617,-0.027 1.28,-0.345 0.628,-0.277 0.363,-0.103 -0.276,-2.898 z"
       id="path17"
       inkscape:connector-curvature="0"
       style="fill:#000000;stroke:none" />
    <path
       __timestamp="0x14bc21d3824"
       __comx="225.534"
       __comy="395.165"
       d="m 227.153,387.263 -1.041,1.68 -1.131,-1.307 -0.314,0.517 -0.382,0.814 -0.032,1.24 -0.286,0.865 0.003,1.258 -0.26,1.027 -0.035,1.363 -0.264,1.235 0.033,1.639 -0.242,1.342 -0.009,1.791 -0.235,1.584 -0.005,2.083 -0.173,1.768 -0.052,1.9 -0.278,1.8 -0.126,1.16 -0.11,1.019 -0.137,0.931 -0.16,1.097 -0.099,1.099 -0.087,0.993 -0.18,1.98 -0.116,1.856 -0.175,1.694 -0.125,1.875 -0.061,1.636 -0.055,1.497 -0.11,1.263 -0.108,1.253 -0.182,1.292 -0.061,1.131 -0.114,0.847 -0.064,0.879 -0.067,0.711 -10e-4,0.861 3.05,3.95 3.097,-3.596 -1.543,-1.217 -0.807,-1.056 -0.014,0 -0.807,1.056 -1.543,0.309 2.628,-2.423 2.932,2.66 -0.001,-0.195 0.051,-0.463 0.053,-0.764 0.12,-0.912 0.057,-1.099 0.17,-1.172 0.127,-1.446 0.124,-1.436 0.063,-1.671 0.056,-1.532 0.11,-1.645 0.176,-1.708 0.119,-1.9 0.173,-1.891 0.088,-1.002 0.078,-0.896 0.133,-0.897 0.156,-1.064 0.125,-1.152 0.109,-1.011 0.308,-2.072 0.066,-2.089 0.179,-1.87 -0.006,-1.906 0.235,-1.584 -0.009,-1.729 0.227,-1.474 -0.084,-1.53 0.205,-1.111 -0.035,-1.336 0.209,-1.202 -0.113,-1.089 0.183,-0.895 -0.15,-0.872 0.088,-0.359 -0.08,-1.713 -1.131,-2.362 -2.331,1.679 z"
       id="path19"
       inkscape:connector-curvature="0"
       style="fill:#000000;stroke:none" />
    <path
       __timestamp="0x14bc21d4afc"
       __comx="294.171"
       __comy="267.331"
       d="m 245.229,347.831 1.578,0.815 -0.699,0.729 0.302,0.281 1.595,0.643 1.051,-0.242 1.286,-0.467 0.782,-0.979 0.544,-0.196 0.824,-0.969 1.005,-0.77 0.811,-1.124 0.968,-0.974 0.904,-1.36 1.033,-1.373 0.846,-1.606 0.881,-1.409 0.923,-1.776 0.814,-1.753 0.742,-1.714 0.903,-1.831 0.582,-1.907 0.671,-1.72 0.542,-2.139 0.389,-1.761 0.243,-1.692 0.302,-1.579 0.192,-1.698 0.181,-1.456 0.119,-1.425 0.175,-1.519 0.11,-1.283 0.207,-1.334 0.293,-1.467 0.241,-1.561 0.296,-1.661 0.24,-1.674 0.249,-1.575 0.13,-1.591 0.126,-1.489 -0.001,-1.617 -0.123,-1.27 -0.063,-1.099 -0.142,-1.146 -0.181,-1.028 -0.106,-0.748 -0.115,-0.864 -0.12,-0.896 -0.119,-0.838 -0.102,-0.699 -0.059,-0.821 -0.133,-0.944 -0.101,-0.69 -0.07,-0.977 -0.196,-1.01 -0.117,-0.822 -0.199,-0.999 -0.186,-0.871 -0.182,-0.79 -0.127,-0.505 -0.059,-0.762 -0.232,-1.052 -0.184,-0.735 -0.176,-0.704 -0.145,-0.568 -0.147,-0.835 -0.311,-0.967 -0.261,-0.779 -0.293,-0.762 -0.196,-0.591 -0.339,-1.045 -0.402,-0.743 -0.182,-0.682 -0.273,-0.87 -0.208,-0.841 -0.259,-1.029 -0.235,-0.762 -0.246,-0.978 -0.223,-0.595 -0.039,-0.657 -0.296,-1.168 -0.193,-0.768 -0.261,-0.852 -0.235,-0.763 -0.2,-0.642 -0.186,-0.802 -0.271,-0.824 -0.196,-0.634 -0.095,-0.337 -0.025,-0.436 -0.058,-0.634 -0.049,-0.604 0.001,-0.445 0.05,-0.676 0.056,-0.671 0.04,-0.477 0.097,-0.516 0.112,-0.674 0.066,-0.351 0.168,-0.547 0.18,-0.385 0.308,-0.518 0.141,-0.183 0.516,-0.455 0.592,-0.653 0.357,-0.365 0.629,-0.475 0.686,-0.561 0.568,-0.466 0.701,-0.514 0.359,-0.341 -0.088,0.056 0.384,-0.117 0.528,-0.234 0.308,-0.108 0.605,-0.107 0.9,-0.271 0.766,-0.204 1.153,-0.278 1.29,-0.468 1.143,-0.4 1.435,-0.501 1.42,-0.579 1.587,-0.7 1.393,-0.697 1.69,-0.726 1.639,-0.879 1.698,-0.878 1.713,-0.918 1.616,-0.933 1.568,-0.964 1.566,-0.964 1.552,-1.014 1.448,-0.927 1.399,-0.893 1.204,-0.902 1.312,-0.879 1.08,-0.913 1.059,-0.665 1.144,-0.885 0.991,-0.715 0.961,-0.678 1.093,-0.748 1.257,-0.865 1.083,-0.915 1.231,-0.796 1.422,-1.007 1.437,-0.959 1.35,-0.997 1.351,-0.9 1.495,-1.017 1.351,-0.94 1.387,-0.948 1.224,-0.977 1.156,-0.853 1.218,-1.034 1.187,-0.941 1.23,-1.16 1.09,-1.03 1.19,-1.193 1.159,-1.362 1.024,-1.367 0.865,-1.356 0.899,-1.32 0.894,-1.467 0.776,-1.359 0.616,-1.237 0.695,-1.116 0.735,-1.226 0.609,-1.079 0.569,-0.747 0.739,-0.966 0.543,-0.696 0.564,-0.608 0.581,-0.582 0.236,-0.223 0.376,-0.226 0.361,-0.224 -0.055,0.004 -0.071,0.024 0.476,0.011 0.704,-0.058 0.625,0 0.821,-0.058 0.327,-0.003 0.528,0.058 0.374,-0.006 -0.907,-0.432 -1.068,-1.304 -0.12,0.046 0.002,0.403 -0.04,0.456 -0.092,0.645 -0.138,0.74 -0.202,0.786 -0.4,0.983 -0.483,1.241 -0.614,1.275 -0.749,1.391 -0.846,1.429 -1.012,1.49 -0.895,1.574 -1.068,1.426 -0.922,1.651 -0.813,1.186 -0.868,1.332 -0.857,1.228 -0.836,1.394 -0.739,1.474 -0.543,1.204 -0.54,1.134 -0.515,0.98 -0.531,0.9 -0.579,0.952 -0.581,0.842 -0.464,0.69 -0.449,0.39 -0.594,0.505 -0.881,0.634 -0.979,0.896 -0.513,0.525 -0.555,0.405 -0.853,0.698 -0.69,0.757 -0.762,0.88 -0.89,4.552 4.727,1.512 0.713,-0.297 0.472,-0.136 0.568,-0.21 0.781,-0.2 0.595,-0.259 0.76,-0.154 0.98,-0.457 0.768,-0.29 0.766,-0.444 0.627,-0.316 0.699,-0.441 0.645,-0.353 0.811,-0.514 0.617,-0.431 0.426,-0.285 0.668,-0.405 0.514,-0.382 0.838,-0.541 0.706,-0.547 0.898,-0.522 0.39,-0.27 0.578,-0.268 0.647,-0.209 0.371,-0.134 0.127,0.004 0.06,-0.031 -0.198,-0.071 0.021,0.072 0.425,0.305 0.382,0.472 0.457,0.588 0.078,0.181 0.141,0.357 0.188,0.568 0.235,0.763 0.154,0.41 0.058,0.598 0.097,0.722 -0.007,0.839 0.006,0.804 -0.092,0.783 -0.149,0.947 -0.204,0.963 -0.189,0.812 -0.472,1.023 -0.383,1.107 -0.425,0.84 -0.578,0.94 -0.725,1.209 -0.499,0.888 -0.714,0.836 -0.736,0.906 -0.742,0.849 -0.693,0.745 -0.621,0.57 -0.873,0.752 -0.809,0.806 -0.656,0.606 -0.905,0.778 -0.77,0.888 -0.732,0.618 -0.813,0.81 -0.821,0.763 -0.613,0.626 -0.654,0.467 -0.704,0.506 -0.481,0.3 -0.516,0.232 -0.62,0.258 -0.698,0.282 -0.529,0.262 -0.374,0.167 -0.905,0.356 -2.434,4.342 4.7,2.608 1.16,-0.203 0.873,-0.263 0.824,-0.205 1.042,-0.246 1.158,-0.321 1.208,-0.362 1.224,-0.368 0.999,-0.334 1.029,-0.269 1.132,-0.315 0.838,-0.266 0.899,-0.197 0.622,-0.228 0.204,-0.033 0.493,-0.062 0.177,-0.128 -0.768,-0.176 -0.918,-0.897 -0.337,-0.567 0.153,0.755 0.079,0.595 0.023,0.267 -0.086,0.232 -0.128,0.353 -0.126,0.157 -0.588,0.828 -0.284,0.595 -0.447,0.492 -0.626,0.812 -0.581,0.742 -0.666,0.767 -0.778,0.832 -0.691,0.749 -0.75,0.643 -0.886,0.776 -0.821,0.656 -0.868,0.694 -0.867,0.683 -0.86,0.736 -0.647,0.539 -0.831,0.654 -0.869,0.735 -0.762,0.704 -0.763,0.645 -0.653,0.612 -0.771,0.546 -0.87,0.743 -0.571,0.441 -0.67,0.428 -0.869,0.538 -0.627,0.478 -0.755,0.425 -0.728,0.609 -1.773,4.076 3.72,2.727 0.942,0.011 1.071,-0.104 0.938,-0.224 0.853,-0.199 0.951,-0.291 0.952,-0.337 1.108,-0.311 1.21,-0.465 1.277,-0.487 1.046,-0.443 1.299,-0.437 0.972,-0.459 0.888,-0.272 1.001,-0.314 0.59,-0.225 0.455,-0.062 0.417,-0.09 -0.193,-0.083 -1.324,-0.726 -0.611,-0.887 0.031,0.547 0.089,0.371 -0.017,0.3 0.012,0.876 0.11,0.238 -0.1,0.073 -0.146,0.852 -0.033,0.279 -0.064,0.12 -0.259,0.514 -0.224,0.508 -0.327,0.519 -0.523,0.79 -0.394,0.736 -0.394,0.56 -0.719,0.987 -0.468,0.828 -0.63,0.646 -0.957,1.128 -0.958,0.954 -1.116,1.118 -1.375,1.257 -0.785,0.815 -0.652,0.68 -1.222,1.17 -0.717,0.608 -0.844,0.721 -0.815,0.75 -0.732,0.676 -1.385,1.22 -0.741,0.603 -0.78,0.635 -1.379,1.105 -0.744,0.531 -0.714,0.512 -1.429,0.868 -1.643,0.847 -1.451,0.813 -1.538,0.63 -1.624,0.696 -1.415,0.566 -1.298,0.508 -1.206,0.439 -0.927,0.309 -0.953,0.264 -0.63,0.177 -0.487,0.059 -0.62,-0.004 -0.531,0.057 -0.48,-0.083 -0.869,-0.131 -0.943,-0.07 -0.828,-0.066 -0.907,10e-4 -0.711,0.067 -1.448,0.171 -1.118,0.494 -0.263,0.085 -1.02,0.216 -0.87,0.368 -0.86,0.209 -1.645,0.9 -1.337,1.677 -0.417,0.962 -0.326,0.76 -0.242,0.544 -0.287,0.691 -0.328,0.729 -0.382,1.065 -0.283,0.986 -0.273,1.097 -0.197,1.041 -0.176,0.938 -0.168,0.895 -0.129,0.621 -0.175,0.57 -0.17,0.367 -0.266,0.43 -0.48,0.615 -0.442,0.588 -0.657,0.647 -0.655,0.712 -0.808,0.75 -0.841,0.973 -0.666,0.777 -0.652,0.713 -0.732,0.864 -0.72,0.917 -0.743,1.014 -0.478,0.75 -0.673,0.821 -0.672,0.875 -0.681,0.989 -0.444,0.632 -0.577,0.633 -0.552,0.752 -0.34,0.436 -0.587,0.704 -0.354,0.46 -0.704,0.763 -0.233,0.333 -0.556,0.439 0.647,-0.121 2.995,0.782 -2.047,0.807 -1.201,0.046 -1.929,3.858 4.754,1.017 1.703,-1.412 0.618,-0.5 0.588,-0.722 0.704,-0.763 0.467,-0.596 0.587,-0.704 0.482,-0.62 0.386,-0.539 0.596,-0.657 0.73,-1.011 0.609,-0.888 0.502,-0.651 0.852,-1.057 0.578,-0.892 0.548,-0.746 0.57,-0.725 0.56,-0.662 0.637,-0.695 0.743,-0.866 0.566,-0.67 0.718,-0.658 0.753,-0.813 0.869,-0.878 0.731,-0.938 0.694,-0.91 0.672,-1.096 0.534,-1.158 0.412,-1.307 0.222,-1.022 0.185,-0.983 0.176,-0.938 0.155,-0.837 0.196,-0.78 0.187,-0.657 0.205,-0.577 0.258,-0.562 0.299,-0.718 0.228,-0.512 0.377,-0.882 0.053,-0.211 -0.281,0.268 -0.471,0.313 0.665,-0.142 0.772,-0.337 0.741,-0.135 1.145,-0.384 0.289,-0.21 0.196,0.053 0.462,-0.05 0.267,10e-4 0.579,0.051 0.7,0.047 0.657,0.104 1.28,0.152 0.994,-0.06 0.787,-0.005 1.391,-0.175 1.13,-0.293 1.159,-0.323 1.185,-0.394 1.375,-0.5 1.401,-0.548 1.519,-0.608 1.662,-0.712 1.864,-0.777 1.717,-0.948 1.76,-0.912 1.856,-1.128 0.929,-0.66 0.898,-0.643 1.555,-1.242 0.804,-0.655 0.843,-0.688 1.548,-1.362 0.793,-0.732 0.711,-0.657 0.74,-0.629 0.867,-0.741 1.477,-1.412 0.756,-0.786 0.623,-0.652 1.324,-1.207 1.23,-1.229 1.154,-1.158 1.038,-1.218 1.012,-1.114 0.706,-1.167 0.572,-0.773 0.662,-0.966 0.427,-0.789 0.416,-0.618 0.612,-1.006 0.363,-0.783 0.327,-0.66 0.405,-1.053 0.202,-1.012 0.088,-0.556 0.253,-1.217 -0.125,-1.17 0.012,-0.298 -0.017,-0.99 -0.146,-0.802 -0.204,-1.331 -1.197,-2.178 -2.38,-1.196 -1.953,0.036 -0.757,0.144 -0.953,0.172 -1.052,0.362 -0.877,0.273 -1.34,0.432 -1.024,0.48 -1.164,0.384 -1.184,0.496 -1.187,0.452 -0.903,0.356 -1.003,0.276 -1.043,0.367 -0.574,0.178 -0.672,0.153 -0.471,0.128 -0.219,0.013 0.003,0.011 2.429,2.492 -0.482,3.02 0.211,-0.212 0.536,-0.279 0.78,-0.578 0.657,-0.4 0.973,-0.629 0.954,-0.732 0.773,-0.665 0.872,-0.627 0.872,-0.797 0.762,-0.645 0.763,-0.704 0.657,-0.556 0.811,-0.637 0.761,-0.634 0.783,-0.672 0.775,-0.608 0.892,-0.713 0.94,-0.753 0.991,-0.866 1.01,-0.882 0.952,-1.012 0.865,-0.928 0.859,-0.993 0.71,-0.901 0.547,-0.713 0.843,-1.033 0.421,-0.813 0.351,-0.463 0.577,-0.899 0.576,-1.407 0.384,-1.528 0.023,-1.611 -0.156,-1.282 -0.199,-1.005 -0.572,-1.741 -1.973,-1.717 -2.177,-0.529 -1.465,0.225 -0.446,0.055 -0.97,0.201 -0.668,0.242 -0.744,0.154 -1.04,0.322 -0.979,0.271 -1.2,0.318 -1.113,0.37 -1.123,0.336 -1.139,0.342 -0.954,0.265 -0.953,0.224 -1.053,0.264 -0.652,0.206 -0.131,0.032 2.705,2.608 -1.378,3.756 0.62,-0.231 0.683,-0.303 0.409,-0.207 0.476,-0.187 0.787,-0.329 1.01,-0.472 1.045,-0.638 0.938,-0.668 1.106,-0.824 0.913,-0.899 0.821,-0.762 0.712,-0.715 0.912,-0.791 0.754,-0.872 0.621,-0.512 0.87,-0.803 0.715,-0.718 0.77,-0.657 0.904,-0.838 0.95,-1.015 0.901,-1.029 0.789,-0.971 1.047,-1.276 0.791,-1.341 0.683,-1.138 0.713,-1.172 0.749,-1.507 0.437,-1.239 0.585,-1.324 0.397,-1.535 0.266,-1.266 0.203,-1.282 0.143,-1.329 0.005,-1.191 -0.007,-1.274 -0.137,-1.155 -0.177,-1.279 -0.315,-0.998 -0.235,-0.762 -0.281,-0.84 -0.328,-0.817 -0.509,-0.993 -0.951,-1.288 -1.026,-1.171 -1.1,-0.869 -1.153,-0.749 -1.841,-0.541 -1.348,-0.03 -1.163,0.121 -1.154,0.336 -1.113,0.377 -1.417,0.67 -0.666,0.435 -1.097,0.651 -0.82,0.626 -0.804,0.516 -0.424,0.321 -0.506,0.299 -0.631,0.42 -0.555,0.39 -0.481,0.307 -0.645,0.352 -0.591,0.379 -0.547,0.271 -0.407,0.26 -0.523,0.18 -0.428,0.246 -0.531,0.082 -0.812,0.327 -0.628,0.152 -0.723,0.259 -0.701,0.216 -0.343,0.172 3.437,1.747 0.049,3.496 0.762,-0.88 0.249,-0.299 0.32,-0.24 0.854,-0.651 0.777,-0.766 0.546,-0.512 0.763,-0.54 0.931,-0.785 1.076,-1.019 0.944,-1.304 0.71,-1.035 0.711,-1.161 0.643,-1.094 0.658,-1.25 0.633,-1.329 0.514,-1.143 0.552,-1.108 0.572,-0.952 0.785,-1.119 0.892,-1.367 0.947,-1.395 0.838,-1.517 1.044,-1.391 0.983,-1.711 0.982,-1.443 1.032,-1.739 0.893,-1.66 0.795,-1.658 0.573,-1.458 0.538,-1.364 0.384,-1.443 0.215,-1.137 0.142,-0.999 0.078,-0.951 0.002,-0.888 -0.237,-2.066 -1.772,-2.36 -2.316,-0.666 -0.565,-0.007 -0.528,-0.059 -0.963,-0.003 -0.822,0.059 -0.666,0.001 -0.704,0.058 -0.814,0.011 -1.362,0.259 -1.111,0.474 -0.813,0.48 -0.914,0.595 -0.82,0.716 -0.827,0.825 -0.844,0.918 -0.748,0.947 -0.786,1.029 -0.839,1.129 -0.799,1.386 -0.673,1.12 -0.83,1.348 -0.675,1.345 -0.633,1.105 -0.748,1.232 -0.861,1.261 -0.777,1.225 -0.737,0.98 -0.835,0.985 -0.923,0.919 -1.021,0.965 -1,0.952 -1.043,0.819 -1.128,0.961 -1.073,0.789 -1.123,0.9 -1.195,0.812 -1.348,0.938 -1.438,0.978 -1.464,0.977 -1.35,0.998 -1.379,0.918 -1.393,0.988 -1.469,0.964 -1.145,0.962 -0.973,0.661 -1.136,0.777 -1.034,0.73 -1.121,0.81 -0.968,0.758 -1.17,0.743 -1.15,0.965 -1.152,0.763 -1.143,0.859 -1.182,0.749 -1.485,0.95 -1.5,0.981 -1.484,0.913 -1.483,0.913 -1.435,0.828 -1.572,0.842 -1.705,0.882 -1.412,0.764 -1.594,0.681 -1.424,0.711 -1.346,0.592 -1.161,0.476 -1.265,0.438 -1.203,0.422 -0.939,0.353 -0.842,0.191 -0.994,0.266 -0.626,0.198 -0.685,0.127 -1.101,0.362 -0.528,0.235 -0.671,0.235 -1.144,0.643 -0.698,0.597 -0.589,0.425 -0.723,0.59 -0.605,0.495 -0.896,0.699 -0.817,0.808 -0.463,0.52 -0.658,0.601 -0.797,0.991 -0.749,1.242 -0.524,1.141 -0.418,1.33 -0.169,0.822 -0.123,0.734 -0.137,0.774 -0.077,0.814 -0.062,0.738 -0.067,0.966 0.001,0.963 0.068,0.921 0.06,0.657 0.092,0.972 0.257,1.072 0.274,0.891 0.198,0.584 0.165,0.723 0.27,0.883 0.234,0.763 0.209,0.673 0.159,0.64 0.173,0.592 0.078,0.868 0.364,1.166 0.223,0.899 0.235,0.763 0.211,0.848 0.26,1.037 0.314,1.008 0.405,1.312 0.419,0.783 0.131,0.48 0.273,0.817 0.293,0.763 0.209,0.629 0.158,0.441 0.088,0.573 0.207,0.84 0.176,0.704 0.168,0.673 0.12,0.474 0.058,0.763 0.226,1.02 0.17,0.736 0.165,0.771 0.153,0.761 0.118,0.822 0.156,0.749 0.047,0.784 0.134,0.952 0.102,0.699 0.058,0.821 0.133,0.944 0.115,0.805 0.115,0.864 0.12,0.896 0.128,0.895 0.171,0.967 0.093,0.731 0.055,1.013 0.111,1.077 -10e-4,0.964 -0.109,1.21 -0.104,1.342 -0.22,1.359 -0.23,1.611 -0.29,1.624 -0.229,1.49 -0.293,1.467 -0.263,1.717 -0.125,1.415 -0.177,1.531 -0.115,1.392 -0.171,1.36 -0.161,1.47 -0.284,1.472 -0.226,1.593 -0.316,1.407 -0.396,1.615 -0.62,1.566 -0.473,1.613 -0.74,1.454 -0.784,1.806 -0.711,1.533 -0.72,1.393 -0.879,1.406 -0.679,1.328 -0.845,1.091 -0.621,0.986 -0.91,0.904 -0.479,0.753 -0.873,0.639 -0.349,0.556 -0.863,0.508 -0.04,0.428 0.113,-0.232 -0.006,0.463 0.187,0.525 -0.871,0.281 -2.107,0.964 1.578,1.87 z"
       id="path21"
       inkscape:connector-curvature="0"
       style="fill:#000000;stroke:none" />
    <path
       __timestamp="0x14bc21d5fba"
       __comx="162.794"
       __comy="269.174"
       d="m 217.828,352.05 1.556,-2.773 -0.496,-1.04 -1.371,-1.004 -0.567,-0.378 -0.959,-0.636 -0.566,-0.435 -1.031,-0.926 -0.806,-0.698 -0.936,-1.033 -0.874,-1.152 -1.111,-1.362 -0.816,-1.394 -0.571,-0.931 -0.539,-0.88 -0.923,-1.571 -0.415,-0.835 -0.46,-0.92 -0.46,-0.949 -0.432,-0.888 -0.375,-0.888 -0.438,-1.03 -0.498,-1.058 -0.433,-0.919 -0.377,-0.918 -0.394,-0.957 -0.365,-0.955 -0.37,-0.967 -0.37,-1.026 -0.372,-1.029 -0.343,-1 -0.357,-1.041 -0.357,-1.012 -0.301,-0.841 -0.22,-0.897 -0.307,-1.213 -0.432,-1.24 -0.328,-0.92 -0.218,-0.917 -0.262,-1.075 -0.261,-1.105 -0.261,-1.101 -0.232,-1.013 -0.221,-0.963 -0.192,-1.02 -0.2,-1.056 -0.171,-0.997 -0.16,-0.924 -0.104,-0.954 -0.104,-0.913 -0.023,-0.883 -0.029,-1.031 -0.059,-1.882 -0.057,-1.765 0.057,-1.645 0.056,-1.639 0.117,-1.699 0.061,-1.696 0.055,-1.459 0.118,-1.581 0.058,-1.462 0.117,-1.525 0.048,-1.324 0.227,-1.403 0.125,-1.593 0.177,-1.477 0.124,-1.722 0.11,-1.5 0.16,-1.33 0.233,-1.507 0.19,-1.464 0.093,-1.169 0.263,-1.072 0.2,-1.14 0.282,-0.818 0.352,-1.056 0.362,-1.088 0.189,-0.656 0.337,-0.6 0.402,-0.928 0.25,-0.552 0.193,-0.392 0.358,-0.576 0.549,-0.879 -0.02,-3.952 -3.845,-1.653 0.832,0.3 1.725,1.32 0.145,0.204 -0.156,-0.895 -0.182,-0.612 -0.245,-1.062 -0.529,-0.98 -0.381,-0.803 -0.963,-1.289 -0.965,-0.87 -1.077,-0.729 -0.342,-0.218 -0.499,-0.434 -0.708,-0.456 -0.357,-0.291 -0.629,-0.563 -0.687,-0.514 -0.819,-0.749 -1.106,-0.771 -1.077,-0.777 -1.227,-0.819 -1.328,-0.964 -1.678,-1.059 -0.877,-0.555 -0.812,-0.513 -0.813,-0.571 -0.913,-0.638 -1.001,-0.668 -0.968,-0.645 -0.968,-0.646 -0.929,-0.619 -0.959,-0.677 -0.97,-0.684 -0.97,-0.714 -0.984,-0.723 -0.925,-0.694 -0.89,-0.667 -0.861,-0.695 -0.869,-0.7 -0.781,-0.671 -0.801,-0.686 -0.742,-0.656 -0.763,-0.675 -0.763,-0.675 -0.759,-0.672 -0.789,-0.701 -0.861,-0.763 -1.555,-1.246 -0.811,-0.631 -0.883,-0.684 -1.725,-1.173 -0.839,-0.579 -0.908,-0.625 -0.937,-0.595 -0.825,-0.521 -0.884,-0.609 -0.939,-0.645 -0.938,-0.645 -0.949,-0.652 -0.919,-0.623 -0.848,-0.573 -0.848,-0.631 -0.808,-0.597 -0.753,-0.651 -0.85,-0.733 -0.851,-0.734 -0.704,-0.599 -0.564,-0.62 -0.708,-0.766 -0.766,-0.826 -0.734,-0.79 -0.647,-0.731 -0.645,-0.729 -1.276,-1.516 -1.192,-1.246 -1,-1.282 -1.169,-1.356 -1.2,-1.386 -1.109,-1.112 -0.998,-1.056 -0.956,-0.955 -0.961,-1.081 -0.974,-0.855 -0.739,-0.798 -0.746,-0.747 -0.476,-0.464 -0.659,-0.846 -0.69,-0.572 -0.249,-0.298 -0.832,-0.957 -0.958,-0.96 -0.65,-0.591 -0.832,-0.939 -1.935,-1.139 -2.196,-0.209 -1.693,0.586 -1.04,0.647 -1.124,0.869 -1.194,1.469 -0.587,1.403 -0.211,0.694 -0.26,0.836 -0.344,0.935 -0.503,1.195 -0.261,1.293 -0.014,1.031 0.152,1.304 0.523,1.366 0.61,0.985 0.658,0.945 0.737,0.889 0.662,0.722 0.755,0.878 0.565,0.545 0.539,0.821 0.595,0.637 0.348,0.615 0.501,0.79 0.486,1.035 0.538,0.959 0.409,1.039 0.499,1.102 0.374,1.078 0.49,1.288 0.348,0.88 0.259,1.001 0.287,0.918 0.255,1.006 0.31,0.877 0.224,0.786 0.292,0.873 0.177,0.416 0.179,0.709 0.606,1.201 0.432,0.977 0.524,1.11 0.594,1.108 0.526,0.796 0.81,1.21 5.758,0.391 -1.112,-5.671 -1.456,-0.707 -0.751,-0.432 -0.945,-0.474 -1.255,-0.582 -0.9,-0.278 -1.15,-0.564 -1.41,-0.371 -1.469,-0.471 -1.76,-0.196 -1.449,0.062 -1.21,0.065 -1.47,0.164 -1.598,0.418 -1.133,0.459 -1.194,0.434 -1.323,0.732 -0.991,0.658 -0.927,0.619 -1.037,0.748 -0.98,0.894 -0.485,0.547 -0.664,0.544 -0.986,1.331 -0.486,1.061 -0.33,1.138 -0.119,1.152 0.007,1.012 0.151,1.05 0.14,0.831 0.35,1.357 0.697,1.296 0.49,0.833 0.745,1.067 1.015,1.1 1.069,0.837 1.105,0.76 1.202,0.711 1.011,0.418 0.809,0.486 1.003,0.564 0.765,0.403 0.582,0.387 0.5,0.423 0.646,0.586 0.704,0.587 0.672,0.609 0.524,0.415 0.546,0.544 0.688,0.544 0.892,0.699 0.169,0.046 -0.367,-3.286 2.138,-1.987 -0.852,0.062 -0.748,0.143 -0.786,0.134 -1.109,0.286 -0.917,0.385 -1.034,0.331 -1.119,0.547 -0.838,0.448 -0.926,0.434 -0.997,0.567 -0.811,0.498 -0.785,0.484 -0.798,0.511 -1.063,0.823 -0.81,0.801 -0.738,0.815 -0.784,1.022 -0.747,1.241 -0.504,1.37 -0.395,1.192 -0.398,1.579 -0.099,1.621 0.007,1.557 0.182,1.37 0.065,1.354 0.32,1.825 0.513,1.565 0.503,1.286 0.799,1.579 0.976,1.335 1.167,1.177 1.069,0.897 1.216,0.769 1.121,0.629 1.449,0.663 1.055,0.255 0.773,0.335 0.783,0.2 0.589,0.312 0.542,0.207 0.52,0.415 0.643,0.369 0.504,0.424 0.509,0.359 0.335,0.348 0.749,0.673 0.625,0.489 0.553,0.43 0.682,0.502 1.124,0.641 0.896,0.51 0.979,0.49 0.528,0.235 4.979,-0.91 -1.586,-5.408 -1.42,-0.625 -0.81,-0.315 -1.068,-0.273 -0.842,-0.143 -0.598,-0.098 -0.784,-0.18 -0.869,-0.136 -0.722,-0.12 -1.109,-0.15 -0.893,-0.009 -1.283,0.039 -1.218,0.335 -1.12,0.352 -1.401,0.89 -0.961,0.865 -0.96,1.164 -0.513,0.907 -0.683,1.277 -0.349,1.438 -0.165,1.129 0.016,1.34 0.303,1.3 0.341,0.945 0.494,1.057 0.898,1.246 0.875,0.744 0.788,0.686 1.102,0.662 1.178,0.579 1.381,0.438 1.099,0.225 1.067,0.188 1.245,0.195 1.263,0.128 1.123,0.118 1.168,0.111 1.125,0.161 1.001,0.157 1.009,0.214 0.71,0.141 0.503,0.235 0.752,0.397 0.624,0.404 0.751,0.538 0.804,0.574 0.83,0.608 0.868,0.663 1.26,0.785 0.952,0.444 0.742,0.505 1.185,0.696 1.015,0.506 1.008,0.624 1.168,0.527 0.964,0.511 0.947,0.444 0.864,0.491 1.026,0.453 0.932,0.46 1.018,0.37 0.72,0.256 0.627,0.269 0.704,0.352 0.72,0.303 0.613,0.363 0.73,0.359 0.572,0.389 0.904,0.555 0.798,0.431 0.704,0.411 0.807,0.435 0.645,0.352 1.042,0.546 0.753,0.256 0.478,0.249 0.645,0.321 1.108,0.475 0.623,0.11 0.801,0.401 0.799,0.248 0.659,0.281 0.591,0.137 -0.229,-0.138 -0.388,-0.375 -0.042,0.084 0.38,0.762 0.376,0.75 0.208,0.469 0.277,0.608 0.271,0.653 0.284,0.681 0.33,0.799 0.477,0.834 0.304,0.605 0.591,0.964 0.546,0.643 0.64,0.815 0.859,0.992 0.827,0.886 0.273,0.307 0.469,0.645 0.328,0.362 0.411,0.681 0.387,0.494 0.363,0.63 0.468,0.674 0.215,0.311 0.252,0.514 0.419,0.703 0.352,0.587 0.877,1.433 0.614,0.724 0.324,0.351 0.383,0.587 0.63,0.842 0.374,0.433 0.287,0.563 0.469,0.763 0.391,0.727 0.41,0.704 0.333,0.615 0.379,0.816 0.346,0.572 0.213,0.6 0.44,0.826 0.427,0.84 0.554,0.837 0.439,0.545 0.164,0.273 0.405,0.67 0.806,1.146 0.723,0.964 0.707,0.962 0.776,0.918 0.782,0.843 0.752,0.86 0.961,1.152 0.707,0.647 0.873,0.875 0.973,0.964 1.271,0.984 1.104,0.571 0.774,0.329 0.779,0.418 0.631,0.258 0.292,0.185 0.634,0.424 0.671,0.447 5.352,-0.366 -1.813,-4.005 -1.698,0.171 -0.905,0.509 -0.643,2.048 -0.522,-2.949 4.178,-1.188 -0.737,-0.491 -0.774,-0.515 -0.88,-0.519 -0.777,-0.329 -0.747,-0.403 -0.869,-0.374 -0.304,-0.134 -0.372,-0.307 -0.669,-0.678 -1.004,-1.003 -0.467,-0.409 -0.682,-0.842 -0.89,-1.017 -0.743,-0.8 -0.516,-0.607 -0.583,-0.799 -0.685,-0.913 -0.602,-0.849 -0.299,-0.504 -0.423,-0.665 -0.5,-0.628 -0.15,-0.219 -0.277,-0.569 -0.264,-0.464 -0.256,-0.691 -0.475,-0.835 -0.325,-0.71 -0.489,-0.91 -0.411,-0.704 -0.431,-0.799 -0.469,-0.763 -0.535,-0.962 -0.681,-0.857 -0.426,-0.567 -0.556,-0.821 -0.615,-0.704 -0.207,-0.215 -0.531,-0.914 -0.352,-0.586 -0.286,-0.47 -0.334,-0.66 -0.489,-0.745 -0.353,-0.5 -0.459,-0.777 -0.434,-0.562 -0.528,-0.845 -0.493,-0.577 -0.469,-0.645 -0.549,-0.632 -0.816,-0.874 -0.666,-0.767 -0.65,-0.828 -0.276,-0.296 -0.113,-0.21 -0.283,-0.568 -0.344,-0.574 -0.139,-0.374 -0.303,-0.727 -0.316,-0.756 -0.309,-0.682 -0.262,-0.587 -0.446,-0.893 -0.323,-0.646 -0.629,-1.207 -1.561,-1.431 -1.403,-0.607 -0.465,-0.097 -0.396,-0.189 -0.728,-0.221 -1.193,-0.538 -0.667,-0.125 -0.184,-0.112 -0.528,-0.264 -0.93,-0.456 -0.655,-0.214 -0.483,-0.274 -0.646,-0.352 -0.718,-0.387 -0.704,-0.411 -0.727,-0.39 -0.622,-0.384 -0.836,-0.549 -0.913,-0.462 -0.795,-0.458 -0.923,-0.402 -0.704,-0.352 -1.015,-0.435 -0.923,-0.331 -0.625,-0.216 -0.71,-0.361 -0.851,-0.369 -0.779,-0.447 -1.048,-0.495 -1.031,-0.545 -0.944,-0.412 -0.869,-0.549 -1.097,-0.551 -0.81,-0.476 -1.018,-0.669 -1.042,-0.495 -0.618,-0.388 -0.657,-0.511 -0.93,-0.682 -0.839,-0.599 -0.892,-0.636 -1.019,-0.652 -1.242,-0.659 -1.374,-0.586 -1.402,-0.328 -1.221,-0.256 -1.228,-0.195 -1.339,-0.19 -1.297,-0.125 -1.106,-0.116 -1.084,-0.107 -0.984,-0.157 -0.927,-0.164 -0.661,-0.127 -0.497,-0.148 -0.465,-0.243 -0.306,-0.16 -0.385,-0.369 -0.298,-0.195 0.076,0.072 -0.093,-0.233 -0.128,-0.346 -0.049,-0.108 0.016,0.049 0.07,-0.396 0.003,-0.205 0.256,-0.365 0.19,-0.384 0.214,-0.244 0.212,-0.191 0.007,-0.048 0.171,0 0.308,-0.135 0.242,0.038 0.397,-0.008 0.534,0.085 0.686,0.114 0.656,0.099 0.741,0.171 0.811,0.137 0.566,0.092 0.34,0.079 0.364,0.154 0.34,0.08 -0.531,-4.47 3.806,-1.496 -0.528,-0.235 -0.664,-0.331 -0.747,-0.429 -0.752,-0.414 -0.257,-0.202 -0.504,-0.392 -0.43,-0.332 -0.424,-0.383 -0.605,-0.591 -0.781,-0.58 -0.787,-0.632 -0.766,-0.452 -0.887,-0.642 -1.1,-0.497 -1.054,-0.508 -0.977,-0.27 -0.87,-0.369 -0.94,-0.215 -0.545,-0.275 -0.757,-0.427 -0.661,-0.404 -0.456,-0.394 -0.594,-0.583 -0.315,-0.425 -0.374,-0.768 -0.318,-0.826 -0.309,-0.899 -0.149,-0.874 -0.052,-1.227 -0.17,-1.211 0.007,-0.908 0.018,-0.725 0.189,-0.651 0.308,-0.919 0.2,-0.626 0.193,-0.284 0.389,-0.503 0.436,-0.476 0.363,-0.372 0.461,-0.35 0.494,-0.311 0.74,-0.455 0.714,-0.44 0.646,-0.372 0.834,-0.387 0.922,-0.491 0.524,-0.274 0.843,-0.256 0.726,-0.319 0.299,-0.066 0.622,-0.101 0.425,-0.092 0.791,-0.054 3.429,-2.223 -1.071,-4.342 -1.004,-0.775 -0.752,-0.592 -0.367,-0.277 -0.51,-0.512 -0.649,-0.524 -0.619,-0.564 -0.704,-0.587 -0.646,-0.586 -0.908,-0.751 -1.177,-0.786 -0.995,-0.536 -0.875,-0.492 -1.185,-0.687 -0.984,-0.404 -0.558,-0.344 -0.773,-0.532 -0.456,-0.336 -0.276,-0.308 -0.31,-0.458 -0.332,-0.575 -0.241,-0.347 -0.003,-0.169 -0.094,-0.576 -0.084,-0.476 0.007,-0.161 -0.001,-0.139 0.021,-0.036 -0.016,0.006 -0.047,0.04 0.391,-0.278 0.689,-0.743 0.428,-0.396 0.605,-0.425 0.834,-0.555 0.768,-0.516 0.555,-0.324 0.801,-0.27 0.862,-0.362 0.631,-0.169 0.759,-0.071 1.019,-0.052 0.898,-0.055 0.47,0.039 0.994,0.35 0.938,0.216 0.961,0.491 0.978,0.309 0.739,0.357 0.698,0.348 0.892,0.506 0.656,0.231 -0.174,-4.732 4.703,-0.43 -0.129,-0.315 -0.413,-0.612 -0.344,-0.653 -0.415,-0.884 -0.507,-1.135 -0.332,-0.559 -0.056,-0.347 -0.292,-0.758 -0.178,-0.534 -0.246,-0.857 -0.276,-0.766 -0.215,-0.871 -0.299,-0.959 -0.328,-1.229 -0.473,-1.232 -0.448,-1.176 -0.448,-1.269 -0.557,-1.245 -0.53,-1.307 -0.635,-1.154 -0.57,-1.194 -0.672,-1.087 -0.708,-1.146 -0.696,-0.77 -0.635,-0.939 -0.842,-0.863 -0.653,-0.765 -0.629,-0.686 -0.436,-0.519 -0.398,-0.58 -0.212,-0.306 0.054,0.193 0.034,0.013 -0.013,-0.025 -0.027,0.119 0.319,-0.682 0.477,-1.294 0.326,-1.041 0.142,-0.48 -0.001,-0.122 -0.021,0.061 0.285,-0.187 0.25,-0.175 -0.519,0.116 -1.023,-0.09 -0.409,-0.202 0.341,0.47 0.875,0.817 0.684,0.682 0.694,0.804 0.69,0.758 0.483,0.367 0.397,0.561 0.815,0.827 0.662,0.661 0.903,0.962 0.904,0.787 0.799,0.914 1.038,1.04 0.998,1.056 1.002,1 1.03,1.196 1.06,1.226 1.112,1.416 1.272,1.336 1.188,1.417 0.704,0.796 0.703,0.794 0.791,0.853 0.76,0.817 0.7,0.759 0.843,0.905 0.998,0.868 0.851,0.733 0.851,0.734 0.949,0.815 1.011,0.753 0.97,0.718 0.971,0.659 0.899,0.61 0.929,0.638 0.939,0.645 0.938,0.646 0.994,0.682 0.935,0.593 0.823,0.52 0.794,0.549 0.861,0.594 1.561,1.057 0.701,0.547 0.773,0.602 1.378,1.1 0.723,0.645 0.796,0.707 0.765,0.677 0.763,0.675 0.763,0.675 0.783,0.692 0.842,0.722 0.861,0.738 0.95,0.767 0.958,0.771 0.988,0.742 0.952,0.714 1.01,0.743 1.025,0.753 1.025,0.724 1.036,0.73 1.006,0.672 0.968,0.645 0.968,0.646 0.935,0.623 0.848,0.593 0.946,0.662 0.948,0.601 0.884,0.56 1.49,0.936 1.253,0.912 1.237,0.825 1.035,0.748 0.771,0.52 0.707,0.658 0.721,0.542 0.545,0.493 0.816,0.648 0.583,0.365 0.439,0.389 0.715,0.485 0.683,0.445 0.09,0.068 0.093,0.119 0.206,0.488 0.175,0.193 -0.01,0.229 0.17,0.562 0.078,0.512 0.38,1.495 2.664,2.493 1.888,-0.052 -2.789,-1.535 -0.372,-2.896 -0.155,0.177 -0.581,0.95 -0.394,0.781 -0.336,0.739 -0.303,0.714 -0.484,0.925 -0.398,1.221 -0.342,1.025 -0.352,1.056 -0.422,1.294 -0.269,1.441 -0.323,1.392 -0.142,1.53 -0.162,1.235 -0.237,1.543 -0.192,1.604 -0.124,1.667 -0.111,1.564 -0.175,1.457 -0.11,1.457 -0.242,1.531 -0.07,1.609 -0.117,1.526 -0.059,1.471 -0.117,1.587 -0.062,1.592 -0.057,1.59 -0.117,1.703 -0.061,1.764 -0.061,1.875 0.06,1.99 0.059,1.873 0.029,1.022 0.036,1.17 0.131,1.199 0.13,1.159 0.192,1.129 0.181,1.056 0.211,1.115 0.218,1.15 0.249,1.091 0.238,1.04 0.267,1.129 0.266,1.125 0.267,1.095 0.309,1.253 0.435,1.251 0.331,0.931 0.221,0.899 0.308,1.215 0.403,1.154 0.347,0.983 0.347,1.012 0.361,1.053 0.391,1.083 0.392,1.087 0.393,1.028 0.398,1.038 0.427,1.039 0.445,1.076 0.505,1.076 0.441,0.936 0.384,0.906 0.446,1.049 0.506,1.047 0.479,0.988 0.479,0.957 0.523,1.042 1.072,1.833 0.575,0.938 0.544,0.888 1.062,1.774 1.353,1.689 1.003,1.311 1.411,1.549 1.071,0.945 1.198,1.069 0.96,0.738 1.153,0.772 0.489,0.325 0.624,0.405 0.912,0.602 2.729,-1.951 z"
       id="path23"
       inkscape:connector-curvature="0"
       style="fill:#000000;stroke:none" />
    <path
       __timestamp="0x14bc21d7a86"
       __comx="180.271"
       __comy="373.233"
       d="m 161.148,373.757 -2.344,-2.425 0.262,-0.072 -3.15,3.017 3.485,3.717 1.09,0.146 0.781,-0.058 1.181,0.174 1.232,-0.059 1.618,0.234 1.867,-0.055 0.885,0.078 1.227,0.096 1.286,0.003 1.066,-10e-4 1.242,0.056 1.398,0.062 1.486,10e-4 1.373,-10e-4 1.431,0.029 1.502,0.03 1.707,0 1.767,-10e-4 1.709,-0.092 1.328,-0.084 1.592,0.186 2.164,0.223 1.866,-0.193 1.587,-0.354 1.749,-0.544 1.783,-0.711 1.814,-1.006 1.732,-1.168 1.882,-0.458 1.879,-0.464 -0.002,-0.014 -1.934,0.064 -1.931,0.07 -1.965,-0.699 -1.882,-0.537 -1.736,-0.476 -1.771,-0.309 -1.582,-0.178 -1.302,-0.018 -1.59,-0.186 -2.163,-0.225 -1.899,0.091 -1.518,0.085 -1.577,-0.002 -1.637,0 -1.432,-0.028 -1.501,-0.03 -1.443,0 -1.331,0 -1.242,-0.056 -1.398,-0.061 -1.221,-10e-4 -1.003,0.003 -0.944,-0.079 -1.285,-0.099 -1.653,0.063 -1.668,-0.236 -1.232,0.059 -1.283,-0.178 -0.744,0.059 -0.436,-0.089 2.429,3.6 -1.742,3.017 1.319,-0.776 -1.171,-3.129 z"
       id="path25"
       inkscape:connector-curvature="0"
       style="fill:#000000;stroke:none" />
    <path
       __timestamp="0x14bc21d7e9d"
       __comx="290.428"
       __comy="374.971"
       d="m 269.985,375.692 0.23,0.701 -0.738,2.296 2.174,0.606 0.37,-0.115 1.118,0.541 1.308,-0.233 1.67,0.334 1.757,-0.158 0.845,0.125 1.438,0.166 1.322,0.006 1.001,-0.002 1.236,0.083 1.381,0.09 1.294,0.06 1.232,0.057 1.348,0.087 1.452,0.091 1.423,0.032 1.387,0.03 1.359,0 1.282,0 1.311,0.029 1.518,0.029 1.342,-0.097 1.003,-0.079 1.12,0.029 1.572,0.022 1.335,-0.179 0.646,-0.121 0.796,0.078 1.372,0.094 1.721,-0.636 1.497,-1.428 1.351,-1.586 0.647,-0.353 -0.007,-0.012 -0.644,0.352 -1.582,-1.587 -1.672,-0.958 -0.978,-0.636 -1.033,-0.14 -1.61,-0.157 -1.465,0.172 -0.777,0.114 -1.01,-0.036 -1.461,-0.03 -1.344,0.097 -1.005,0.079 -1.18,-0.03 -1.387,-0.03 -1.358,0 -1.282,0 -1.312,-0.028 -1.276,-0.027 -1.305,-0.084 -1.409,-0.09 -1.291,-0.06 -1.229,-0.057 -1.317,-0.086 -1.463,-0.094 -1.229,-0.002 -0.907,0.006 -1.026,-0.127 -1.619,-0.168 -1.646,0.194 -2.202,-0.253 -0.921,0.354 -1.933,-0.28 -0.686,0.471 -0.172,0.254 -2.616,1.944 1.404,1.522 z"
       id="path27"
       inkscape:connector-curvature="0"
       style="fill:#000000;stroke:none" />
    <path
       __timestamp="0x14bc21d8304"
       __comx="170.789"
       __comy="425.801"
       d="m 157.458,426.477 -0.75,-0.853 -2.449,0.348 2.414,4.566 2.864,0.359 0.895,-0.218 0.44,0.135 1.516,0.184 1.576,-0.131 0.933,-0.101 1.314,0.058 1.564,0.059 1.798,0.059 1.877,0.059 1.787,-0.117 1.762,-0.257 1.4,-0.322 1.332,-0.387 1.34,-0.456 1.391,-0.539 1.372,-0.606 1.404,-0.677 1.385,-0.468 1.349,-0.472 1.346,-0.482 -0.002,-0.013 -1.43,-0.012 -1.429,-0.003 -1.391,10e-4 -1.413,-0.481 -1.443,-0.41 -1.426,-0.344 -1.358,-0.3 -1.367,-0.23 -1.299,-0.165 -1.641,-0.199 -1.615,-0.058 -1.702,-0.058 -1.781,-0.059 -1.546,-0.058 -1.795,-0.06 -1.413,0.135 -0.771,0.102 -0.714,-0.109 -1.789,-0.157 -1.334,0.368 -0.304,0.359 1.24,3.862 -1.275,0.699 -0.163,-2.26 z"
       id="path29"
       inkscape:connector-curvature="0"
       style="fill:#000000;stroke:none" />
    <path
       __timestamp="0x14bc21d864d"
       __comx="289.017"
       __comy="424.888"
       d="m 267.338,425.807 0.528,0.464 1.377,2.271 0.125,0.356 1.655,0.214 0.187,-0.089 1.077,0.383 1.178,-0.164 1.651,0.343 1.724,-0.054 0.958,0.147 1.503,0.201 1.298,0.009 0.901,-0.004 1.165,0.107 1.39,0.123 1.272,0.063 1.177,0.057 1.352,0.087 1.407,0.089 1.261,0.06 1.315,0.062 1.315,0.001 1.03,-0.006 1.059,0.129 1.563,0.169 1.329,-0.063 0.704,-0.055 0.822,0.12 1.584,0.175 1.587,-0.247 0.549,0.228 1.767,0.443 2.329,-0.624 1.635,-1.323 1.584,-1.442 0,-0.013 -1.584,-1.325 -1.533,-1.44 -1.426,-0.624 -0.756,-0.32 -1.973,-0.535 -2.168,0.222 -0.705,-0.118 -1.465,-0.173 -1.35,0.062 -0.724,0.055 -0.96,-0.125 -1.463,-0.164 -1.435,-0.006 -1.149,10e-4 -1.148,-0.056 -1.204,-0.057 -1.351,-0.086 -1.405,-0.09 -1.228,-0.06 -1.133,-0.054 -1.251,-0.112 -1.475,-0.128 -1.211,-0.003 -0.813,0.008 -1.02,-0.151 -1.565,-0.205 -1.562,0.064 -2.103,-0.361 -0.934,0.187 -1.622,-0.321 -0.869,0.264 -0.574,0.096 -1.166,0.356 -0.5,2.858 -0.529,0.112 z"
       id="path31"
       inkscape:connector-curvature="0"
       style="fill:#000000;stroke:none" />
  </g>
</svg>
