<?xml version="1.0" encoding="UTF-8" standalone="no"?>
<!-- Created with Inkscape (http://www.inkscape.org/) -->

<svg
   xmlns:dc="http://purl.org/dc/elements/1.1/"
   xmlns:cc="http://creativecommons.org/ns#"
   xmlns:rdf="http://www.w3.org/1999/02/22-rdf-syntax-ns#"
   xmlns:svg="http://www.w3.org/2000/svg"
   xmlns="http://www.w3.org/2000/svg"
   xmlns:sodipodi="http://sodipodi.sourceforge.net/DTD/sodipodi-0.dtd"
   xmlns:inkscape="http://www.inkscape.org/namespaces/inkscape"
   width="320"
   height="320"
   id="svg2"
   version="1.1"
   inkscape:version="0.48.5 r10040"
   sodipodi:docname="savings.svg">
  <defs
     id="defs4" />
  <sodipodi:namedview
     id="base"
     pagecolor="#ffffff"
     bordercolor="#666666"
     borderopacity="1.0"
     inkscape:pageopacity="0.0"
     inkscape:pageshadow="2"
     inkscape:zoom="1.4"
     inkscape:cx="200.73554"
     inkscape:cy="207.48053"
     inkscape:document-units="px"
     inkscape:current-layer="layer1"
     showgrid="false"
     inkscape:window-width="1053"
     inkscape:window-height="758"
     inkscape:window-x="471"
     inkscape:window-y="16"
     inkscape:window-maximized="0" />
  <metadata
     id="metadata7">
    <rdf:RDF>
      <cc:Work
         rdf:about="">
        <dc:format>image/svg+xml</dc:format>
        <dc:type
           rdf:resource="http://purl.org/dc/dcmitype/StillImage" />
        <dc:title></dc:title>
      </cc:Work>
    </rdf:RDF>
  </metadata>
  <g
     inkscape:label="Layer 1"
     inkscape:groupmode="layer"
     id="layer1"
     transform="translate(0,-732.36218)">
    <rect
       style="fill:#b3b3b3;fill-rule:evenodd;stroke:#000000;stroke-width:0;stroke-linecap:butt;stroke-linejoin:miter;stroke-miterlimit:4;stroke-opacity:1;stroke-dasharray:none"
       id="rect2985"
       width="257.85715"
       height="260.71429"
       x="37.132648"
       y="765.3761" />
    <rect
       style="fill:#f9f9f9;fill-rule:evenodd;stroke:#000000;stroke-width:0;stroke-linecap:butt;stroke-linejoin:miter;stroke-miterlimit:4;stroke-opacity:1;stroke-dasharray:none"
       id="rect2985-1"
       width="257.85715"
       height="260.71429"
       x="35.346928"
       y="763.59039" />
    <text
       xml:space="preserve"
       style="font-size:40px;font-style:normal;font-weight:normal;line-height:125%;letter-spacing:0px;word-spacing:0px;fill:#000000;fill-opacity:1;stroke:none;font-family:Sans"
       x="117.13264"
       y="793.94757"
       id="text3775"
       sodipodi:linespacing="125%"><tspan
         sodipodi:role="line"
         id="tspan3777"
         x="117.13264"
         y="793.94757"
         style="font-size:24px;font-style:normal;font-variant:normal;font-weight:normal;font-stretch:normal;font-family:Segoe UI;-inkscape-font-specification:Segoe UI">Estimate</tspan></text>
    <text
       xml:space="preserve"
       style="font-size:40px;font-style:normal;font-weight:normal;line-height:125%;letter-spacing:0px;word-spacing:0px;fill:#000000;fill-opacity:1;stroke:none;font-family:Sans"
       x="267.85715"
       y="309.50504"
       id="text3779"
       sodipodi:linespacing="125%"><tspan
         sodipodi:role="line"
         id="tspan3781"
         x="267.85715"
         y="309.50504"></tspan></text>
    <text
       xml:space="preserve"
       style="font-size:40px;font-style:normal;font-weight:normal;line-height:125%;letter-spacing:0px;word-spacing:0px;fill:#000000;fill-opacity:1;stroke:none;font-family:Sans"
       x="50.135731"
       y="836.14984"
       id="text3775-7"
       sodipodi:linespacing="125%"><tspan
         sodipodi:role="line"
         id="tspan3777-4"
         x="50.135731"
         y="836.14984"
         style="font-size:24px;font-style:normal;font-variant:normal;font-weight:normal;font-stretch:normal;font-family:Segoe UI;-inkscape-font-specification:Segoe UI">Software</tspan></text>
    <text
       xml:space="preserve"
       style="font-size:40px;font-style:normal;font-weight:normal;line-height:125%;letter-spacing:0px;word-spacing:0px;fill:#000000;fill-opacity:1;stroke:none;font-family:Sans"
       x="66.564285"
       y="862.57837"
       id="text3775-0"
       sodipodi:linespacing="125%"><tspan
         sodipodi:role="line"
         id="tspan3777-9"
         x="66.564285"
         y="862.57837"
         style="font-size:24px;font-style:normal;font-variant:normal;font-weight:normal;font-stretch:normal;font-family:Segoe UI;-inkscape-font-specification:Segoe UI">Reporting</tspan></text>
    <text
       xml:space="preserve"
       style="font-size:40px;font-style:normal;font-weight:normal;line-height:125%;letter-spacing:0px;word-spacing:0px;fill:#000000;fill-opacity:1;stroke:none;font-family:Sans"
       x="66.564285"
       y="889.00696"
       id="text3775-4"
       sodipodi:linespacing="125%"><tspan
         sodipodi:role="line"
         id="tspan3777-8"
         x="66.564285"
         y="889.00696"
         style="font-size:24px;font-style:normal;font-variant:normal;font-weight:normal;font-stretch:normal;font-family:Segoe UI;-inkscape-font-specification:Segoe UI">ETL</tspan></text>
    <text
       xml:space="preserve"
       style="font-size:40px;font-style:normal;font-weight:normal;line-height:125%;letter-spacing:0px;word-spacing:0px;fill:#000000;fill-opacity:1;stroke:none;font-family:Sans"
       x="65.361435"
       y="914.49274"
       id="text3775-4-8"
       sodipodi:linespacing="125%"><tspan
         sodipodi:role="line"
         id="tspan3777-8-2"
         x="65.361435"
         y="914.49274"
         style="font-size:24px;font-style:normal;font-variant:normal;font-weight:normal;font-stretch:normal;font-family:Segoe UI;-inkscape-font-specification:Segoe UI">Database</tspan></text>
    <text
       xml:space="preserve"
       style="font-size:40px;font-style:normal;font-weight:normal;line-height:125%;letter-spacing:0px;word-spacing:0px;fill:#000000;fill-opacity:1;stroke:none;font-family:Sans"
       x="64.647141"
       y="940.20703"
       id="text3775-4-4"
       sodipodi:linespacing="125%"><tspan
         sodipodi:role="line"
         id="tspan3777-8-5"
         x="64.647141"
         y="940.20703"
         style="font-size:24px;font-style:normal;font-variant:normal;font-weight:normal;font-stretch:normal;font-family:Segoe UI;-inkscape-font-specification:Segoe UI">OS</tspan></text>
    <text
       xml:space="preserve"
       style="font-size:40px;font-style:normal;font-weight:normal;line-height:125%;letter-spacing:0px;word-spacing:0px;fill:#000000;fill-opacity:1;stroke:none;font-family:Sans"
       x="54.004871"
       y="984.96149"
       id="text3775-7-5"
       sodipodi:linespacing="125%"><tspan
         sodipodi:role="line"
         id="tspan3777-4-1"
         x="54.004871"
         y="984.96149"
         style="font-size:24px;font-style:normal;font-variant:normal;font-weight:normal;font-stretch:normal;font-family:Segoe UI;-inkscape-font-specification:Segoe UI">Services</tspan></text>
    <text
       xml:space="preserve"
       style="font-size:40px;font-style:normal;font-weight:normal;line-height:125%;letter-spacing:0px;word-spacing:0px;fill:#000000;fill-opacity:1;stroke:none;font-family:Sans"
       x="450"
       y="324.50504"
       id="text3873"
       sodipodi:linespacing="125%"><tspan
         sodipodi:role="line"
         id="tspan3875"
         x="450"
         y="324.50504" /></text>
    <text
       xml:space="preserve"
       style="font-size:40px;font-style:normal;font-weight:normal;line-height:125%;letter-spacing:0px;word-spacing:0px;fill:#000000;fill-opacity:1;stroke:none;font-family:Sans"
       x="250.87375"
       y="864.18054"
       id="text3775-0-7"
       sodipodi:linespacing="125%"><tspan
         sodipodi:role="line"
         id="tspan3777-9-1"
         x="250.87375"
         y="864.18054"
         style="font-size:24px;font-style:normal;font-variant:normal;font-weight:normal;font-stretch:normal;font-family:Segoe UI;-inkscape-font-specification:Segoe UI">$</tspan></text>
    <text
       xml:space="preserve"
       style="font-size:40px;font-style:normal;font-weight:normal;line-height:125%;letter-spacing:0px;word-spacing:0px;fill:#000000;fill-opacity:1;stroke:none;font-family:Sans"
       x="250.45886"
       y="889.33453"
       id="text3775-0-7-1"
       sodipodi:linespacing="125%"><tspan
         sodipodi:role="line"
         id="tspan3777-9-1-5"
         x="250.45886"
         y="889.33453"
         style="font-size:24px;font-style:normal;font-variant:normal;font-weight:normal;font-stretch:normal;font-family:Segoe UI;-inkscape-font-specification:Segoe UI">$</tspan></text>
    <text
       xml:space="preserve"
       style="font-size:40px;font-style:normal;font-weight:normal;line-height:125%;letter-spacing:0px;word-spacing:0px;fill:#000000;fill-opacity:1;stroke:none;font-family:Sans"
       x="251.17313"
       y="913.62024"
       id="text3775-0-7-2"
       sodipodi:linespacing="125%"><tspan
         sodipodi:role="line"
         id="tspan3777-9-1-7"
         x="251.17313"
         y="913.62024"
         style="font-size:24px;font-style:normal;font-variant:normal;font-weight:normal;font-stretch:normal;font-family:Segoe UI;-inkscape-font-specification:Segoe UI">$</tspan></text>
    <text
       xml:space="preserve"
       style="font-size:40px;font-style:normal;font-weight:normal;line-height:125%;letter-spacing:0px;word-spacing:0px;fill:#000000;fill-opacity:1;stroke:none;font-family:Sans"
       x="249.74454"
       y="939.33453"
       id="text3775-0-7-6"
       sodipodi:linespacing="125%"><tspan
         sodipodi:role="line"
         id="tspan3777-9-1-1"
         x="249.74454"
         y="939.33453"
         style="font-size:24px;font-style:normal;font-variant:normal;font-weight:normal;font-stretch:normal;font-family:Segoe UI;-inkscape-font-specification:Segoe UI">$</tspan></text>
    <text
       xml:space="preserve"
       style="font-size:40px;font-style:normal;font-weight:normal;line-height:125%;letter-spacing:0px;word-spacing:0px;fill:#000000;fill-opacity:1;stroke:none;font-family:Sans"
       x="247.60168"
       y="985.04883"
       id="text3775-0-7-4"
       sodipodi:linespacing="125%"><tspan
         sodipodi:role="line"
         id="tspan3777-9-1-2"
         x="247.60168"
         y="985.04883"
         style="font-size:24px;font-style:normal;font-variant:normal;font-weight:normal;font-stretch:normal;font-family:Segoe UI;-inkscape-font-specification:Segoe UI">$</tspan></text>
    <path
       style="fill:none;stroke:#ff0000;stroke-width:1px;stroke-linecap:butt;stroke-linejoin:miter;stroke-opacity:1"
       d="m 57.857143,125.71429 c 11.904762,0 23.809524,0 35.714286,0 2.619047,0 5.238095,0 7.857141,0 0.60475,0 2.47314,-0.12801 2.85714,0 0.31944,0.10647 0.39485,0.6078 0.71429,0.71428 0.67763,0.22588 1.42857,0 2.14286,0 1.42857,0 2.85714,0 4.28571,0 5,0 10,0 15,0 15.2381,0 30.47619,0 45.71429,0 2.38095,0 4.7619,0 7.14285,0 0.71429,0 1.42858,0 2.14286,0 0.2381,0 0.48841,0.0753 0.71429,0 0.50507,-0.16836 0.91207,-0.58516 1.42857,-0.71428 0.46197,-0.1155 0.95238,0 1.42857,0 0.47619,0 0.95238,0 1.42857,0 1.90476,0 3.80953,0 5.71429,0 2.38095,0 4.7619,0 7.14285,0 0.13444,0 3.53038,0.0274 3.57143,0 0.44298,-0.29533 0.33783,-1.05211 0.71429,-1.42858 0.16836,-0.16835 0.47619,0 0.71428,0 0.71429,0 1.42858,0 2.14286,0 0.85725,0 2.19048,0 2.85714,0 0.2381,0 0.48841,0.0753 0.71429,0 0.50508,-0.16835 0.9235,-0.54592 1.42857,-0.71428 0.65501,-0.21834 3.84039,0.22266 4.28572,0 0.30117,-0.15059 0.39484,-0.60781 0.71428,-0.71429 0.45176,-0.15058 0.95238,0 1.42857,0 0.95238,0 1.90476,0 2.85715,0 0.71428,0 1.43829,0.11743 2.14285,0 1.19754,-0.19959 2.3648,-0.58021 3.57143,-0.71428 1.41984,-0.15776 2.85714,0 4.28572,0 4.7619,0 9.52381,0 14.28571,0 1.66667,0 3.33333,0 5,0 0.47619,0 0.97682,-0.15059 1.42857,0 0.31944,0.10648 0.38762,0.63262 0.71429,0.71428 0.51331,0.12833 3.49813,0 4.28571,0 3.09524,0 6.19048,0 9.28572,0 0.47619,0 0.95238,0 1.42857,0 0.47619,0 0.9666,-0.11549 1.42857,0 0.5165,0.12913 0.91207,0.58516 1.42857,0.71429 0.54319,0.1358 2.97329,0 3.57143,0 0.23809,0 0.54593,0.16836 0.71428,0 0.16836,-0.16836 0,-0.47619 0,-0.71429"
       id="path3948"
       inkscape:connector-curvature="0"
       transform="translate(0,732.36218)" />
    <path
       style="fill:none;stroke:#ff0000;stroke-width:1px;stroke-linecap:butt;stroke-linejoin:miter;stroke-opacity:1"
       d="m 59.285714,151.42857 c 2.522693,0.93263 3.740738,-1.64947 5.714286,-2.14286 0.461973,-0.11549 0.952381,0 1.428571,0 0.714286,0 1.435751,0.10102 2.142858,0 3.199218,-0.45703 2.515067,-0.97154 5.714285,-1.42857 0.707107,-0.10101 1.428572,0 2.142858,0 1.190476,0 2.380952,0 3.571428,0 4.52381,0 9.047619,0 13.571429,0 1.416897,0 3.66759,0 5,0 0.952381,0 1.910591,0.10518 2.857141,0 1.20663,-0.13407 2.3648,-0.58021 3.57143,-0.71428 0.94656,-0.10518 1.90476,0 2.85714,0 1.42857,0 2.85715,0 4.28572,0 1.66666,0 3.33333,0 5,0 0.71428,0 1.43575,0.10101 2.14285,0 6.2134,-0.88763 -0.0881,-0.41096 5,-1.42857 0.46695,-0.0934 0.95239,0 1.42858,0 0.71428,0 1.42857,0 2.14285,0 0.71429,0 1.43575,0.10101 2.14286,0 0.97183,-0.13884 1.88303,-0.59253 2.85714,-0.71429 0.94503,-0.11813 1.90476,0 2.85715,0 0.95238,0 1.90476,0 2.85714,0 4.28571,0 8.57143,0 12.85714,0 1.13298,0 5.07963,0.18133 5.71429,0 0.82543,-0.23584 1.34579,-1.10975 2.14285,-1.42857 0.44214,-0.17685 0.95239,0 1.42858,0 0.71428,0 1.43829,0.11743 2.14285,0 0.74268,-0.12378 1.41242,-0.53168 2.14286,-0.71429 0.6111,-0.15277 2.85749,0 3.57143,0 3.09524,0 6.19047,0 9.28571,0 1.19048,0 2.39715,0.19572 3.57143,0 0.74268,-0.12378 1.39575,-0.62089 2.14286,-0.71428 1.18128,-0.14766 2.38095,0 3.57143,0 1.90476,0 3.80952,0 5.71428,0 5.47619,0 10.95238,0 16.42857,0 6.66667,0 13.33334,0 20,0 2.61905,0 5.2381,0 7.85715,0 0.71428,0 1.42857,0 2.14285,0 0.71429,0 1.44245,-0.14009 2.14286,0 0.52206,0.10441 0.91207,0.58516 1.42857,0.71428 0.46198,0.1155 0.95238,0 1.42857,0 0.4762,0 0.95239,0 1.42858,0 0.71428,0 1.44989,-0.17324 2.14285,0 0.32667,0.0817 0.38762,0.63262 0.71429,0.71429 0.15573,0.0389 3.24643,-0.1625 3.57143,0 0.30117,0.15058 0.39052,0.62178 0.71428,0.71428 1.39256,0.39788 2.852,0.50947 4.28572,0.71429 0.93845,0.13406 2.80329,-0.25605 3.57143,0 0.31943,0.10648 0.41311,0.5637 0.71428,0.71429 0.25831,0.12915 3.07462,0 3.57143,0 1.61374,0 -0.31944,-0.10648 2.14286,0.71428 0.45175,0.15059 1.00265,-0.21296 1.42857,0 0.30117,0.15059 0.41312,0.5637 0.71428,0.71429 0.21296,0.10648 0.48841,-0.0753 0.71429,0 0.50508,0.16836 0.9235,0.54592 1.42857,0.71428 0.22588,0.0753 0.71429,-0.23809 0.71429,0 0,0.2381 -0.47619,0 -0.71429,0"
       id="path3950"
       inkscape:connector-curvature="0"
       transform="translate(0,732.36218)" />
    <path
       style="fill:none;stroke:#ff0000;stroke-width:1px;stroke-linecap:butt;stroke-linejoin:miter;stroke-opacity:1"
       d="m 56.428571,175 c 5.476191,0 10.952381,0 16.428572,0 1.190476,0 2.380952,0 3.571429,0 0.95238,0 1.910586,0.10517 2.857142,0 1.206627,-0.13407 2.386287,-0.45092 3.571429,-0.71429 0.958315,-0.21295 1.881455,-0.60587 2.857143,-0.71428 1.183195,-0.13147 2.380952,0 3.571428,0 0.952381,0 1.904762,0 2.857143,0 0.714286,0 1.435751,0.10101 2.142857,0 0.971826,-0.13883 1.885318,-0.57546 2.857143,-0.71429 0.707107,-0.10101 1.428572,0 2.142857,0 2.857146,0 5.714286,0 8.571426,0 6.19048,0 12.38096,0 18.57143,0 2.61905,0 5.2381,0 7.85714,0 0.71429,0 1.42858,0 2.14286,0 0.47619,0 0.96163,0.0934 1.42857,0 0.7383,-0.14766 1.39098,-0.67471 2.14286,-0.71428 3.80426,-0.20023 7.61905,0 11.42857,0 0.95238,0 1.91434,-0.13469 2.85714,0 0.74536,0.10648 1.40018,0.5905 2.14286,0.71428 0.70457,0.11743 1.42857,0 2.14286,0 1.43106,0 2.85465,0 4.28571,0 0.71429,0 1.42857,0 2.14286,0 0.71429,0 1.43829,0.11743 2.14286,0 0.74268,-0.12378 1.40455,-0.56662 2.14285,-0.71428 0.46695,-0.0934 0.96163,0.0934 1.42858,0 0.7383,-0.14766 1.40017,-0.59051 2.14285,-0.71429 0.70457,-0.11743 1.42857,0 2.14286,0 0.71429,0 1.42857,0 2.14286,0 3.09524,0 6.19047,0 9.28571,0 1.90476,0 3.82423,0.23626 5.71429,0 0.74711,-0.0934 1.40018,-0.5905 2.14285,-0.71428 0.70457,-0.11743 1.42858,0 2.14286,0 0.95238,0 1.90476,0 2.85714,0 1.90477,0 3.80953,0 5.71429,0 6.66667,0 13.33333,0 20,0 4.04762,0 8.09524,0 12.14286,0 1.42857,0 2.85714,0 4.28571,0 0.47619,0 0.97682,-0.15059 1.42857,0 0.31944,0.10647 0.41312,0.5637 0.71429,0.71428 0.21717,0.10859 2.36391,0 2.85714,0 2.61905,0 5.2381,0 7.85714,0 0.95239,0 1.92326,-0.18678 2.85715,0 0.7383,0.14766 1.40455,0.56663 2.14285,0.71429 0.46695,0.0934 0.95239,0 1.42858,0 0.71428,0.23809 1.41241,0.53167 2.14285,0.71428 0.23099,0.0578 0.47619,0 0.71429,0 0.47619,0 0.95238,0 1.42857,0 1.42857,0 2.85714,0 4.28571,0"
       id="path3952"
       inkscape:connector-curvature="0"
       transform="translate(0,732.36218)" />
    <path
       style="fill:none;stroke:#ff0000;stroke-width:1px;stroke-linecap:butt;stroke-linejoin:miter;stroke-opacity:1"
       d="m 50.714286,200.71429 c 6.268773,0 -0.471595,0.27366 10,-2.14286 0.695993,-0.16062 1.456054,0.19623 2.142857,0 1.023825,-0.29252 1.833318,-1.13605 2.857143,-1.42857 0.686803,-0.19623 1.43575,0.10101 2.142857,0 0.971825,-0.13884 1.883032,-0.59252 2.857143,-0.71429 2.12631,-0.26579 4.296349,0.21322 6.428571,0 2.416055,-0.2416 4.72314,-1.22693 7.142857,-1.42857 1.66091,-0.13841 3.338243,0.12783 5,0 1.444011,-0.11108 2.843386,-0.58317 4.285715,-0.71429 1.185587,-0.10778 2.38686,0.11846 3.571428,0 11.958753,-1.19587 -5.93744,-0.27902 7.857143,-1.42857 1.42364,-0.11863 2.85714,0 4.28571,0 1.19048,0 2.38096,0 3.57143,0 1.19048,0 2.38686,0.11846 3.57143,0 1.20803,-0.1208 2.36236,-0.60437 3.57143,-0.71428 1.4227,-0.12934 2.85714,0 4.28571,0 1.19048,0 2.38096,0 3.57143,0 5.2381,0 10.47619,0 15.71429,0 5.71428,0 11.42857,0 17.14286,0 3.0554,0 1.89898,0 5.71428,0 0.71429,0 1.43575,-0.10102 2.14286,0 0.97182,0.13883 1.88532,0.57545 2.85714,0.71428 1.20167,0.17167 3.01778,0 4.28572,0 3.57142,0 7.14285,0 10.71428,0 4.76191,0 9.52381,0 14.28572,0 1.42857,0 2.85714,0 4.28571,0 0.47619,0 0.9666,0.1155 1.42857,0 0.5165,-0.12912 0.91207,-0.58516 1.42857,-0.71428 0.46198,-0.1155 0.95238,0 1.42857,0 1.42858,0 2.85715,0 4.28572,0 4.04762,0 8.09524,0 12.14286,0 4.41608,0 -0.32516,-0.17324 5,0.71428 0.93942,0.15657 1.90476,0 2.85714,0 3.09524,0 6.19048,0 9.28571,0 0.95238,0 1.90477,0 2.85715,0 0.71428,0 1.43829,-0.11743 2.14285,0 0.74268,0.12378 1.42857,0.47619 2.14286,0.71429 0.71429,0.23809 1.42857,0.47619 2.14286,0.71428 0.71428,0.2381 1.3975,0.60781 2.14285,0.71429 0.94281,0.13469 1.91772,-0.15657 2.85715,0 0.52515,0.0875 0.90651,0.60987 1.42857,0.71429 0.70041,0.14008 1.43575,-0.10102 2.14286,0 0.97182,0.13883 1.8888,0.55289 2.85714,0.71428 0.46971,0.0783 0.95238,0 1.42857,0 0.71429,0.2381 1.41241,0.53168 2.14286,0.71429 0.51242,0.1281 2.68504,-0.1721 2.85714,0 0.16836,0.16836 0,0.47619 0,0.71428"
       id="path3954"
       inkscape:connector-curvature="0"
       transform="translate(0,732.36218)" />
    <path
       style="fill:none;stroke:#ff0000;stroke-width:1px;stroke-linecap:butt;stroke-linejoin:miter;stroke-opacity:1"
       d="m 47.142857,95 c 2.380953,0 4.767956,-0.169636 7.142857,0 0.979197,0.06994 1.880323,0.616603 2.857143,0.714285 1.421482,0.142149 2.857143,0 4.285714,0 1.028841,0 6.790886,0 7.142858,0 5.714285,0 11.428571,0 17.142857,0 2.142857,0 4.285714,0 6.428571,0 0.714286,0 1.428572,0 2.142857,0 0.714286,0 1.465227,0.225877 2.142858,0 0.814411,-0.27147 1.328446,-1.157101 2.142857,-1.428571 0.117701,-0.03923 4.056601,0.03818 4.285711,0 0.74268,-0.12378 1.40018,-0.590506 2.14286,-0.714286 0.70457,-0.117428 1.42857,0 2.14286,0 0.47619,0 0.97681,0.150585 1.42857,0 0.31944,-0.106479 0.47619,-0.47619 0.71428,-0.714285 0.71429,-0.238096 1.41242,-0.531675 2.14286,-0.714286 0.46197,-0.115493 0.95238,0 1.42857,0 1.19048,0 2.38096,0 3.57143,0 0.32169,0 1.92548,-0.108691 2.14286,0 3.37299,1.686496 -4.35972,-0.375645 2.85714,1.428571 0.77868,0.19467 3.83428,-0.225718 4.28572,0 0.30117,0.150585 0.41311,0.563701 0.71428,0.714286 0.37017,0.185084 3.56742,-0.143659 4.28572,0 2.14285,0.476191 4.28571,0.952381 6.42857,1.428571 0,-0.238095 -0.2381,-0.714285 0,-0.714285 0.53239,0 0.92349,0.545927 1.42857,0.714285 0.22588,0.07529 0.47619,0 0.71428,0 0.47619,0 0.97682,-0.150584 1.42858,0 0.50507,0.168359 0.91207,0.585161 1.42857,0.714286 0.46197,0.115493 0.96163,-0.09339 1.42857,0 0.7383,0.147661 1.40455,0.566626 2.14286,0.714286 0.46694,0.09339 0.96659,-0.115493 1.42857,0 0.5165,0.129125 0.92349,0.545927 1.42857,0.714286 0.60138,0.20046 3.14617,-0.212631 3.57143,0 2.102,1.051003 -1.10878,0.714285 2.14285,0.714285 0.71429,0 1.42858,0 2.14286,0 0.2381,0 0.50133,-0.106479 0.71429,0 0.30117,0.150585 0.41311,0.563701 0.71428,0.714286 0.95238,0.476191 0.71429,-0.714286 0.71429,0.714286"
       id="path3956"
       inkscape:connector-curvature="0"
       transform="translate(0,732.36218)" />
  </g>
</svg>
