<?xml version="1.0" encoding="UTF-8" standalone="no"?>
<svg
   xmlns:dc="http://purl.org/dc/elements/1.1/"
   xmlns:cc="http://creativecommons.org/ns#"
   xmlns:rdf="http://www.w3.org/1999/02/22-rdf-syntax-ns#"
   xmlns:svg="http://www.w3.org/2000/svg"
   xmlns="http://www.w3.org/2000/svg"
   xmlns:sodipodi="http://sodipodi.sourceforge.net/DTD/sodipodi-0.dtd"
   xmlns:inkscape="http://www.inkscape.org/namespaces/inkscape"
   width="320"
   height="320"
   id="svg2"
   version="1.1"
   inkscape:version="0.48.4 r9939"
   sodipodi:docname="reporting_solution.svg">
  <metadata
     id="metadata17">
    <rdf:RDF>
      <cc:Work
         rdf:about="">
        <dc:format>image/svg+xml</dc:format>
        <dc:type
           rdf:resource="http://purl.org/dc/dcmitype/StillImage" />
      </cc:Work>
    </rdf:RDF>
  </metadata>
  <sodipodi:namedview
     pagecolor="#ffffff"
     bordercolor="#666666"
     borderopacity="1"
     objecttolerance="10"
     gridtolerance="10"
     guidetolerance="10"
     inkscape:pageopacity="0"
     inkscape:pageshadow="2"
     inkscape:window-width="640"
     inkscape:window-height="480"
     id="namedview15"
     showgrid="false"
     inkscape:zoom="0.67698661"
     inkscape:cx="303.5"
     inkscape:cy="197.57319"
     inkscape:window-x="634"
     inkscape:window-y="192"
     inkscape:window-maximized="0"
     inkscape:current-layer="page_1" />
  <defs
     id="defs4">
    <style
       type="text/css"
       id="style6"> 
  path { stroke-linecap: round; stroke-linejoin: round; }
  .ruleline { shape-rendering: crispEdges; }
</style>
  </defs>
  <g
     id="page_1"
     width="607.000"
     height="986.000"
     xruling="0.000"
     yruling="0.000"
     marginLeft="0.000"
     papercolor="#FFFFFF"
     rulecolor="#FF0000FF"
     transform="translate(0,-666)">
    <path
       __timestamp="0x14bc21e329b"
       __comx="247.442"
       __comy="346.455"
       d="m 43.763229,730.22575 2.948,0.625 -1.58,1.479 -3.636,-2.173 -0.152,-0.301 -0.213,0.637 -0.089,0.58 -0.338,0.87 -0.085,1.005 -0.266,0.752 -0.163,1.178 -0.373,0.977 -0.32,1.388 -0.425,1.406 -0.328,1.679 -0.328,1.613 -0.141,1.861 -0.127,1.716 0.119,1.783 0.002,1.628 0.19,2.005 0.171,1.59 0.112,1.69 0.112,1.644 -0.002,1.646 -0.055,1.706 -0.11,1.712 -0.171,1.815 -0.175,1.755 -0.168,1.738 -0.135,0.912 -0.16,1.098 -0.098,1.098 -0.088,0.997 -0.088,0.998 -0.088,1.002 -0.089,1.031 -0.087,1.022 -0.088,0.993 -0.087,0.988 -0.18,1.925 -0.116,1.919 -0.176,1.695 -0.122,1.882 -0.112,1.693 -0.18,1.757 -0.063,1.761 -0.117,1.697 -0.061,1.644 -0.059,1.708 -0.059,1.758 -0.058,1.639 -0.06,1.705 -10e-4,1.822 0,1.76 0,1.819 0.002,1.702 -0.115,1.7 -0.062,1.818 -10e-4,1.762 10e-4,1.582 -0.058,1.641 -0.06,1.762 0,1.703 0,1.525 0,1.58 -0.059,1.706 0.059,1.646 -0.059,1.76 0.059,1.643 -0.059,1.752 0.059,1.936 0,1.828 -0.059,1.989 0.059,1.99 0,1.824 10e-4,1.931 0.12,1.875 0.06,1.836 0.122,1.657 0.117,1.584 0.125,1.672 0.177,1.418 0.111,1.401 0.126,1.436 0.175,1.343 0.105,1.258 0.052,1.204 0.007,1.452 0.182,1.363 0.052,1.323 0.118,1.352 0.058,1.344 0.117,1.399 0.055,1.447 0.058,1.525 0.057,1.334 -0.113,1.508 -0.061,1.585 -0.048,1.412 -0.222,1.58 -0.181,1.689 -0.176,1.584 -0.176,1.635 -0.181,1.583 -0.123,1.65 -0.122,1.585 -0.062,1.533 -0.06,1.596 0.002,1.453 -0.118,1.466 -0.002,1.431 0,1.366 0.059,1.35 -10e-4,1.273 0,1.232 0.002,1.324 0.062,1.207 0.055,1.023 0,1.066 0.059,0.998 -0.002,0.836 0.002,0.822 -0.052,0.755 -0.049,0.707 -0.1,0.738 -0.064,0.478 -0.203,0.636 -0.229,0.99 -0.118,0.704 -0.176,0.763 -0.111,0.673 -0.158,0.625 -0.229,1.1 -0.043,0.609 -0.124,0.399 -0.219,0.957 -0.157,1.022 -0.053,0.715 -0.098,0.514 -0.138,0.902 -0.044,0.485 -0.169,0.779 -0.084,0.643 -0.037,0.378 -0.179,0.84 1.172,3.829 3.87,0.461 0.34,-0.123 0.356,-0.056 0.567,-0.09 0.613,-0.04 0.218,-0.003 0.687,0.064 0.973,-0.071 0.604,-0.049 0.637,10e-4 0.938,0.059 0.945,0 0.998,0.059 1.251,0 1.153,0.056 1.222,0.055 1.356,0.118 1.426,0.059 1.533,0.118 1.594,0.059 1.642,0.118 1.584,0.058 1.768,0.122 1.766,-0.058 1.641,0.058 1.824,0 1.643,-0.058 1.64,0 1.702,-0.059 1.582,0 1.764,0 1.643,-0.059 1.58,10e-4 1.873,-0.002 1.877,-0.12 1.705,-0.056 1.757,-0.059 1.931,-0.061 1.874,-0.12 1.764,-0.112 1.651,10e-4 1.876,-0.062 1.702,-0.115 1.526,0.002 1.596,-10e-4 1.327,-0.059 1.238001,0.106 1.43,0.126 1.266,-0.001 0.91,0.101 1.181,0.132 1.222,0.005 1.056,0.059 1.299,0 1.174,-0.059 1.343,-10e-4 1.6,-0.126 1.625,-0.126 1.684,-0.233 1.63,-0.107 1.817,-0.114 1.763,-0.056 1.929,-0.058 1.024,-0.03 1.131,-0.034 1.101,-0.095 0.844,-0.078 1.84,0.003 1.056,0 1.104,0 1.132,-0.03 0.991,-0.028 0.991,0.028 1.179,0.03 1.208,-0.03 1.023,-0.028 1.053,0.028 1.146,0.029 1.174,0.03 1.263,0.03 1.205,-0.031 0.976,-0.028 0.977,0.054 1.207,0.063 1.236,10e-4 1.049,-0.002 0.991,0.055 1.229,0.064 1.199,-0.031 1.007,-0.028 1.066,0 1.115,0 1.056,0 1.056,0 2.046,0 2.153,-0.065 1.936,-0.176 1.936,-0.055 1.075,-0.061 1.145,-0.068 1.777,-0.227 1.775,0.007 1.819,-0.059 1.762,0 1.932,0 1.878,-0.059 1.53,-10e-4 1.635,0.111 1.697,0.12 1.643,0.059 1.642,0.117 1.643,0.059 1.643,0.117 1.647,0.059 1.643,0.114 1.822,0.124 1.88,0.002 1.766,-0.001 1.878,0.058 1.757,0.058 1.76,0.056 1.758,0.118 1.747,0.058 1.449,0.107 1.714,0.186 1.508,0.002 1.198,0.107 1.418,0.123 1.225,0.058 1.374,0.122 1.549,0 1.291,-0.117 1.152,0.003 1.374,-0.062 1.153,-0.056 1.232,0 1.319,-0.062 1.174,-0.058 1.042,-0.055 0.914,0.057 1.335,0.002 0.958,-0.002 0.969,0.056 1.173,0.058 1.231,0.064 1.179,-0.059 0.944,0.054 1.324,0.062 1.256,10e-4 0.999,-0.004 1.174,0.117 1.289,0.005 1.206,-10e-4 1.289,-0.068 1.179,-0.118 0.979,-0.053 1.061,-0.059 1.003,-0.059 0.998,-0.059 1.011,-0.059 0.902,-0.061 0.705,-0.052 0.454,0 0.663,0.049 0.77,0.067 0.981,10e-4 0.88,0.059 1.307,-0.003 1.056,-0.118 1.063,0.005 1.426,-0.069 0.973,-0.112 0.98,0.006 0.946,-0.002 0.554,-0.06 0.326,0.072 0.568,0.104 0.52,0.104 0.447,0.099 0.505,0.125 0.587,0.118 0.637,0.151 1.013,0.106 1.339,0.002 1.366,-0.098 1.017,-0.239 -1.829,-0.503 -0.288,-5.304 2.993,-0.018 -1.552,0.733 -1.811,-0.244 -0.01,0.009 0.066,1.985 -0.026,2.024 4.635,1.038 -0.639,-6.36 -3.237,-0.151 -0.391,0.113 -0.512,0.019 -0.773,0.002 -0.16,-0.011 -0.302,-0.084 -0.587,-0.117 -0.433,-0.109 -0.609,-0.135 -0.653,-0.131 -0.723,-0.131 -1.199,-0.163 -1.089,0.058 -0.696,-0.002 -1.367,0.005 -1.139,0.123 -1.039,0.049 -1.284,0.004 -1.056,0.117 -0.687,-0.003 -0.88,-0.059 -0.897,0.002 -0.521,-0.051 -0.979,-0.068 -0.954,0 -0.937,0.065 -0.859,0.057 -0.983,0.058 -0.998,0.059 -0.991,0.058 -1.051,0.058 -1.133,0.064 -1.168,0.117 -0.941,0.05 -1.022,-0.001 -0.941,0.004 -1.173,-0.117 -1.348,-0.005 -1.09,10e-4 -1.14,-0.055 -1.285,-0.063 -1.168,0.059 -0.882,-0.054 -1.173,-0.059 -1.143,-0.062 -1.153,-10e-4 -1.13,10e-4 -1.08,-0.06 -1.423,0.063 -1.173,0.059 -1.145,0.055 -1.232,0 -1.311,0.062 -1.208,0.055 -1.311,0.003 -1.29,0.117 -0.915,0 -1.208,-0.112 -1.239,-0.059 -1.281,-0.112 -1.5,-0.128 -1.425,0.002 -1.455,-0.166 -1.719,-0.127 -1.773,-0.06 -1.762,-0.117 -1.877,-0.061 -1.764,-0.059 -1.994,-0.06 -1.872,0 -1.639,0.002 -1.581,-0.111 -1.759,-0.121 -1.639,-0.059 -1.643,-0.117 -1.642,-0.059 -1.643,-0.117 -1.643,-0.059 -1.588,-0.114 -1.885,-0.123 -1.873,-0.002 -1.877,0.059 -1.823,-10e-4 -1.875,10e-4 -1.819,0.058 -2.097,0.007 -1.977,0.242 -0.909,0.05 -0.978,0.056 -2.054,0.062 -1.936,0.176 -1.836,0.053 -1.943,-10e-4 -1.056,0 -1.056,0 -1.115,0 -1.163,10e-4 -1.105,0.03 -0.913,0.028 -0.942,-0.054 -1.18,-0.062 -1.238,-10e-4 -1.052,10e-4 -1.023,-0.055 -1.253,-0.063 -1.252,0.03 -1.025,0.028 -1.084,-0.028 -1.172,-0.03 -1.143,-0.029 -1.235,-0.03 -1.206,0.03 -1.021,0.028 -0.992,-0.028 -1.18,-0.03 -1.18,0.03 -1.038,0.029 -1.009,-10e-4 -1.056,0 -2.148,0.004 -1.151,0.098 -0.894,0.08 -0.923,0.025 -1.029,0.03 -1.943,0.058 -1.875,0.061 -1.937,0.121 -1.89,0.128 -1.72,0.237 -1.425,0.108 -1.333,0.109 -1.238,-0.002 -1.174,0.059 -0.93,0 -1.056,-0.058 -1.007,0.004 -0.814,-0.101 -1.319,-0.134 -1.316,-0.002 -1.151,-0.108 -1.695,-0.129 -1.606001,0.058 -1.456,0 -1.759,0.002 -1.818,0.119 -1.644,0.055 -1.752,0.001 -1.99,0.123 -1.764,0.114 -1.823,0.057 -1.764,0.059 -1.814,0.061 -1.761,0.115 -1.647,-0.002 -1.705,0 -1.643,0.059 -1.639,-0.001 -1.703,0.001 -1.701,0.059 -1.645,0 -1.643,0.058 -1.578,0 -1.762,-0.059 -1.637,0.059 -1.518,-0.112 -1.584,-0.059 -1.642,-0.117 -1.575,-0.059 -1.517,-0.116 -1.391,-0.058 -1.343,-0.117 -1.359,-0.062 -1.311,-0.062 -1.213,0.001 -0.997,-0.059 -0.932,0 -0.939,-0.059 -1.124,10e-4 -0.921,0.069 -0.317,0.046 -0.37,-0.053 -0.838,-0.004 -1.146,0.078 -0.959,0.145 -0.935,0.178 -0.716,0.23 2.696,0.812 1.29,2.656 0.173,-0.803 0.08,-0.678 0.034,-0.295 0.183,-0.864 0.073,-0.688 0.097,-0.624 0.137,-0.777 0.064,-0.81 0.077,-0.503 0.133,-0.569 0.229,-0.891 0.074,-0.799 0.123,-0.543 0.194,-0.783 0.123,-0.735 0.176,-0.763 0.118,-0.704 0.123,-0.535 0.266,-0.889 0.17,-1.048 0.135,-1.021 0.068,-0.937 0.065,-1.004 0.002,-1.055 -10e-4,-1.042 -0.059,-0.997 0,-1.045 -0.062,-1.207 -0.055,-1.023 10e-4,-1.14 0,-1.232 0,-1.425 -0.059,-1.35 10e-4,-1.214 -0.003,-1.151 0.117,-1.467 0.002,-1.598 0.057,-1.455 0.055,-1.4 0.114,-1.466 0.111,-1.518 0.171,-1.468 0.176,-1.65 0.176,-1.584 0.171,-1.597 0.247,-1.822 0.07,-1.757 0.056,-1.465 0.122,-1.777 -0.061,-1.718 -0.059,-1.525 -0.062,-1.603 -0.118,-1.417 -0.059,-1.356 -0.117,-1.346 -0.065,-1.493 -0.171,-1.218 0.008,-1.13 -0.065,-1.495 -0.13,-1.558 -0.177,-1.356 -0.109,-1.262 -0.124,-1.533 -0.175,-1.397 -0.109,-1.496 -0.118,-1.584 -0.112,-1.512 -0.058,-1.802 -0.115,-1.762 0.002,-1.706 -0.001,-1.93 -0.058,-1.884 0.058,-1.883 0,-2.043 -0.058,-1.819 0.059,-1.768 -0.059,-1.643 0.059,-1.76 -0.059,-1.638 0.058,-1.581 0.001,-1.705 0,-1.525 -0.001,-1.583 0.057,-1.641 0.06,-1.761 10e-4,-1.703 -10e-4,-1.641 0.055,-1.585 0.12,-1.821 0.002,-1.935 0,-1.819 0,-1.76 -0.001,-1.697 0.057,-1.58 0.059,-1.647 0.059,-1.762 0.058,-1.695 0.056,-1.524 0.118,-1.706 0.055,-1.642 0.172,-1.645 0.122,-1.828 0.113,-1.755 0.176,-1.708 0.119,-1.952 0.172,-1.83 0.089,-1.007 0.088,-1.002 0.089,-1.031 0.087,-1.022 0.088,-0.993 0.088,-0.997 0.088,-0.998 0.077,-0.896 0.134,-0.897 0.158,-1.083 0.185,-1.899 0.176,-1.766 0.182,-1.938 0.124,-1.926 0.062,-1.931 -10e-4,-1.992 -0.123,-1.876 -0.123,-1.831 -0.181,-1.694 -0.162,-1.633 0.002,-1.54 -0.115,-1.503 0.107,-1.217 0.094,-1.424 0.259,-1.204 0.258,-1.371 0.397,-1.293 0.266,-1.194 0.448,-1.252 0.189,-1.285 0.321,-1.009 0.032,-0.755 0.249,-0.537 0.146,-0.829 0.138,-0.419 0.319,-2.296 -4.341,-3.698 -1.697,2.652 1.423,1.798 z"
       id="path9"
       inkscape:connector-curvature="0"
       style="fill:#000000;stroke:none" />
    <path
       __timestamp="0x14bc21e626c"
       __comx="259.830"
       __comy="383.185"
       d="m 71.105229,859.99575 0.779,-0.604 1.448,1.402 -1.548,1.371 1.683,-0.12 2.241,-0.864 0.351,-0.446 0.908,-0.206 0.995,-0.845 1.161,-0.505 1.346,-1.031 1.582,-0.785 1.134,-0.792 0.685,-0.498 0.879,-0.428 1.222,-0.614 1.249,-0.734 1.053,-0.622 1.226,-0.626 1.371,-0.701 1.429,-0.79 1.363,-0.754 1.452,-0.784 1.455,-0.786 1.426,-0.756 1.527,-0.812 1.584001,-0.961 1.487,-0.904 1.458,-0.875 1.45,-0.87 1.538,-0.9 1.615,-0.945 1.526,-0.976 1.374,-0.881 1.49,-0.826 1.635,-0.909 1.517,-0.909 1.398,-0.84 1.397,-0.754 1.459,-0.788 1.312,-0.699 1.294,-0.69 1.235,-0.632 1.175,-0.603 0.969,-0.429 1.022,-0.455 1.702,-0.714 1.469,-0.529 1.075,-0.455 0.661,-0.219 0.472,-0.128 0.261,-0.062 0.272,-0.026 0.628,-0.046 0.408,-0.01 -0.027,-0.023 -0.403,-0.231 -0.133,-0.045 0.407,0.575 0.407,0.63 0.64,0.727 0.47,0.598 0.678,0.686 0.539,0.594 0.676,0.732 0.769,0.887 0.751,0.799 0.727,0.954 0.821,0.939 0.7,0.918 0.893,1.147 0.921,1.054 0.842,0.907 0.902,0.893 1.066,0.843 1.012,0.697 1.241,0.655 1.593,0.467 1.3,0.036 1.076,-0.085 1.449,-0.32 1.31,-0.735 0.901,-0.538 0.825,-0.662 0.896,-0.698 0.706,-0.7 0.824,-0.702 0.64,-0.699 0.656,-0.601 0.916,-0.853 0.866,-0.926 0.831,-0.831 1.074,-0.966 1.332,-1.147 1.123,-1.185 1.25,-0.979 1.437,-1.188 1.256,-1.136 1.098,-0.943 1.122,-0.828 0.908,-0.785 0.666,-0.51 0.54,-0.411 0.434,-0.255 0.587,-0.352 0.763,-0.461 0.527,-0.262 0.292,-0.147 -0.987,0.065 -1.35,-0.515 -0.149,-0.012 0.482,0.721 0.663,0.866 0.318,0.402 0.226,0.354 0.326,0.662 0.356,0.687 0.253,0.838 0.386,1.264 0.364,1.394 0.498,1.499 0.462,1.444 0.435,1.362 0.548,1.458 0.806,1.393 1.244,1.321 2.116,0.958 1.834,-0.095 1.094,-0.356 1.113,-0.565 0.9,-0.681 0.546,-0.485 0.665,-0.537 0.545,-0.55 0.333,-0.247 0.883,-0.511 0.603,-0.499 0.715,-0.366 0.925,-0.604 1.207,-0.581 1.28,-0.927 1.297,-0.808 1.293,-1.041 1.431,-0.972 1.524,-1.172 1.77,-1.211 0.992,-0.906 0.772,-0.714 0.83,-0.744 0.766,-0.689 0.882,-0.693 0.993,-0.783 0.993,-0.812 1.016,-0.831 1.014,-0.891 0.93,-0.818 0.988,-0.818 1.052,-0.872 1.081,-0.931 1.099,-0.946 1.127,-1.035 1.105,-1.016 1.134,-1.074 1.149,-1.089 1.177,-1.177 1.144,-1.144 1.174,-1.174 1.202,-1.202 1.26,-1.32 1.218,-1.276 1.247,-1.276 1.304,-1.334 1.244,-1.365 1.147,-1.261 1.175,-1.174 1.202,-1.202 1.201,-1.144 1.214,-1.155 1.155,-1.068 1.154,-1.068 1.124,-1.009 1.099,-0.987 1.04,-0.871 1.05,-0.88 0.962,-0.763 1.062,-0.845 1.002,-0.876 0.89,-0.779 0.89,-0.722 0.934,-0.759 0.904,-0.729 0.961,-0.776 0.959,-0.835 0.926,-0.806 0.837,-0.748 0.845,-0.754 0.816,-0.755 0.714,-0.664 0.743,-0.608 0.95,-0.786 1.352,-1.348 1.268,-1.149 1.014,-1.072 0.718,-0.665 0.685,-0.62 -2.667,0.126 -2.435,-3.355 -0.021,-0.406 0.365,-0.04 -0.463,-0.06 -0.036,0.927 0.505,1.188 -0.466,1.586 0.002,0.014 1.059,1.352 1.913,0.836 0.904,-0.129 1.531,-0.764 1.069,-2.035 0.566,-1.463 -2.67,-4.41 -4.075,1.652 -0.489,0.435 -0.924,0.86 -0.981,1.041 -1.196,1.08 -1.23,1.233 -0.692,0.563 -0.9,0.742 -0.869,0.803 -0.769,0.712 -0.798,0.712 -0.805,0.719 -0.893,0.778 -0.859,0.749 -0.858,0.691 -0.915,0.737 -0.943,0.767 -0.988,0.803 -0.987,0.863 -0.876,0.768 -0.932,0.739 -1.033,0.821 -1.121,0.938 -1.131,0.948 -1.188,1.066 -1.164,1.045 -1.193,1.103 -1.192,1.103 -1.25,1.19 -1.263,1.203 -1.262,1.262 -1.289,1.291 -1.258,1.379 -1.161,1.275 -1.219,1.247 -1.276,1.305 -1.246,1.306 -1.204,1.261 -1.145,1.145 -1.173,1.173 -1.144,1.144 -1.111,1.111 -1.08,1.023 -1.096,1.038 -1.065,0.979 -1.044,0.96 -1.013,0.872 -1.031,0.888 -1.001,0.829 -1.066,0.883 -1.006,0.884 -0.922,0.811 -0.92,0.752 -0.943,0.772 -0.943,0.743 -1.054,0.833 -0.935,0.835 -0.872,0.782 -0.812,0.752 -0.592,0.562 -1.516,1.018 -1.526,1.174 -1.502,1.023 -1.172,0.954 -1.166,0.717 -0.95,0.716 -1.022,0.475 -1.07,0.687 -1.045,0.573 -0.688,0.556 -0.76,0.428 -1.075,0.809 -0.628,0.623 -0.509,0.402 -0.509,0.454 -0.156,0.141 -0.06,0.02 0.037,-0.003 0.896,0.022 0.943,0.372 0.187,0.147 -0.133,-0.249 -0.272,-0.772 -0.387,-1.219 -0.477,-1.49 -0.441,-1.317 -0.339,-1.305 -0.436,-1.434 -0.451,-1.392 -0.583,-1.19 -0.495,-0.981 -0.596,-0.937 -0.503,-0.653 -0.51,-0.66 -0.457,-0.687 -1.204,-1.42 -2.407,-0.984 -1.925,0.3 -0.999,0.439 -0.881,0.442 -0.997,0.595 -0.586,0.352 -0.739,0.449 -0.868,0.645 -0.86,0.664 -0.852,0.74 -1.107,0.815 -1.367,1.169 -1.208,1.093 -1.261,1.041 -1.567,1.251 -1.223,1.279 -1.132,0.965 -1.273,1.146 -1.047,1.046 -0.776,0.834 -0.727,0.673 -0.869,0.806 -0.533,0.593 -0.702,0.588 -0.585,0.591 -0.629,0.475 -0.466,0.395 -0.507,0.283 -0.215,0.203 0.158,-0.085 -0.449,0.032 0.01,0.037 0.067,-0.003 -0.285,-0.166 -0.513,-0.36 -0.577,-0.447 -0.506,-0.515 -0.683,-0.736 -0.722,-0.823 -0.749,-0.966 -0.826,-1.076 -0.821,-0.939 -0.799,-1.04 -0.892,-0.961 -0.756,-0.873 -0.732,-0.793 -0.634,-0.697 -0.496,-0.488 -0.351,-0.458 -0.416,-0.446 -0.179,-0.309 -0.767,-1.067 -1.189,-1.219 -1.693,-0.818 -1.436,-0.257 -1.235,-0.01 -1.015,0.071 -0.783,0.092 -0.795,0.172 -0.819,0.224 -1.099,0.368 -1.154,0.484 -1.464,0.527 -1.937,0.811 -1.09,0.484 -1.143,0.509 -1.347,0.688 -1.288,0.659 -1.346,0.718 -1.328,0.708 -1.475,0.797 -1.536,0.83 -1.535,0.92 -1.416,0.851 -1.534,0.851 -1.678,0.934 -1.559,0.996 -1.407,0.902 -1.495,0.873 -1.572,0.919 -1.483,0.89 -1.475001,0.886 -1.505,0.914 -1.408,0.858 -1.348,0.713 -1.449,0.769 -1.478,0.798 -1.482,0.801 -1.394,0.771 -1.328,0.735 -1.27,0.648 -1.413,0.724 -1.236,0.727 -1.038,0.615 -1.008,0.502 -1.35,0.686 -1.134,0.793 -0.685,0.498 -1.703,0.859 -1.235,0.963 -1.421,0.669 -0.53,0.562 -1.204,0.381 -0.587,0.61 0.01,-0.043 0.041,0.115 -3.074,1.136 1.801,2.811 0.544,0.569 z"
       id="path11"
       inkscape:connector-curvature="0"
       style="fill:#ff0000;stroke:none" />
    <path
       __timestamp="0x14bc21e6c66"
       __comx="251.331"
       __comy="355.436"
       d="m 76.736229,770.40475 -0.78,-1.659 -1.931,2.262 0.271,1.317 0.556,1.61 1.165,1.621 1.62,1.665 0.839,0.588 1.3,1.152 1.338,0.853 0.766,0.57 0.965,0.71 1.66,1.07 0.956,0.685 1.015,0.724 0.956,0.696 1.018,0.739 1.224,0.827 1.19,0.804 1.132,0.744 1.139,0.75 1.228,0.778 1.16,0.736 1.132,0.764 1.237,0.834 1.355,0.832 1.259001,0.773 1.201,0.772 1.239,0.797 1.298,0.825 1.309,0.833 1.25,0.775 1.19,0.736 1.249,0.823 1.323,0.872 1.294,0.813 1.181,0.74 1.123,0.796 1.219,0.862 1.248,0.862 1.188,0.82 1.072,0.789 1.154,0.851 1.096,0.761 1.01,0.701 0.982,0.73 0.93,0.688 0.727,0.627 0.91,0.776 0.911,0.686 0.756,0.566 1.267,1.048 1.348,1.134 1.202,0.766 1.161,0.846 1.411,0.64 1.393,0.466 1.416,0.131 1.467,-0.037 1.431,-0.404 1.019,-0.425 0.871,-0.464 1.049,-0.54 0.786,-0.58 0.787,-0.447 0.853,-0.607 0.853,-0.511 1.047,-0.718 0.765,-0.555 0.999,-0.462 1.29,-0.645 1.202,-0.572 1.198,-0.571 1.027,-0.464 0.798,-0.299 0.679,-0.155 0.304,-0.061 -0.026,-0.009 -0.261,-0.063 0.236,0.139 0.371,0.228 0.387,0.439 0.179,0.236 0.182,0.377 0.169,0.483 0.223,0.853 0.201,1.063 0.215,1.34 0.164,1.428 0.174,1.681 0.175,1.696 0.166,1.642 0.059,1.649 0.196,1.905 0.25,1.633 0.26,1.547 0.335,1.413 0.31,1.119 0.442,1.48 0.531,0.96 0.352,0.763 0.673,1.13 0.627,0.741 0.59,0.658 1.168,1.086 1.321,0.927 1.464,0.633 1.22,0.266 1.807,-0.006 1.068,-0.24 0.821,-0.176 1.017,-0.254 1.218,-0.321 0.998,-0.321 1.016,-0.187 1.138,-0.21 1.019,-0.099 1.033,-0.102 0.89,0.049 1.015,0.108 0.687,0.045 0.941,0.366 0.969,0.189 0.621,0.318 0.853,0.398 1.105,0.641 0.946,0.355 0.575,0.423 0.884,0.622 0.796,0.649 0.922,0.807 0.927,0.765 0.805,0.865 1.073,1.013 1.056,0.997 0.998,0.939 0.98,0.923 0.867,0.923 0.941,1 1.111,1.171 0.849,0.728 0.641,0.902 1.071,1.284 0.931,0.813 0.727,0.901 0.898,0.842 0.658,0.716 0.636,0.637 0.983,0.943 0.954,0.586 0.587,0.411 0.983,0.571 0.84,0.387 0.856,0.367 0.956,0.406 1.146,0.383 0.787,0.187 0.939,0.41 1.028,0.264 0.912,0.344 0.981,0.265 0.66,0.204 0.716,0.238 0.796,0.235 0.639,0.13 0.88,0.235 0.483,0.091 -0.413,-0.229 -0.276,-0.156 0.658,0.847 0.698,0.579 0.391,0.45 0.518,0.512 0.487,0.611 0.639,0.965 0.485,0.691 0.532,0.682 0.983,1.117 0.781,0.835 0.794,0.965 0.327,0.35 0.293,0.47 0.525,0.6 0.267,0.391 0.402,0.6 0.331,0.412 0.225,0.42 0.483,0.727 0.785,1.049 0.894,1.112 1.128,0.987 1.03,0.805 1.077,0.678 1.15,0.713 0.993,0.372 0.395,0.204 0.512,0.249 0.747,0.469 1.315,0.45 -0.826,-0.564 -0.556,-3.477 2.807,-1.156 -0.336,0.944 -2.435,0.378 -0.148,0.21 0.733,2.607 1.424,1.765 4.098,-1.391 -1.377,-5.472 -1.882,-0.681 0.259,0.099 -0.309,-0.235 -0.896,-0.456 -0.778,-0.382 -0.65,-0.215 -0.493,-0.343 -0.8,-0.495 -0.613,-0.486 -0.515,-0.421 -0.396,-0.531 -0.623,-0.829 -0.221,-0.328 -0.362,-0.636 -0.491,-0.645 -0.301,-0.455 -0.555,-0.783 -0.413,-0.455 -0.294,-0.47 -0.612,-0.706 -0.849,-1.029 -0.861,-0.925 -0.777,-0.878 -0.289,-0.373 -0.337,-0.483 -0.769,-1.147 -0.921,-1.149 -0.656,-0.661 -0.665,-0.724 -0.475,-0.359 -0.397,-0.562 -1.332,-1.212 -1.47,-0.581 -0.691,-0.143 -0.88,-0.235 -0.534,-0.105 -0.377,-0.116 -0.692,-0.231 -0.865,-0.266 -0.78,-0.204 -0.964,-0.36 -0.85,-0.206 -0.938,-0.411 -1.09,-0.282 -0.615,-0.205 -0.687,-0.297 -0.786,-0.337 -0.451,-0.2 -0.425,-0.25 -0.587,-0.411 -0.454,-0.234 -0.307,-0.349 -0.538,-0.536 -0.749,-0.809 -0.745,-0.684 -0.798,-0.976 -0.947,-0.829 -0.572,-0.712 -1.001,-1.327 -1.146,-1.032 -0.883,-0.941 -0.937,-0.995 -1.01,-1.071 -1.132,-1.072 -0.998,-0.938 -1.056,-0.998 -0.921,-0.864 -0.955,-1.013 -1.185,-0.995 -0.955,-0.835 -1.081,-0.877 -1.111,-0.786 -1.303,-0.868 -1.166,-0.466 -0.89,-0.532 -1.141,-0.541 -1.374,-0.621 -1.26,-0.28 -1.289,-0.456 -1.542,-0.189 -1.215,-0.127 -1.574,-0.068 -1.548,0.133 -1.328,0.135 -1.444,0.26 -1.447,0.282 -1.231,0.383 -1.012,0.266 -0.86,0.215 -0.822,0.176 -0.34,0.112 -0.188,-0.006 0.164,0.031 -0.179,-0.071 -0.322,-0.246 -0.591,-0.557 -0.349,-0.398 -0.194,-0.198 -0.148,-0.277 -0.352,-0.763 -0.291,-0.448 -0.145,-0.632 -0.277,-0.993 -0.251,-1.051 -0.21,-1.269 -0.219,-1.418 -0.156,-1.497 -0.058,-1.637 -0.186,-1.878 -0.177,-1.707 -0.178,-1.722 -0.188,-1.622 -0.254,-1.593 -0.269,-1.402 -0.363,-1.376 -0.418,-1.16 -0.639,-1.266 -0.76,-1.055 -1.256,-1.32 -1.389,-0.946 -1.407,-0.682 -1.317,-0.298 -1.316,-0.009 -1.104,0.174 -1.316,0.314 -1.431,0.523 -1.32,0.592 -1.266,0.603 -1.263,0.601 -1.29,0.645 -1.465,0.712 -1.23,0.852 -0.831,0.574 -0.906,0.545 -0.791,0.566 -0.855,0.492 -0.622,0.475 -0.594,0.282 -0.655,0.357 -0.388,0.162 -0.094,0.065 -0.176,-0.037 -0.227,0.014 -0.25,-0.121 -0.466,-0.181 -0.716,-0.563 -1.028,-0.642 -0.998,-0.86 -1.433,-1.182 -0.886,-0.666 -0.731,-0.546 -0.734,-0.631 -0.915,-0.782 -1.124,-0.837 -1.071,-0.796 -1.102,-0.765 -1.016,-0.705 -1.075,-0.793 -1.158,-0.853 -1.276,-0.881 -1.216,-0.84 -1.187,-0.839 -1.281,-0.905 -1.343,-0.844 -1.228,-0.772 -1.259,-0.829 -1.332,-0.878 -1.274,-0.789 -1.214,-0.752 -1.272,-0.809 -1.284,-0.817 -1.225,-0.788 -1.263,-0.812 -1.322,-0.811 -1.227,-0.752 -1.11,-0.75 -1.215001,-0.82 -1.244,-0.789 -1.178,-0.747 -1.09,-0.718 -1.098,-0.721 -1.156,-0.781 -1.123,-0.757 -0.918,-0.669 -0.98,-0.712 -1.039,-0.742 -1.097,-0.783 -1.626,-1.042 -0.794,-0.58 -0.995,-0.721 -1.125,-0.673 -1.282,-1.076 -0.804,-0.468 -1.196,-0.917 -0.829,-0.491 -0.501,-0.385 -0.433,-0.443 -2.165,1.089 0.041,-0.251 z"
       id="path13"
       inkscape:connector-curvature="0"
       style="fill:#0000ff;stroke:none" />
  </g>
</svg>
