<?xml version="1.0" encoding="UTF-8" standalone="no"?>
<svg
   xmlns:dc="http://purl.org/dc/elements/1.1/"
   xmlns:cc="http://creativecommons.org/ns#"
   xmlns:rdf="http://www.w3.org/1999/02/22-rdf-syntax-ns#"
   xmlns:svg="http://www.w3.org/2000/svg"
   xmlns="http://www.w3.org/2000/svg"
   xmlns:sodipodi="http://sodipodi.sourceforge.net/DTD/sodipodi-0.dtd"
   xmlns:inkscape="http://www.inkscape.org/namespaces/inkscape"
   width="320"
   height="320"
   id="svg2"
   version="1.1"
   inkscape:version="0.48.4 r9939"
   sodipodi:docname="toolbox.svg">
  <metadata
     id="metadata79">
    <rdf:RDF>
      <cc:Work
         rdf:about="">
        <dc:format>image/svg+xml</dc:format>
        <dc:type
           rdf:resource="http://purl.org/dc/dcmitype/StillImage" />
      </cc:Work>
    </rdf:RDF>
  </metadata>
  <sodipodi:namedview
     pagecolor="#ffffff"
     bordercolor="#666666"
     borderopacity="1"
     objecttolerance="10"
     gridtolerance="10"
     guidetolerance="10"
     inkscape:pageopacity="0"
     inkscape:pageshadow="2"
     inkscape:window-width="640"
     inkscape:window-height="423"
     id="namedview77"
     showgrid="false"
     inkscape:zoom="0.23935091"
     inkscape:cx="303.5"
     inkscape:cy="493"
     inkscape:window-x="565"
     inkscape:window-y="115"
     inkscape:window-maximized="0"
     inkscape:current-layer="svg2" />
  <defs
     id="defs4">
    <style
       type="text/css"
       id="style6"> 
  path { stroke-linecap: round; stroke-linejoin: round; }
  .ruleline { shape-rendering: crispEdges; }
</style>
  </defs>
  <g
     id="page_1"
     width="607.000"
     height="986.000"
     xruling="0.000"
     yruling="0.000"
     marginLeft="0.000"
     papercolor="#FFFFFF"
     rulecolor="#FF0000FF"
     transform="matrix(0.67397031,0,0,0.52689047,-35.824116,-118.88045)">
    <path
       __timestamp="0x14bc2231662"
       __comx="243.167"
       __comy="400.527"
       d="m 244.483,400.686 0.851,-0.939 -0.289,-1.811 -0.463,-1.383 -1.069,-1.348 -1.743,-1.067 -2.725,-0.387 -0.831,0.309 -1.169,0.006 -1.165,0.554 -1.454,0.443 -1.134,0.817 -1.446,0.79 -1.362,1.372 -1.314,1.274 -1.099,1.612 -1.19,1.549 -0.62,1.236 -0.364,0.762 -1.017,1.68 -0.532,1.155 -0.361,0.805 -1.029,1.765 -0.485,1.169 -0.358,0.881 -0.798,1.788 -0.679,1.963 -0.514,1.96 -0.165,1.983 0.026,1.87 0.49,1.971 0.683,1.751 1.032,1.618 1.015,1.304 1.335,1.399 1.484,1.107 1.712,1.034 1.733,0.732 1.995,0.701 1.951,0.372 2.138,0.27 2.101,0.007 2.141,-0.006 1.202,-0.136 1.156,-0.139 2.205,-0.466 2.084,-0.586 2.145,-0.741 1.972,-0.915 1.938,-0.973 1.726,-1.059 1.652,-1.126 1.421,-1.148 1.431,-1.299 1.348,-1.489 1.133,-1.527 1.09,-1.579 0.885,-1.687 0.784,-1.574 0.718,-1.819 0.631,-1.709 0.566,-1.865 0.29,-1.825 0.203,-1.674 -10e-4,-1.911 -0.247,-1.861 -0.558,-1.847 -0.688,-1.531 -0.748,-1.54 -0.981,-1.381 -1.025,-1.293 -1.173,-1.245 -1.241,-1.161 -1.389,-1.006 -1.476,-0.847 -1.548,-0.76 -1.864,-0.554 -1.829,-0.353 -1.974,-0.209 -2.003,-0.005 -1.982,0.065 -2.052,0.192 -1.836,0.244 -1.727,0.238 -1.562,0.232 -1.553,0.198 -0.685,0.194 -2.796,0.588 -0.146,0.624 1.513,-0.566 -0.518,6.736 3.038,-0.448 0.206,-0.667 -0.683,0.706 1.309,-0.277 1.263,-0.153 1.606,-0.238 1.676,-0.231 1.684,-0.225 1.703,-0.161 1.655,-0.052 1.517,-0.004 1.312,0.142 1.221,0.234 0.952,0.267 0.8,0.414 0.988,0.561 0.722,0.519 0.754,0.717 0.821,0.867 0.736,0.936 0.544,0.731 0.425,0.924 0.485,1.051 0.264,0.851 0.105,0.838 -0.001,1.022 -0.149,1.142 -0.179,1.226 -0.373,1.185 -0.542,1.46 -0.573,1.466 -0.625,1.242 -0.64,1.246 -0.787,1.12 -0.862,1.173 -0.881,0.974 -1.033,0.93 -1.043,0.847 -1.281,0.869 -1.326,0.818 -1.581,0.787 -1.548,0.728 -1.61,0.549 -1.671,0.471 -1.667,0.356 -0.838,0.094 -0.793,0.1 -1.732,-0.006 -1.653,0.007 -1.5,-0.2 -1.217,-0.215 -1.29,-0.471 -1.083,-0.442 -0.987,-0.608 -0.745,-0.536 -0.66,-0.714 -0.627,-0.807 -0.494,-0.729 -0.256,-0.713 -0.214,-0.728 0.026,-0.711 0.07,-1.068 0.307,-1.091 0.495,-1.44 0.727,-1.615 0.405,-0.996 0.278,-0.708 0.965,-1.638 0.519,-1.131 0.349,-0.781 0.977,-1.605 0.516,-1.058 0.26,-0.582 0.922,-1.15 0.779,-1.204 0.915,-0.838 0.633,-0.74 1.018,-0.5 0.508,-0.475 1.01,-0.26 0.244,-0.268 0.942,0.006 0.343,-0.277 -0.261,-0.035 0.486,-0.011 0.808,0.06 1.063,0.142 1.002,-0.402 0.499,0.233 z"
       id="path9"
       inkscape:connector-curvature="0"
       style="fill:#000000;stroke:none" />
    <path
       __timestamp="0x14bc2231aed"
       __comx="277.611"
       __comy="398.700"
       d="m 272.755,395.349 1.574,-2.512 -1.229,-1.787 -2.426,-0.979 -3.26,1.104 -0.475,0.692 -0.823,0.408 -0.862,1.279 -0.754,0.834 -0.699,1.409 -0.775,1.079 -0.728,1.557 -0.831,1.426 -0.718,1.611 -0.81,1.445 -0.751,1.622 -0.776,1.613 -0.68,1.544 -0.706,1.676 -0.53,1.581 -0.483,1.613 -0.316,1.919 -0.004,1.816 0.239,1.752 0.446,1.652 0.617,1.677 0.78,1.439 0.731,1.279 0.902,1.511 1.012,1.295 0.76,0.976 0.857,1.22 1.076,1.291 1.132,1.134 1.249,1.08 1.479,0.929 1.22,0.74 1.731,0.824 1.576,0.51 1.641,0.458 1.614,0.337 1.606,0.248 1.731,0.266 1.953,0.005 1.733,-0.203 1.79,-0.281 1.775,-0.492 1.575,-0.549 1.613,-0.702 1.647,-0.905 1.49,-1.109 1.184,-1.044 1.341,-1.357 1.082,-1.528 0.851,-1.434 0.914,-1.642 0.586,-1.603 0.719,-1.602 0.449,-1.867 0.379,-1.652 0.281,-1.846 0.074,-1.804 -0.147,-1.988 -0.356,-1.868 -0.466,-1.672 -0.576,-1.791 -0.734,-1.928 -0.873,-1.816 -0.763,-1.643 -0.867,-1.794 -0.832,-1.547 -0.879,-1.731 -1.146,-1.596 -1.264,-1.542 -1.45,-1.157 -1.455,-0.982 -1.808,-0.839 -1.772,-0.636 -1.826,-0.461 -2.007,-0.472 -1.853,-0.13 -1.633,-0.299 -1.845,-0.08 -1.724,0 -1.626,0.07 -1.868,0.246 -1.532,0.472 -1.837,0.565 -0.74,0.614 -2.537,1.117 -0.801,2.262 1.719,0.766 2.983,0.994 2.188,-0.642 -0.801,1.206 -0.072,0.765 1.137,-0.794 0.744,-0.139 1.05,-0.349 0.948,-0.107 1.19,-0.047 1.444,0 1.206,0.038 1.535,0.287 1.667,0.105 1.395,0.35 1.459,0.36 1.163,0.42 1.007,0.451 0.775,0.543 0.662,0.486 0.614,0.805 0.73,0.986 0.647,1.32 0.81,1.503 0.776,1.609 0.763,1.642 0.769,1.587 0.557,1.475 0.48,1.494 0.356,1.262 0.23,1.183 0.087,1.18 -0.042,1.012 -0.189,1.204 -0.325,1.399 -0.255,1.184 -0.572,1.213 -0.469,1.331 -0.612,1.057 -0.675,1.147 -0.56,0.819 -0.771,0.755 -0.81,0.716 -0.857,0.65 -0.935,0.504 -1.086,0.471 -1.123,0.39 -1.159,0.329 -1.26,0.188 -1.201,0.15 -0.981,0.005 -1.201,-0.204 -1.445,-0.221 -1.202,-0.249 -1.293,-0.364 -1.005,-0.311 -0.968,-0.468 -0.892,-0.55 -0.986,-0.596 -0.628,-0.563 -0.745,-0.743 -0.684,-0.821 -0.786,-1.127 -0.882,-1.136 -0.748,-0.935 -0.624,-1.07 -0.677,-1.185 -0.511,-0.907 -0.321,-0.905 -0.258,-0.93 -0.114,-0.829 -0.003,-0.765 0.154,-0.898 0.337,-1.085 0.41,-1.235 0.584,-1.375 0.611,-1.389 0.749,-1.556 0.657,-1.428 0.832,-1.489 0.69,-1.556 0.812,-1.39 0.564,-1.259 0.749,-1.034 0.475,-1.055 0.654,-0.691 -0.041,-0.246 0.703,-0.297 0.228,-0.481 -1.265,0.401 -0.901,-0.393 0.063,-0.614 2.395,-0.399 z"
       id="path11"
       inkscape:connector-curvature="0"
       style="fill:#000000;stroke:none" />
    <path
       __timestamp="0x14bc2231f25"
       __comx="272.523"
       __comy="410.711"
       d="m 272.68,412.711 -0.336,-0.804 1.917,0.273 -1.533,2.629 -1.779,-0.257 -0.139,-5.592 4.678,1.094 -0.49,2.881 -2.414,1.404 0.029,0.033 -1.203,-1.072 -0.353,-2.992 0.453,-0.781 -0.398,0.182 -0.145,0.148 -3.19,3.25 4.647,3.865 1.637,-2.829 -0.263,-1.831 -0.009,-0.01 -1.553,-0.656 -0.592,-1.539 3.121,3.396 -1.313,2.898 1.029,-0.556 0.775,-0.405 2.096,-2.072 -0.353,-4.283 -2.846,-1.541 -1.379,-0.202 -3.47,1.522 -0.255,3.937 5.382,2.15 -0.843,-6.883 -3.305,0.212 -2.589,3.099 4.029,1.916 0.955,-0.57 z"
       id="path13"
       inkscape:connector-curvature="0"
       style="fill:#000000;stroke:none" />
    <path
       __timestamp="0x14bc22322c6"
       __comx="235.896"
       __comy="410.331"
       d="m 236.118,411.779 0.369,0.351 1.364,0.913 -0.042,0.277 -3.656,-0.136 -0.911,-1.505 -0.016,-0.358 0.239,-0.389 0.488,-0.48 0.768,-0.177 1.771,0.791 0.878,2.399 -0.386,1.11 0.376,-0.252 0.05,-0.014 0.167,-0.049 -0.644,0.019 -1.76,-0.918 -0.758,-2.244 -0.009,-0.434 1.919,-1.123 2.121,0.029 -2.372,2.654 -0.007,0.012 -1.316,3.241 3.294,0.849 2.622,-2.531 0.696,-1.842 -0.992,-3.299 -3.169,-1.388 -1.582,0.254 -0.889,0.303 -1.124,0.572 -1.853,1.508 -1.325,2.635 1.23,3.573 3.179,1.144 2.411,-0.647 2.013,-1.771 0.826,-2.149 0.101,-1.883 -1.263,-2.561 -4.829,-0.489 -0.16,1.451 0.426,1.03 0.369,1.524 z"
       id="path15"
       inkscape:connector-curvature="0"
       style="fill:#000000;stroke:none" />
    <path
       __timestamp="0x14bc22331b5"
       __comx="263.838"
       __comy="442.593"
       d="m 201.471,442.367 1.189,0.77 -0.787,2.391 0.481,-0.065 0.824,0.048 0.289,-0.036 1.012,0.126 0.802,-0.111 1.217,0.178 1.41,-0.12 1.611,-0.002 1.578,-0.179 2.024,-0.066 1.755,-0.293 0.816,-0.015 1.207,-0.036 1.176,-0.132 0.877,-0.103 0.906,-0.022 1.056,-0.029 1.056,-0.03 0.907,-0.028 0.879,0.053 1.023,0.059 1.992,0.117 2.045,0.12 1.987,0.06 2.048,0.06 1.936,0 2.1,0.059 2.085,-0.123 1.047,-0.058 1.059,-0.059 1.029,-0.059 0.976,-0.056 1.005,-0.027 1.107,-0.031 1.078,-0.062 0.927,-0.054 1.044,10e-4 1.144,0 1.027,0 1.026,0 1.886,-10e-4 1.877,0.117 1.873,0.001 1.878,0.059 1.932,0 1.819,0 1.924,-10e-4 1.936,-0.118 1.658,0.002 1.878,0.058 1.873,0 1.7,0.057 1.825,0.061 1.574,-0.059 1.475,0.059 1.478,-0.059 1.352,0 1.35,-0.059 1.57,0 1.643,-0.059 1.702,-0.004 1.701,-0.176 1.58,0.005 1.701,0 1.58,-10e-4 1.57,0.057 1.312,0.054 1.205,0.11 1.366,0.124 1.391,0.066 1.356,0 1.28,0.056 1.542,0.061 1.596,10e-4 1.641,-10e-4 1.701,0.059 1.641,-10e-4 1.585,0.111 1.672,0.11 1.583,0.185 1.449,-0.001 1.349,0.176 1.127,-0.003 1.114,0.176 1.286,0.009 1.107,0.06 1.289,-0.077 0.815,-0.117 0.749,-0.042 0.945,0 0.939,-0.059 0.88,0 1.063,-0.065 0.578,-0.051 0.504,0.049 0.739,0.056 0.621,0.057 0.46,0.037 0.744,0.136 0.797,0.012 0.745,0.064 0.663,-0.065 0.445,0 -2.512,-2.015 -0.338,-2.407 -0.509,1.449 -0.25,1.525 -0.064,0.746 -0.12,0.909 -0.068,0.995 -0.05,0.765 -0.101,0.749 -0.085,0.627 -0.163,0.639 -0.041,0.352 -0.179,0.365 -0.319,1.084 -0.19,0.731 -0.29,0.753 -0.257,0.932 1.533,-1.637 2.109,-0.544 -1.135,-0.302 -0.966,-0.024 -0.997,-0.176 -0.892,-0.013 -0.588,0.002 -0.88,-0.059 -0.821,0 -1.085,-0.06 -1.004,0.118 -0.632,-0.054 -1.009,-0.059 -0.975,-0.053 -1.125,-0.118 -1.265,-0.065 -0.942,-0.045 -1.182,-0.177 -1.333,-0.067 -1.45,-0.125 -1.508,0.058 -1.197,0 -1.35,-0.058 -1.498,0 -1.338,0.058 -1.394,-0.058 -1.346,0 -1.332,-0.057 -1.347,-0.058 -1.425,-0.061 -1.411,0 -1.408,-0.059 -1.422,-0.001 -1.481,0.001 -1.478,0.061 -1.467,0.059 -1.575,0.069 -1.291,0.176 -1.171,0.046 -1.276,-10e-4 -1.501,0.003 -1.198,0.114 -1.118,-0.109 -1.443,-0.066 -1.356,0 -1.335,-0.056 -1.408,-0.059 -1.481,-0.061 -1.665,0 -1.525,0.059 -1.268,0 -1.408,-0.059 -1.408,0 -1.234,-0.051 -1.088,-0.11 -1.291,-0.117 -0.97,-0.092 -1.042,-0.223 -1.32,-0.19 -1.126,-0.178 -1.304,-0.178 -1.097,-0.164 -1.462,-0.259 -1.313,-0.072 -1.177,-0.117 -1.314,-0.064 -1.198,-0.062 -1.412,0 -1.256,0.062 -1.328,0.064 -1.032,0.112 -1.028,-0.003 -1.056,0.059 -0.867,-10e-4 -1.212,-0.059 -1.148,0.06 -0.9,-0.002 -1.086,0.001 -1.077,-0.055 -1.143,-0.062 -1.168,0 -0.997,-0.058 -1.062,0 -0.953,-0.055 -1.094,-0.063 -0.874,10e-4 -0.829,-0.054 -1.048,-0.064 -0.88,0 -1.048,-0.06 -1.048,0.06 -0.932,0 -1.1,0.063 -1.004,0.059 -0.939,0.059 -1.081,0.065 -1.056,0.117 -0.805,0.048 -1.099,0.004 -0.997,0.118 -0.843,-0.005 -0.83,0.057 -0.582,-0.04 -0.626,-0.092 -1.028,-0.181 -1.038,-0.131 -0.892,-0.102 -0.96,-0.18 -1.244,-0.133 -1.046,-0.117 -1.249,-0.133 -1.25,-0.005 -0.88,0 -0.88,0 -0.88,0 -0.821,0 -0.645,0 -0.82,0.004 -0.587,0.059 -0.412,-0.005 -0.587,0 -0.586,0 -0.703,0.005 -0.428,0.054 -0.471,-0.055 -0.431,0.01 -0.819,-0.128 -0.727,0.056 -0.413,-0.055 -0.761,-0.004 -0.637,0.002 -0.939,0.058 -0.829,-0.001 -0.469,0 -0.998,0 -0.997,0 -0.821,0 2.634,2.001 -0.283,3.446 0.516,-0.341 1.287,-1.572 0.579,-1.465 0.215,-0.715 0.138,-0.519 0.275,-0.709 0.248,-0.803 0.268,-0.748 0.306,-0.856 0.16,-0.507 0.293,-0.587 -0.03,-3.624 -4.418,-1.767 -1.828,1.02 -2.021,3.645 4.927,3.495 2.159,-3.226 -0.726,-2.58 -0.012,-0.007 -2.251,0.119 -0.188,-1.231 3.05,2.674 -0.73,2.705 -0.772,0.199 -3.245,-1.532 -0.382,-2.568 -0.294,0.586 -0.309,0.902 -0.281,0.786 -0.319,0.895 -0.221,0.723 -0.311,0.816 -0.215,0.772 -0.137,0.458 -0.007,0.178 0.113,-0.164 -0.539,0.362 -1.34,4.737 3.691,2.002 0.821,0 0.997,0 0.998,0 0.469,0 1.048,-0.002 0.939,-0.059 0.418,0.002 0.413,-0.004 0.761,0.063 0.446,-0.062 0.471,0.106 0.743,0.011 0.82,0.062 0.745,-0.063 0.354,0.004 0.586,0 0.587,0 0.761,-0.004 0.587,-0.059 0.471,0.005 0.645,0 0.821,0 0.88,0 0.88,0 0.88,0 0.863,-0.006 0.863,0.101 1.066,0.119 0.985,0.101 0.917,0.173 1.104,0.131 0.838,0.104 0.967,0.171 1.017,0.143 1.295,0.077 1.048,-0.06 1.034,-0.004 0.998,-0.118 0.895,0.005 1.191,-0.07 1.056,-0.117 0.913,-0.053 0.939,-0.059 0.991,-0.058 0.894,-0.054 0.945,0 0.83,-0.057 0.829,0.057 0.88,0 0.83,0.053 1.048,0.064 0.886,0 0.9,0.055 1.159,0.063 1.05,0 0.998,0.058 1.179,10e-4 0.969,0.055 1.27,0.062 1.261,10e-4 1.094,-10e-4 0.964,-0.057 1.018,0.057 1.245,0 1.056,-0.059 1.201,-0.003 1.198,-0.123 1.136,-0.053 1.09,-0.055 1.053,0 1.031,0.055 1.15,0.054 1.169,0.117 1.034,0.045 1.119,0.211 1.25,0.188 1.277,0.174 1.104,0.174 1.144,0.162 1.188,0.246 1.376,0.143 1.291,0.117 1.259,0.125 1.582,0.067 1.408,0 1.408,0.058 1.548,0 1.525,-0.058 1.386,0 1.335,0.056 1.408,0.059 1.481,0.061 1.342,-0.001 1.14,0.052 1.58,0.125 1.501,-0.12 1.198,0.003 1.422,-10e-4 1.645,-0.071 1.29,-0.176 1.242,-0.048 1.466,-0.059 1.338,-0.056 1.336,0 1.276,0 1.408,0.058 1.405,0 1.273,0.056 1.353,0.059 1.484,0.061 1.352,0 1.54,0.06 1.478,-0.06 1.2,0 1.35,0.059 1.501,0 1.191,-0.059 1.131,0.11 1.131,0.05 1.164,0.175 1.288,0.072 1.082,0.053 1.105,0.116 1.136,0.065 0.986,0.058 1.246,0.063 0.99,-0.117 0.675,0.058 0.821,0 0.881,0.059 0.82,0.002 0.281,-0.014 0.998,0.176 0.559,-0.023 0.039,0.049 3.517,-0.074 1.767,-2.81 0.096,-0.36 0.296,-0.772 0.279,-1.029 0.151,-0.558 0.29,-0.692 0.194,-0.938 0.189,-0.769 0.15,-1.016 0.133,-1.011 0.068,-0.995 0.049,-0.765 0.114,-0.851 0.054,-0.662 0.102,-0.704 -0.039,0.04 0.483,-3.58 -3.451,-2.132 -1.315,0 -0.276,0.052 -0.31,-0.053 -0.494,0.011 -0.43,-0.098 -0.83,-0.08 -0.67,-0.061 -0.787,-0.061 -1.021,-0.069 -1.065,0.067 -0.814,0.052 -0.88,0 -0.939,0.059 -0.932,0 -1.245,0.075 -0.828,0.118 -0.588,0.04 -0.888,-0.057 -0.944,0.009 -1.115,-0.176 -1.22,-0.003 -1.349,-0.176 -1.485,-10e-4 -1.351,-0.168 -1.848,-0.124 -1.818,-0.123 -1.761,-0.002 -1.702,-0.058 -1.761,-10e-4 -1.456,10e-4 -1.39,-0.057 -1.42,-0.06 -1.342,0 -1.073,-0.052 -1.216,-0.111 -1.376,-0.124 -1.504,-0.064 -1.716,-0.06 -1.705,-0.001 -1.701,0 -1.941,0.005 -1.701,0.176 -1.466,-0.004 -1.643,0.058 -1.597,0.001 -1.35,0.058 -1.346,0 -1.338,0.058 -1.459,-0.059 -1.593,0.059 -1.579,-0.057 -1.82,-0.06 -1.881,0 -1.877,-0.059 -1.98,0.002 -1.936,0.117 -1.712,-0.002 -1.819,0 -1.823,0.001 -1.877,-0.059 -1.764,0.001 -1.878,-0.117 -2.104,-0.002 -1.026,0 -1.027,0 -1.144,0 -1.244,0.002 -1.127,0.063 -0.975,0.056 -1.005,0.027 -1.107,0.031 -1.078,0.062 -1.024,0.058 -1.053,0.059 -1.065,0.059 -1.788,0.112 -1.888,-0.059 -1.936,0 -1.942,-0.057 -1.885,-0.057 -1.945,-0.115 -1.997,-0.117 -1.03,-0.059 -1.175,-0.064 -1.205,0.03 -1.056,0.029 -1.056,0.03 -1.206,0.036 -1.177,0.132 -0.876,0.103 -0.906,0.022 -1.296,0.044 -1.764,0.294 -1.849,0.051 -1.472,0.173 -1.558,-0.002 -0.936,0.114 -1.365,-0.173 -0.84,0.123 -0.865,-0.108 -0.885,0.081 -1.64,0.165 -1.162,0.522 -2.429,2.86 2.714,1.944 z"
       id="path17"
       inkscape:connector-curvature="0"
       style="fill:#000000;stroke:none" />
    <path
       __timestamp="0x14bc2233eb6"
       __comx="265.256"
       __comy="412.878"
       d="m 190.298,436.024 -0.456,-0.605 1.652,-0.505 0.761,1.223 0.13,-0.649 0.013,-1.198 0.062,-0.838 -0.118,-0.983 0.115,-0.779 -0.057,-1.153 0.113,-0.964 0.001,-1.192 0.098,-0.937 0.163,-1.192 0.174,-1.104 0.176,-1.232 0.154,-0.982 0.196,-0.878 0.223,-0.836 0.163,-0.696 0.233,-0.516 0.173,-0.415 0.221,-0.278 0.296,-0.374 0.461,-0.406 0.645,-0.587 0.521,-0.479 0.633,-0.471 0.715,-0.584 0.627,-0.524 0.632,-0.46 0.912,-0.755 0.769,-0.827 0.542,-0.542 0.619,-0.574 0.888,-0.71 1.023,-0.952 1.019,-1.019 1.013,-1.077 0.882,-1 0.769,-0.821 0.994,-0.936 0.976,-1.035 0.818,-0.82 0.858,-0.748 0.92,-0.815 0.902,-0.7 1.052,-0.736 1.187,-0.772 1.149,-0.825 1.266,-0.726 1.256,-0.936 0.991,-0.644 1.155,-0.658 1.061,-0.615 0.991,-0.521 1.199,-0.571 1.17,-0.585 0.983,-0.467 0.977,-0.391 1.245,-0.415 1.374,-0.561 1.501,-0.592 1.194,-0.628 1.2,-0.432 1.316,-0.596 1.26,-0.482 1.164,-0.558 0.987,-0.323 1.434,-0.439 1.25,-0.495 1.457,-0.349 1.571,-0.601 1.321,-0.351 1.668,-0.417 1.728,-0.493 1.358,-0.414 1.498,-0.438 1.405,-0.509 0.862,-0.329 1.151,-0.229 1.098,-0.381 1.012,-0.263 1.175,-0.337 1.122,-0.255 1.328,-0.242 1.297,-0.33 1.387,-0.154 1.495,-0.248 1.386,-0.231 1.378,-0.214 1.34,-0.105 1.535,-0.124 1.395,-0.169 1.517,-0.058 1.459,-0.172 1.445,0.005 1.643,-0.058 1.701,0 1.643,-0.059 1.392,-0.002 1.584,0.118 1.513,-0.004 1.391,0.166 1.426,0.106 1.344,0.234 1.53,0.125 1.194,0.164 1.301,0.178 1.103,0.134 1.211,0.347 1.371,0.203 1.162,0.233 1.189,0.178 1.164,0.223 1.232,0.235 1.216,0.231 1.02,0.201 1.049,0.302 1.092,0.346 1.095,0.327 0.736,0.259 0.978,0.577 0.901,0.417 0.796,0.542 0.959,0.677 0.982,0.694 1.151,0.828 1.03,0.628 0.939,0.704 1.137,0.698 0.934,0.623 0.842,0.618 0.786,0.54 0.685,0.7 0.775,0.657 0.482,0.658 0.71,1.039 0.705,1.028 0.63,1.052 0.698,1.222 0.73,1.233 0.66,1.268 0.735,1.408 0.756,1.323 0.608,0.998 0.498,1.173 0.692,1.265 0.497,0.995 0.493,0.985 0.436,0.983 0.45,1.012 0.46,1.107 0.641,1.217 0.661,1.125 0.553,0.861 0.679,1.077 0.789,1.011 0.667,0.801 0.529,0.576 0.392,0.529 0.41,0.586 0.282,0.369 0.006,-0.07 -0.005,0.166 0.212,0.65 0.08,0.21 0.026,0.394 0.113,0.617 0.032,0.391 0,0.413 -0.049,0.546 -0.046,0.524 -0.105,0.674 -0.085,0.635 -0.188,0.683 -0.289,1.098 -0.275,0.991 -0.392,1.288 -0.404,1.267 -0.448,1.404 -0.5,1.386 -0.514,1.372 -0.602,1.565 -0.432,1.252 -0.612,1.355 -0.463,1.498 -0.356,1.02 -0.598,1.493 -0.345,1.535 -0.323,1.124 -0.323,1.134 -0.369,1.049 -0.384,1.043 -0.394,0.995 -0.485,0.962 -0.469,0.997 -0.382,0.77 -0.603,0.982 -0.492,0.879 -0.727,1.095 -0.54,1.018 -0.509,0.782 -0.656,0.896 -0.747,1.179 -0.499,0.751 -0.776,1.017 -0.583,0.911 -0.653,0.742 -0.66,0.828 -0.794,0.843 -0.724,0.78 -0.776,0.775 -0.88,0.88 -0.84,0.841 -0.805,0.757 -0.853,0.691 -0.92,0.759 -0.967,0.696 -0.911,0.663 -0.955,0.549 -1.139,0.652 -1.112,0.556 -1.167,0.499 -1.107,0.5 -1.067,0.405 -1.232,0.411 -1.21,0.461 -1.148,0.365 -1.393,0.404 -1.232,0.528 -1.164,0.329 -1.278,0.485 -1.211,0.387 -1.324,0.59 -1.019,0.429 -1.158,0.441 -1.045,0.385 -1.251,0.417 -1.009,0.399 -1.232,0.234 -1.308,0.492 -1.068,0.247 -1.273,0.348 -1.173,0.266 -1.255,0.253 -0.986,0.277 -1.175,0.19 -1.184,0.369 -1.148,0.228 -1.091,0.333 -1.151,0.171 -1.315,0.371 -1.153,0.23 -1.196,0.331 -1.195,0.168 -1.428,0.354 -1.024,0.314 -0.97,0.146 -1.202,0.252 -0.949,0.204 -0.942,0.101 -1.366,0.196 -1.159,0.223 -1.082,0.105 -1.2,0.167 -1.075,0.048 -1.207,0.055 -1.153,-10e-4 -1.215,10e-4 -1.209,-0.053 -1.481,-0.118 -1.669,-0.06 -1.881,-0.12 -1.169,-0.002 -1.01,10e-4 -1.069,-0.029 -1.201,-0.03 -1.348,0.03 -1.387,0.035 -1.357,0.127 -0.924,0.101 -1.129,-0.106 -1.64,-0.128 -1.805,0.058 -1.223,0.089 -1.275,0.304 -1.005,0.505 -0.848,0.755 -1.085,0.443 -1.346,0.518 -0.004,0.013 0.766,1.222 1.028,1.146 1.205,0.872 1.048,0.622 1.365,0.364 1.417,0.147 1.598,-0.06 1.235,0.107 1.745,0.129 1.541,-0.133 1.106,-0.108 1.136,-0.024 1.175,-0.028 1.028,0.028 1.161,0.03 1.102,0 0.943,-0.001 1.756,0.114 1.616,0.058 1.453,0.116 1.489,0.065 1.367,0 1.312,0 1.373,-0.062 1.39,-0.07 1.381,-0.185 1.265,-0.129 1.305,-0.246 1.098,-0.157 1.169,-0.133 1.282,-0.266 1.027,-0.217 1.259,-0.206 1.323,-0.39 0.919,-0.233 1.268,-0.184 1.386,-0.373 1.193,-0.239 1.15,-0.333 1.196,-0.181 1.256,-0.372 1.197,-0.241 1.046,-0.335 1.055,-0.162 1.125,-0.309 1.093,-0.217 1.408,-0.32 1.308,-0.357 1.397,-0.339 1.155,-0.447 1.232,-0.235 1.455,-0.54 1.214,-0.404 1.184,-0.436 1.306,-0.498 1.21,-0.509 1.023,-0.467 1.018,-0.317 1.186,-0.454 1.3,-0.375 1.232,-0.528 1.071,-0.299 1.433,-0.457 1.255,-0.478 1.232,-0.41 1.397,-0.533 1.239,-0.556 1.297,-0.558 1.47,-0.734 1.326,-0.756 1.273,-0.743 1.202,-0.862 1.145,-0.829 1.075,-0.883 1.024,-0.835 1.072,-1.003 0.92,-0.919 0.88,-0.88 0.867,-0.868 0.801,-0.862 0.966,-1.035 0.749,-0.932 0.871,-1.018 0.709,-1.084 0.749,-0.977 0.674,-1.01 0.661,-1.049 0.635,-0.864 0.782,-1.213 0.516,-0.977 0.681,-1.018 0.563,-0.998 0.688,-1.13 0.557,-1.107 0.469,-0.998 0.572,-1.15 0.544,-1.352 0.437,-1.186 0.453,-1.298 0.381,-1.329 0.382,-1.341 0.241,-1.164 0.458,-1.088 0.465,-1.326 0.358,-1.201 0.562,-1.227 0.506,-1.446 0.572,-1.486 0.542,-1.444 0.556,-1.548 0.49,-1.529 0.418,-1.314 0.43,-1.412 0.311,-1.12 0.298,-1.132 0.281,-1.077 0.15,-1.007 0.129,-0.852 0.072,-0.766 0.069,-0.862 0,-0.995 -0.086,-1.018 -0.122,-0.674 -0.091,-0.779 -0.272,-0.963 -0.14,-0.406 -0.24,-0.89 -0.698,-1.243 -0.422,-0.57 -0.411,-0.587 -0.664,-0.88 -0.645,-0.714 -0.506,-0.607 -0.502,-0.631 -0.494,-0.801 -0.504,-0.782 -0.511,-0.87 -0.416,-0.777 -0.361,-0.888 -0.489,-1.101 -0.502,-1.128 -0.563,-1.127 -0.559,-1.117 -0.599,-1.082 -0.558,-1.291 -0.8,-1.349 -0.653,-1.141 -0.672,-1.29 -0.748,-1.431 -0.796,-1.349 -0.71,-1.242 -0.778,-1.294 -0.82,-1.202 -0.816,-1.19 -1.043,-1.337 -1.102,-0.986 -0.958,-0.942 -1.208,-0.868 -0.918,-0.672 -1.179,-0.786 -0.975,-0.592 -0.938,-0.704 -1.082,-0.663 -0.961,-0.697 -1.013,-0.715 -1.036,-0.731 -1.315,-0.866 -1.095,-0.522 -1.251,-0.713 -1.493,-0.562 -1.252,-0.377 -1.137,-0.359 -1.415,-0.402 -1.327,-0.268 -1.248,-0.238 -1.232,-0.235 -1.3,-0.246 -1.157,-0.174 -1.186,-0.236 -1.093,-0.15 -1.253,-0.356 -1.595,-0.218 -1.281,-0.175 -1.387,-0.187 -1.403,-0.11 -1.355,-0.236 -1.625,-0.128 -1.659,-0.186 -1.656,-0.004 -1.584,-0.117 -1.776,-0.002 -1.643,0.059 -1.701,0 -1.643,0.059 -1.722,0.005 -1.593,0.18 -1.533,0.06 -1.539,0.182 -1.397,0.111 -1.594,0.13 -1.673,0.255 -1.43,0.238 -1.321,0.222 -1.663,0.198 -1.52,0.374 -1.254,0.227 -1.458,0.332 -1.289,0.367 -1.218,0.323 -0.896,0.323 -1.197,0.241 -1.366,0.492 -1.177,0.43 -1.319,0.383 -1.34,0.408 -1.557,0.445 -1.617,0.404 -1.731,0.471 -1.479,0.572 -1.477,0.355 -1.449,0.561 -1.264,0.382 -1.477,0.499 -1.301,0.615 -1.203,0.457 -1.266,0.577 -1.381,0.508 -1.27,0.662 -1.198,0.463 -1.207,0.496 -1.219,0.406 -1.37,0.548 -1.247,0.589 -1.176,0.588 -1.265,0.603 -1.239,0.652 -1.167,0.675 -1.31,0.75 -1.356,0.882 -1.09,0.824 -1.198,0.682 -1.316,0.935 -1.159,0.753 -1.295,0.907 -1.21,0.943 -1.075,0.945 -1.019,0.895 -1.06,1.057 -0.901,0.96 -1,0.941 -0.992,1.056 -0.878,0.995 -0.864,0.918 -0.858,0.858 -0.737,0.691 -0.873,0.698 -0.906,0.834 -0.748,0.749 -0.522,0.581 -0.379,0.301 -0.658,0.479 -0.782,0.649 -0.575,0.471 -0.775,0.586 -0.77,0.694 -0.646,0.587 -0.829,0.767 -0.761,0.916 -0.717,1.013 -0.531,1.111 -0.471,1.127 -0.306,1.181 -0.246,0.924 -0.274,1.234 -0.198,1.247 -0.176,1.232 -0.178,1.126 -0.189,1.389 -0.137,1.41 0.001,1.154 -0.121,1.148 0.06,1.077 -0.12,0.981 0.117,1.13 -0.055,0.451 0.013,1.267 0.013,0.994 0.878,2.396 2.942,0.081 1.187,-0.722 z"
       id="path19"
       inkscape:connector-curvature="0"
       style="fill:#000000;stroke:none" />
    <path
       __timestamp="0x14bc22348fa"
       __comx="217.016"
       __comy="448.616"
       d="m 189.388,436.168 0.565,-1.036 -3.174,-2.426 -1.459,4.373 -0.025,0.569 -0.127,0.991 0.298,1.451 -0.123,0.992 0.117,1.615 -0.059,1.332 0.118,1.696 -0.117,1.408 0.059,1.771 -0.118,1.586 0.06,1.893 0.069,1.807 0.239,1.872 0.114,1.716 0.197,1.893 0.314,1.77 0.276,1.536 0.177,1.536 0.315,1.711 0.242,1.27 0.297,1.424 0.281,1.372 0.457,1.39 0.435,1.407 0.616,1.259 0.544,1.205 0.709,1.151 0.545,0.87 0.628,1.098 0.684,0.878 0.433,0.709 0.489,0.674 0.691,1.041 0.507,0.501 0.353,0.607 0.663,0.838 0.595,0.663 0.591,0.654 0.777,0.773 0.881,0.723 0.646,0.455 0.767,0.572 0.645,0.411 0.816,0.602 1.283,0.69 1.072,0.435 1.123,0.436 1.049,0.371 1.027,0.362 1.276,0.42 1.382,0.295 1.113,0.187 0.981,0.173 1.07,0.188 0.967,0.13 0.803,0.097 0.821,0.176 1.189,0.15 0.88,0.059 0.824,0.104 0.988,0.13 0.826,0.046 0.742,0.155 0.934,0.134 0.993,0.132 0.869,0.068 0.822,0.058 0.729,0.056 0.779,0.068 0.98,0.003 0.587,0 0.821,0 0.763,0 0.628,-0.002 0.897,0.061 0.781,-0.059 0.611,0.05 0.763,0.059 0.748,0.046 0.762,0.118 1.022,0.071 1.041,0.067 1.03,-0.059 1.012,0.058 1.206,0.001 1.149,-0.001 1.066,0.051 1.056,0.1 0.711,0.088 1.086,0.427 2.598,0.116 1.362,-1.603 0.245,-2.202 -0.006,-0.013 -1.633,-1.264 -0.163,-1.134 -0.336,-0.587 -1.378,-0.511 -1.635,-0.265 -1.408,-0.134 -1.398,-0.067 -1.316,-10e-4 -1.022,10e-4 -1.218,-0.06 -0.964,0.059 -0.603,-0.05 -0.738,-0.046 -0.763,-0.118 -1.012,-0.07 -0.763,-0.059 -1.148,-0.068 -0.745,0.059 -0.628,-0.056 -0.897,-0.003 -0.763,0 -0.821,0 -0.587,0 -0.663,0.004 -0.511,-0.05 -0.796,-0.061 -0.822,-0.059 -0.656,-0.049 -0.767,-0.104 -0.709,-0.1 -1.017,-0.196 -1.052,-0.072 -0.772,-0.105 -1.054,-0.13 -0.88,-0.059 -0.688,-0.084 -0.821,-0.176 -1.075,-0.138 -0.792,-0.105 -0.925,-0.164 -1.014,-0.179 -0.999,-0.165 -0.848,-0.174 -0.835,-0.284 -0.969,-0.342 -0.945,-0.333 -0.989,-0.385 -0.688,-0.27 -0.477,-0.249 -0.592,-0.453 -0.645,-0.411 -0.642,-0.483 -0.527,-0.367 -0.41,-0.333 -0.396,-0.401 -0.466,-0.519 -0.461,-0.51 -0.275,-0.336 -0.585,-0.918 -0.55,-0.555 -0.364,-0.601 -0.45,-0.617 -0.506,-0.817 -0.607,-0.764 -0.428,-0.78 -0.629,-1.008 -0.464,-0.726 -0.394,-0.907 -0.44,-0.853 -0.269,-0.939 -0.365,-1.074 -0.188,-0.975 -0.29,-1.392 -0.227,-1.194 -0.272,-1.458 -0.175,-1.514 -0.31,-1.75 -0.273,-1.515 -0.155,-1.51 -0.121,-1.804 -0.23,-1.765 -0.049,-1.479 -0.057,-1.509 0.117,-1.582 -0.059,-1.75 0.119,-1.525 -0.118,-1.823 0.058,-1.368 -0.117,-1.435 0.112,-1.472 -0.289,-1.248 0.107,-0.534 -0.259,-2.247 -2.163,2.378 -2.47,-1.604 0.799,0.019 z"
       id="path21"
       inkscape:connector-curvature="0"
       style="fill:#000000;stroke:none" />
    <path
       __timestamp="0x14bc2234f6e"
       __comx="234.952"
       __comy="492.502"
       d="m 214.658,492.396 0.588,-0.177 2.632,1.454 -1.141,0.816 -2.717,-0.434 0.532,0.946 1.494,1.14 1.651,0.715 0.714,0.219 0.794,0.265 0.994,0.348 1.342,0.304 0.976,0.172 1.203,0.271 1.366,0.089 1.212,0.063 1.148,0.001 0.881,-0.002 0.88,0.059 0.705,-0.003 0.081,-0.004 0.113,0.047 0.536,0.217 0.194,0.034 0.415,0.294 0.737,0.31 0.667,0.423 1.4,0.567 1.037,0.265 1.056,0.352 1.17,0.294 0.996,0.188 0.72,0.154 0.727,0.181 0.618,0.124 0.453,0.094 -0.065,-0.044 0.81,0.605 1.1,0.517 1.065,0.382 0.93,0.267 1.034,0.289 0.82,0.129 1.395,0.245 1.182,-0.191 1.345,-0.316 0.846,-0.561 0.227,-0.022 0.519,-0.258 -0.171,0.052 0.776,-0.016 0.685,-0.138 2.556,-1.017 0.236,-2.882 -2.621,-0.791 -0.013,0 -2.621,0.5 0.119,-1.826 1.265,-0.9 -0.37,0.096 -0.399,-0.015 -1.226,0.169 -1.124,0.446 -0.946,0.33 -0.445,0.377 -0.063,-0.081 0.243,0.044 -0.013,-0.107 -0.705,-0.105 -0.608,-0.181 -0.713,-0.202 -0.578,-0.205 -0.19,-0.07 -0.951,-0.685 -1.238,-0.514 -1.073,-0.258 -0.555,-0.11 -0.681,-0.171 -0.923,-0.198 -0.881,-0.164 -0.707,-0.176 -1.056,-0.352 -0.841,-0.204 -0.36,-0.137 -0.623,-0.399 -0.671,-0.276 -0.642,-0.41 -0.862,-0.319 -0.637,-0.252 -1.06,-0.305 -1.093,-0.121 -0.82,-0.003 -0.88,-0.058 -1.114,-0.002 -0.964,10e-4 -1.018,-0.055 -0.745,-0.028 -0.792,-0.198 -1.018,-0.181 -0.77,-0.165 -0.65,-0.239 -0.965,-0.321 -0.46,-0.133 -0.578,-0.224 0.203,0.201 -0.406,-0.578 -3.891,-1.491 -1.61,1.872 1.458,2.158 -0.585,0.176 z"
       id="path23"
       inkscape:connector-curvature="0"
       style="fill:#000000;stroke:none" />
    <path
       __timestamp="0x14bc223544b"
       __comx="329.494"
       __comy="436.296"
       d="m 341.716,429.406 1.252,-0.433 0.15,0.147 1.1,0.048 0.441,-2.379 -0.171,-2.348 -5.14,-0.404 -1.254,2.531 -0.072,0.081 -0.209,0.514 -0.234,0.419 -0.42,0.712 -0.529,1.176 -0.462,0.963 -0.262,1.036 -0.465,0.791 -0.504,1.369 -0.638,1.275 -0.477,1.296 -0.74,1.244 -0.539,1.314 -0.66,1.144 -0.631,1.319 -0.598,1.196 -0.659,1.439 -0.575,1.206 -0.656,1.373 -0.644,1.405 -0.642,1.34 -0.795,1.418 -0.732,1.411 -0.82,1.347 -0.704,1.349 -0.788,1.292 -0.697,1.22 -0.874,1.433 -0.583,1.404 -0.702,1.36 -0.47,1.444 -0.52,1.269 -0.466,1.392 -0.415,1.398 -0.228,1.208 -0.278,0.861 -0.343,0.971 -0.352,1.068 -0.176,0.762 -0.099,0.313 -0.293,0.587 -0.123,0.405 -0.305,0.47 -0.508,0.766 -0.422,0.768 -0.405,0.747 -0.416,1.182 -0.139,1.384 -0.002,0.78 0.021,0.322 0.001,-0.07 -0.089,0.242 -0.382,0.88 -0.145,0.959 -0.141,1.514 6.888,-1.471 -1.836,0.296 -1.867,-0.035 -0.013,0.005 -1.28,1.491 -1.132,1.586 6.184,-2.76 0.094,0.574 -0.028,-0.214 0.088,-0.059 0.379,-1.048 0.237,-1.126 0.021,-1.086 -0.003,-0.511 -0.021,-0.141 -0.065,0.243 0.183,-0.309 0.281,-0.522 0.432,-0.643 0.75,-1.289 0.23,-0.652 0.293,-0.586 0.37,-1.096 0.176,-0.762 0.235,-0.692 0.361,-1.024 0.426,-1.368 0.241,-1.257 0.289,-0.948 0.356,-1.072 0.536,-1.313 0.351,-1.137 0.588,-1.104 0.473,-1.178 0.652,-1.031 0.711,-1.244 0.855,-1.407 0.704,-1.349 0.822,-1.352 0.794,-1.522 0.847,-1.516 0.767,-1.594 0.646,-1.41 0.635,-1.326 0.599,-1.258 0.631,-1.378 0.575,-1.15 0.543,-1.145 0.748,-1.32 0.517,-1.268 0.785,-1.337 0.579,-1.519 0.653,-1.307 0.434,-1.213 0.592,-1.086 0.324,-1.194 0.242,-0.444 0.41,-0.936 0.284,-0.462 0.471,-0.871 0.377,-0.894 0.397,-1.093 -1.137,1.24 -4.084,-0.286 -0.053,-1.058 0.91,-1.323 0.045,0.048 0.266,1.321 0.197,0.505 z"
       id="path25"
       inkscape:connector-curvature="0"
       style="fill:#000000;stroke:none" />
    <path
       __timestamp="0x14bc2235dbc"
       __comx="265.133"
       __comy="508.713"
       d="m 254.172,503.177 -0.739,1.617 -1.611,0.492 0.525,1.199 0.774,1.426 0.258,0.46 0.278,0.712 0.351,0.838 0.331,0.633 0.278,0.926 0.289,0.373 -0.039,0.373 0.273,0.939 0.09,0.523 0.332,1.299 0.414,0.799 0.225,0.711 0.415,0.99 0.435,0.808 0.411,0.748 0.492,0.777 0.531,0.777 0.871,0.965 0.481,0.478 0.375,0.43 0.155,0.28 0.441,0.814 0.804,1.242 0.377,0.479 0.352,0.587 0.399,0.51 0.321,0.565 0.488,0.768 0.455,0.65 0.271,0.371 0.066,0.135 0.28,0.807 0.652,1.148 0.447,0.643 0.389,0.613 0.474,0.71 0.634,0.975 0.72,0.874 0.577,0.692 0.57,0.696 0.645,0.717 0.449,0.441 0.533,0.689 0.603,0.735 0.538,0.599 0.346,0.391 0.114,0.237 1.679,-4.08 3.041,1.758 -1.706,-0.656 -0.014,-10e-4 -1.941,1.456 4.098,3.518 0.975,-5.371 -0.473,-0.819 -0.828,-1.016 -0.517,-0.575 -0.454,-0.555 -0.757,-0.955 -0.608,-0.614 -0.411,-0.457 -0.485,-0.595 -0.597,-0.716 -0.453,-0.534 -0.422,-0.668 -0.465,-0.697 -0.432,-0.679 -0.374,-0.53 -0.17,-0.26 -0.189,-0.6 -0.52,-1.038 -0.551,-0.803 -0.367,-0.523 -0.333,-0.524 -0.5,-0.843 -0.423,-0.546 -0.352,-0.586 -0.444,-0.577 -0.486,-0.752 -0.381,-0.711 -0.549,-0.894 -0.915,-1.095 -0.576,-0.579 -0.419,-0.443 -0.174,-0.279 -0.328,-0.513 -0.294,-0.543 -0.269,-0.483 -0.171,-0.418 -0.362,-1.049 -0.29,-0.492 -0.02,-0.226 -0.145,-0.768 -0.196,-0.586 -0.156,-1.153 -0.533,-1.034 -0.192,-0.717 -0.49,-1.009 -0.235,-0.571 -0.426,-1.047 -0.446,-0.831 -0.634,-1.156 -0.296,-0.678 -2.433,-1.855 -1.795,1.735 z"
       id="path27"
       inkscape:connector-curvature="0"
       style="fill:#000000;stroke:none" />
    <path
       __timestamp="0x14bc2236226"
       __comx="384.812"
       __comy="523.487"
       d="m 317.797,479.899 2.82,0.289 -0.685,0.78 -3.764,1.408 0.097,0.103 0.012,-0.085 -0.048,0.065 0.151,1.159 0.387,1.134 0.309,1.115 0.831,1.22 0.357,0.458 0.359,0.515 0.477,0.678 0.504,0.632 0.395,0.523 0.486,0.484 0.092,0.374 0.365,0.739 0.345,0.687 0.541,0.926 0.352,0.49 0.198,0.417 0.382,0.7 0.164,0.243 0.055,0.336 0.214,0.741 0.036,0.107 0.009,0.845 0.216,0.949 0.136,0.913 0.257,0.858 0.196,0.955 0.358,1.029 0.368,1.077 0.455,0.93 0.264,0.513 0.254,0.726 0.352,0.821 0.265,0.746 0.375,1 0.352,0.88 0.358,0.955 0.502,1.208 0.562,1.062 0.685,1.226 0.737,1.078 0.765,1.104 0.877,1.008 0.757,0.99 0.803,0.929 0.822,0.997 0.796,0.92 0.697,0.788 0.646,0.938 0.791,0.9 0.578,0.904 0.844,1.109 0.733,0.959 0.709,0.981 0.665,0.968 0.585,1.015 0.744,1.258 0.616,1.121 0.701,1.285 0.62,1.128 0.512,1.241 0.635,1.518 0.711,1.427 0.69,1.322 0.592,1.237 0.638,1.457 0.833,1.483 0.75,1.385 0.65,1.188 0.655,1.425 0.861,1.544 0.774,1.486 0.879,1.524 0.784,1.514 0.821,1.585 0.82,1.581 0.468,0.906 0.42,0.809 0.364,0.837 0.413,0.943 0.442,1.003 0.475,1.074 0.535,1.073 0.436,0.866 0.354,0.893 0.434,1.083 0.464,1.053 0.45,1.019 0.479,1.048 0.46,1.005 0.43,0.977 0.475,1.074 0.536,1.073 0.508,1.016 0.508,0.987 0.548,1.061 0.61,1.029 0.527,0.887 0.47,0.858 0.574,1.04 0.668,1.007 0.55,0.825 0.522,0.852 0.557,0.91 0.557,0.909 0.524,0.853 0.495,0.882 0.54,0.96 0.54,0.93 0.528,0.909 0.528,0.909 0.525,0.904 0.554,0.963 0.549,0.952 0.519,0.924 0.537,0.954 0.566,0.983 0.548,0.953 0.52,0.923 0.561,0.996 0.591,0.965 0.502,0.817 0.447,0.844 0.607,1.129 1.154,1.646 0.965,1.651 0.996,1.522 0.812,1.393 0.95,1.486 0.831,1.384 0.778,1.377 0.864,1.381 0.71,1.313 0.76,1.404 0.822,1.525 0.762,1.408 0.795,1.475 0.645,1.289 0.658,1.483 0.616,1.455 0.59,1.497 0.523,1.631 0.6,1.562 0.508,1.469 0.543,1.567 0.576,1.534 0.607,1.397 0.524,1.283 0.523,1.219 0.484,1.208 0.592,1.304 0.513,1.255 0.54,1.259 0.49,1.141 0.509,1.386 0.701,1.415 0.574,1.263 0.688,1.437 0.674,1.289 0.601,1.145 0.603,1.322 0.675,1.231 0.6,1.202 0.595,1.241 0.625,1.492 0.716,1.315 0.524,1.215 0.684,1.552 0.68,1.354 0.575,1.44 0.778,1.626 0.717,1.375 0.728,1.454 0.782,1.39 0.598,1.367 0.741,1.545 0.703,1.405 0.589,1.23 0.506,1.24 0.661,1.502 0.549,1.259 0.539,1.435 0.661,1.459 0.611,1.217 0.516,1.297 0.55,1.464 0.674,1.533 0.584,1.375 0.489,1.474 0.593,1.703 0.663,1.449 0.495,1.328 0.587,1.467 0.57,1.511 0.571,1.194 0.415,1.209 0.489,1.295 0.34,1.25 0.491,1.419 0.347,1.074 0.282,1.367 0.438,1.511 0.318,1.158 0.252,1.213 0.268,1.69 0.51,1.616 0.148,1.547 0.358,1.679 0.211,1.715 0.116,0.985 0.112,0.951 0.183,1.994 0.31,2.056 0.287,1.781 0.245,1.883 0.365,1.833 0.298,1.725 0.354,1.653 0.28,1.573 0.283,1.642 0.235,1.642 0.305,1.773 0.302,1.63 0.357,1.784 0.343,1.715 0.316,1.813 0.427,1.595 0.358,1.668 0.528,1.849 0.545,1.577 0.483,1.509 0.55,1.467 0.506,1.406 0.494,1.479 0.709,1.697 0.777,1.199 0.517,1.212 0.866,1.391 0.754,1.131 0.76,1.076 0.775,1.034 0.834,1.027 0.531,0.595 0.503,0.869 0.695,0.77 0.173,0.294 0.372,0.677 0.352,0.528 0.86,-3.628 3.403,-1.01 -1.19,0.078 -1.738,0.386 -1.972,-0.925 -0.011,0.007 0.022,2.36 0.023,2.381 1.273,1.721 5.163,-0.072 0.157,-4.919 -0.352,-0.528 -0.333,-0.613 -0.648,-0.997 -0.595,-0.637 -0.436,-0.774 -0.877,-1.048 -0.691,-0.85 -0.633,-0.844 -0.648,-0.918 -0.654,-0.982 -0.542,-0.838 -0.539,-1.252 -0.749,-1.148 -0.347,-0.884 -0.444,-1.337 -0.55,-1.528 -0.507,-1.349 -0.455,-1.424 -0.511,-1.474 -0.411,-1.437 -0.346,-1.616 -0.395,-1.457 -0.27,-1.589 -0.361,-1.806 -0.347,-1.735 -0.285,-1.538 -0.281,-1.63 -0.235,-1.643 -0.303,-1.762 -0.307,-1.712 -0.35,-1.632 -0.289,-1.678 -0.339,-1.687 -0.224,-1.754 -0.299,-1.857 -0.277,-1.816 -0.17,-1.878 -0.122,-1.043 -0.119,-1.01 -0.258,-2.04 -0.346,-1.606 -0.204,-1.856 -0.547,-1.786 -0.201,-1.362 -0.334,-1.603 -0.387,-1.423 -0.383,-1.305 -0.304,-1.449 -0.475,-1.508 -0.447,-1.28 -0.365,-1.33 -0.567,-1.522 -0.523,-1.489 -0.603,-1.271 -0.486,-1.304 -0.586,-1.467 -0.56,-1.488 -0.629,-1.367 -0.462,-1.348 -0.568,-1.694 -0.706,-1.676 -0.617,-1.4 -0.506,-1.353 -0.658,-1.636 -0.679,-1.363 -0.512,-1.124 -0.517,-1.381 -0.625,-1.439 -0.63,-1.432 -0.55,-1.341 -0.701,-1.469 -0.705,-1.41 -0.667,-1.389 -0.693,-1.566 -0.861,-1.544 -0.68,-1.362 -0.691,-1.324 -0.63,-1.308 -0.598,-1.492 -0.729,-1.462 -0.606,-1.381 -0.649,-1.485 -0.693,-1.266 -0.547,-1.324 -0.697,-1.458 -0.69,-1.379 -0.616,-1.116 -0.57,-1.259 -0.69,-1.319 -0.616,-1.176 -0.603,-1.261 -0.6,-1.318 -0.589,-1.167 -0.43,-1.196 -0.565,-1.322 -0.517,-1.206 -0.543,-1.325 -0.581,-1.279 -0.455,-1.138 -0.533,-1.244 -0.532,-1.3 -0.567,-1.301 -0.48,-1.283 -0.513,-1.483 -0.548,-1.581 -0.573,-1.489 -0.532,-1.654 -0.701,-1.789 -0.676,-1.596 -0.749,-1.685 -0.763,-1.527 -0.848,-1.576 -0.763,-1.408 -0.821,-1.525 -0.765,-1.412 -0.816,-1.503 -0.896,-1.435 -0.747,-1.322 -0.929,-1.549 -0.928,-1.449 -0.83,-1.422 -0.999,-1.529 -1.029,-1.752 -1.076,-1.522 -0.39,-0.749 -0.551,-1.033 -0.612,-1.002 -0.524,-0.853 -0.495,-0.882 -0.537,-0.954 -0.566,-0.983 -0.548,-0.953 -0.52,-0.923 -0.536,-0.954 -0.567,-0.983 -0.56,-0.974 -0.531,-0.915 -0.528,-0.909 -0.528,-0.909 -0.516,-0.889 -0.517,-0.918 -0.56,-0.995 -0.591,-0.966 -0.558,-0.909 -0.557,-0.91 -0.593,-0.966 -0.623,-0.935 -0.506,-0.753 -0.423,-0.778 -0.528,-0.962 -0.587,-0.99 -0.505,-0.848 -0.449,-0.875 -0.489,-0.949 -0.489,-0.979 -0.462,-0.921 -0.405,-0.921 -0.45,-1.019 -0.479,-1.047 -0.46,-1.006 -0.43,-0.976 -0.416,-0.941 -0.387,-0.97 -0.468,-1.161 -0.561,-1.129 -0.462,-0.921 -0.405,-0.921 -0.438,-0.992 -0.408,-0.934 -0.457,-1.041 -0.52,-1.009 -0.47,-0.913 -0.823,-1.587 -0.822,-1.584 -0.858,-1.653 -0.881,-1.527 -0.752,-1.447 -0.781,-1.39 -0.636,-1.391 -0.758,-1.394 -0.776,-1.431 -0.692,-1.216 -0.535,-1.241 -0.699,-1.461 -0.718,-1.377 -0.58,-1.155 -0.538,-1.297 -0.662,-1.576 -0.787,-1.453 -0.707,-1.296 -0.675,-1.226 -0.782,-1.324 -0.705,-1.214 -0.861,-1.261 -0.816,-1.131 -0.792,-1.036 -0.681,-0.886 -0.714,-1.091 -0.851,-0.977 -0.645,-0.939 -0.946,-1.09 -0.728,-0.84 -0.822,-0.998 -0.722,-0.831 -0.768,-1.004 -0.766,-0.869 -0.525,-0.774 -0.554,-0.8 -0.488,-0.886 -0.377,-0.698 -0.32,-0.786 -0.346,-0.923 -0.352,-0.88 -0.329,-0.877 -0.322,-0.897 -0.352,-0.821 -0.332,-0.917 -0.441,-0.895 -0.249,-0.478 -0.218,-0.683 -0.229,-0.614 -0.156,-0.804 -0.212,-0.669 -0.098,-0.729 -0.137,-0.459 0.009,-0.68 -0.199,-1.066 -0.255,-0.903 -0.296,-1.071 -0.54,-1.049 -0.323,-0.59 -0.388,-0.757 -0.47,-0.682 -0.28,-0.483 -0.241,-0.486 -0.222,-0.434 -0.495,-1.152 -1.039,-1.276 -0.309,-0.415 -0.435,-0.541 -0.345,-0.496 -0.462,-0.658 -0.464,-0.599 0.009,0.165 0.075,-0.058 -0.317,-0.862 -0.084,-0.835 -0.517,-1.813 -1.045,-1.493 -0.841,-0.835 -5.055,0.469 0.372,1.719 1.764,0.64 z"
       id="path29"
       inkscape:connector-curvature="0"
       style="fill:#000000;stroke:none" />
    <path
       __timestamp="0x14bc2236c22"
       __comx="360.376"
       __comy="578.604"
       d="m 274.595,537.998 0.123,-1.456 -0.664,-1.331 -0.413,-0.639 1.588,3.094 -4.699,1.391 -0.766,-0.825 0.41,1.114 0.269,0.672 0.384,0.895 0.411,0.887 0.747,1.208 0.502,0.723 0.519,0.887 0.595,1.011 0.645,1.069 0.524,1.055 0.608,1.213 0.622,1.417 0.668,1.442 0.604,1.599 0.719,1.857 0.392,0.965 0.385,0.947 0.414,1.005 0.407,0.988 0.436,1.077 0.487,1.195 0.608,1.252 0.54,1.108 0.482,1.05 0.555,1.202 0.676,1.23 0.582,1.051 0.525,1.05 0.599,1.197 0.661,1.166 0.606,1.068 0.606,1.097 0.61,1.103 0.551,1.015 0.59,1.086 0.591,0.997 0.525,0.883 0.497,0.913 0.499,0.913 0.441,0.883 0.531,1.057 0.595,0.997 0.494,0.821 0.465,0.85 0.554,1.005 0.614,0.974 0.526,0.829 0.98,1.672 0.599,0.99 0.613,1.01 0.613,0.951 0.588,0.911 0.647,1 0.632,0.978 0.633,1.007 0.651,1.035 0.621,0.976 0.551,0.862 0.526,0.977 0.617,1.14 0.618,1.053 0.576,0.978 0.576,1.008 0.539,0.941 0.454,0.911 0.527,1.053 0.558,1.024 0.542,0.992 0.512,0.905 0.508,0.896 0.537,0.925 0.497,0.855 0.91,1.707 0.901,1.682 0.519,0.917 0.445,0.78 0.388,0.808 0.48,0.989 0.541,0.988 0.486,0.887 0.516,0.975 0.48,0.903 0.395,0.873 0.477,1.045 0.537,1.045 0.498,0.968 0.499,0.968 0.46,0.891 0.404,0.891 0.496,1.086 0.56,1.026 0.532,0.968 0.562,0.939 0.555,0.923 0.938,1.467 0.924,1.536 1.093,1.546 0.997,1.35 0.998,1.408 1.025,1.388 1.035,1.379 0.951,1.342 1.046,1.535 1.064,1.361 1.042,1.505 1.114,1.467 1.087,1.567 1.19,1.468 0.445,0.713 0.623,0.98 0.714,0.977 0.585,0.795 0.528,0.822 0.615,0.952 0.674,0.982 0.59,0.855 0.533,0.882 0.614,1.012 0.673,1.041 0.605,0.935 0.549,0.933 0.651,1.103 0.713,1.041 0.638,0.928 0.667,0.987 0.635,0.937 0.577,0.936 0.677,1.091 0.708,1.002 0.603,0.847 0.604,0.935 0.644,0.996 0.585,0.907 0.581,0.9 0.61,0.959 0.608,0.956 0.58,0.927 0.581,0.93 0.611,0.99 0.597,0.965 0.567,0.965 0.613,1.041 0.673,1.071 0.596,0.946 0.539,0.974 0.605,1.088 0.634,1.088 0.635,1.087 0.664,1.086 0.688,1.125 0.719,1.065 0.703,1.038 0.703,0.979 0.632,0.878 0.575,0.877 0.597,0.91 0.627,0.998 0.693,1.099 0.665,0.952 0.616,0.88 0.616,0.88 0.677,0.965 0.738,0.934 0.685,0.862 1.227,1.52 0.631,0.803 0.614,0.782 1.15,1.552 0.622,0.83 0.675,0.898 1.293,1.541 1.191,1.416 0.575,0.74 0.636,0.818 1.139,1.402 0.481,0.756 0.587,0.909 0.586,0.91 0.581,0.9 0.61,0.959 0.622,0.977 0.593,0.918 0.608,0.943 0.638,0.942 0.586,0.864 0.528,0.835 0.628,0.986 1.253,1.697 0.623,0.829 0.649,0.865 1.304,1.626 1.278,1.346 1.32,1.38 1.232,1.233 1.237,1.174 1.261,1.141 1.349,1.226 1.504,1.24 1.523,1.099 1.411,1.073 1.411,1.102 1.482,1.024 1.356,1.133 1.489,1.118 1.413,1.044 1.195,0.809 1.042,0.892 1.037,0.864 0.82,0.716 0.895,0.897 0.851,0.792 0.683,0.794 0.827,0.886 0.949,1.073 0.874,0.757 0.718,0.834 1.019,0.958 0.873,0.802 0.769,0.6 0.675,0.671 0.704,0.528 0.216,0.226 0.33,0.372 0.555,0.708 0.559,0.744 0.633,0.761 0.752,0.892 1.264,1.02 1.512,0.705 1.182,0.276 0.719,0.153 0.968,0.099 0.791,10e-4 0.813,0.062 0.968,-0.059 0.771,0.057 1.114,0.002 1.035,-0.002 1.261,-0.07 1.117,-0.13 1.078,-0.137 1.381,-0.275 0.918,-0.23 1.209,-0.246 0.748,-0.331 0.299,-0.013 0.532,-0.052 0.009,-0.043 2.804,-0.554 1.107,-3.647 -1.594,-1.042 -2.244,-0.966 -0.077,0.027 -1.188,2.085 -1.125,0.483 0.989,-2.591 1.631,-0.788 -1.047,0.074 -0.641,0.065 -1.345,0.222 -0.894,0.373 -0.668,0.106 -0.959,0.239 -0.966,0.195 -0.8,0.097 -0.877,0.105 -0.852,0.047 -0.841,-10e-4 -0.881,0.002 -0.989,-0.061 -0.91,0.059 -0.595,-0.056 -0.734,10e-4 -0.206,-0.018 -0.337,-0.081 -0.46,-0.077 -0.013,10e-4 -0.027,-0.036 -0.304,-0.399 -0.541,-0.646 -0.497,-0.665 -0.736,-0.935 -0.608,-0.684 -0.723,-0.712 -0.704,-0.528 -0.616,-0.62 -0.874,-0.691 -0.651,-0.605 -0.741,-0.685 -0.808,-0.926 -0.886,-0.769 -0.694,-0.804 -0.816,-0.874 -0.842,-0.966 -1.026,-0.968 -0.983,-0.98 -1.057,-0.927 -1.075,-0.896 -1.305,-1.103 -1.386,-0.951 -1.286,-0.951 -1.327,-0.994 -1.46,-1.214 -1.569,-1.088 -1.287,-1.009 -1.523,-1.157 -1.41,-1.013 -1.195,-0.989 -1.232,-1.121 -1.204,-1.089 -1.11,-1.054 -1.114,-1.114 -1.261,-1.319 -1.069,-1.118 -1.042,-1.308 -0.583,-0.778 -0.61,-0.813 -1.093,-1.471 -0.487,-0.774 -0.587,-0.925 -0.646,-0.954 -0.594,-0.877 -0.565,-0.877 -0.581,-0.9 -0.61,-0.959 -0.622,-0.977 -0.592,-0.918 -0.587,-0.91 -0.587,-0.909 -0.692,-1.063 -1.325,-1.648 -0.596,-0.767 -0.657,-0.844 -1.274,-1.517 -1.171,-1.392 -0.557,-0.745 -0.609,-0.813 -1.197,-1.616 -0.676,-0.86 -0.66,-0.84 -1.237,-1.532 -0.665,-0.838 -0.611,-0.768 -0.555,-0.795 -0.616,-0.88 -0.616,-0.88 -0.567,-0.808 -0.598,-0.954 -0.664,-1.056 -0.635,-0.967 -0.657,-1.001 -0.718,-0.999 -0.645,-0.898 -0.647,-0.957 -0.63,-0.929 -0.602,-0.988 -0.627,-1.025 -0.598,-1.025 -0.598,-1.025 -0.568,-1.024 -0.634,-1.138 -0.695,-1.107 -0.618,-0.983 -0.56,-0.953 -0.606,-1.03 -0.636,-1.03 -0.621,-1.005 -0.591,-0.946 -0.595,-0.951 -0.623,-0.98 -0.622,-0.977 -0.593,-0.919 -0.588,-0.911 -0.646,-1 -0.687,-1.06 -0.688,-0.971 -0.582,-0.817 -0.556,-0.903 -0.655,-1.059 -0.715,-1.057 -0.682,-1.009 -0.653,-0.949 -0.577,-0.836 -0.522,-0.892 -0.625,-1.061 -0.685,-1.061 -0.618,-0.953 -0.56,-0.925 -0.64,-1.053 -0.701,-1.022 -0.616,-0.896 -0.559,-0.867 -0.644,-0.996 -0.706,-0.965 -0.577,-0.783 -0.492,-0.78 -0.669,-1.047 -1.275,-1.583 -1.025,-1.484 -1.115,-1.467 -1.07,-1.545 -1.048,-1.338 -0.949,-1.398 -1.044,-1.474 -1.077,-1.437 -0.969,-1.311 -0.998,-1.408 -0.997,-1.349 -0.902,-1.27 -0.836,-1.397 -0.939,-1.467 -0.501,-0.837 -0.494,-0.821 -0.465,-0.85 -0.438,-0.793 -0.384,-0.85 -0.476,-1.046 -0.537,-1.044 -0.499,-0.969 -0.499,-0.968 -0.46,-0.891 -0.403,-0.89 -0.485,-1.063 -0.576,-1.092 -0.541,-1.02 -0.51,-0.932 -0.457,-0.83 -0.4,-0.83 -0.492,-1.011 -0.553,-0.979 -0.478,-0.844 -0.859,-1.604 -0.967,-1.812 -0.559,-0.964 -0.519,-0.894 -0.49,-0.864 -0.484,-0.855 -0.515,-0.943 -0.498,-0.913 -0.471,-0.942 -0.543,-1.084 -0.634,-1.111 -0.597,-1.046 -0.598,-1.016 -0.555,-0.943 -0.556,-1.03 -0.648,-1.194 -0.681,-1.074 -0.611,-0.96 -0.64,-1.018 -0.658,-1.046 -0.657,-1.017 -0.645,-0.995 -0.585,-0.908 -0.56,-0.868 -0.561,-0.926 -0.574,-0.946 -1.015,-1.731 -0.589,-0.931 -0.5,-0.786 -0.444,-0.813 -0.532,-0.969 -0.562,-0.939 -0.461,-0.763 -0.407,-0.82 -0.498,-0.994 -0.558,-1.023 -0.559,-1.024 -0.589,-0.994 -0.524,-0.88 -0.524,-0.968 -0.564,-1.039 -0.622,-1.126 -0.626,-1.132 -0.626,-1.102 -0.571,-1.005 -0.515,-1.033 -0.591,-1.179 -0.65,-1.178 -0.555,-1 -0.443,-0.969 -0.515,-1.121 -0.575,-1.18 -0.506,-1.036 -0.394,-0.975 -0.443,-1.094 -0.415,-1.006 -0.407,-0.99 -0.378,-0.931 -0.371,-0.912 -0.689,-1.781 -0.687,-1.803 -0.74,-1.609 -0.668,-1.517 -0.683,-1.368 -0.649,-1.292 -0.763,-1.277 -0.579,-0.984 -0.654,-1.108 -0.554,-0.802 -0.426,-0.669 -0.176,-0.404 -0.32,-0.747 -0.201,-0.503 -0.411,-1.114 -1.235,-1.999 -5.756,1.156 2.645,3.916 0.76,-0.521 0.392,-0.393 1.179,0.304 z"
       id="path31"
       inkscape:connector-curvature="0"
       style="fill:#000000;stroke:none" />
    <path
       __timestamp="0x14bc22375de"
       __comx="305.005"
       __comy="548.587"
       d="m 331.764,498.9 -0.018,-2.519 -3.082,0.326 -0.277,-0.076 -0.939,0.915 -0.483,0.391 -0.272,0.126 3.734,1.54 0.09,3.785 0.751,-0.669 0.779,-0.531 -0.256,-0.029 -1.431,-0.142 -0.425,-0.167 0.187,0.195 0.135,0.206 -0.085,-0.319 -0.037,0.196 0.036,0.381 -0.201,0.557 -0.26,1.003 -0.35,0.938 -0.424,1.118 -0.424,0.946 -0.601,1.084 -0.56,1.301 -0.57,1.137 -0.56,1.021 -0.626,0.988 -0.669,1.002 -0.774,1.132 -0.728,1.122 -0.663,0.905 -0.804,0.899 -0.81,0.864 -0.939,0.938 -0.84,0.899 -0.899,0.84 -0.861,0.861 -0.673,0.676 -0.818,0.707 -0.682,0.619 -0.704,0.646 -0.701,0.638 -0.598,0.607 -0.763,0.587 -0.715,0.722 -0.718,0.502 -0.954,0.814 -0.882,0.773 -0.749,0.587 -0.807,0.634 -0.679,0.523 -0.804,0.56 -0.591,0.487 -0.61,0.386 -0.75,0.581 -0.304,0.297 -0.634,0.344 -0.671,0.562 -0.6,0.447 -0.36,0.274 -0.598,0.378 -0.618,0.432 -0.575,0.385 -0.572,0.427 -0.45,0.353 -1.031,0.686 -0.439,0.331 -0.752,0.488 -0.531,0.457 -0.435,0.298 -0.749,0.532 -0.32,0.317 -0.491,0.231 -0.689,0.518 -0.867,0.558 -0.889,0.572 -0.968,0.692 -0.937,0.748 -0.752,0.604 -0.47,0.528 -0.452,0.341 -0.73,0.768 -0.242,0.1 -0.694,0.46 -0.455,0.365 -0.573,0.176 -0.797,0.395 -0.715,0.443 -0.853,0.402 -0.508,0.367 0.246,-0.086 0.386,-0.039 -0.106,-0.054 -0.755,-0.162 -0.551,-0.122 -0.807,-0.157 -1.164,-0.095 -0.431,0.062 -0.255,-0.08 -0.624,-0.079 0.235,0.155 0.626,0.38 0.255,0.458 0.126,0.416 0.005,-0.393 -0.004,-0.412 0.043,-0.394 0.028,-0.3 0.028,-0.276 0.229,-0.304 0.465,-0.684 0.777,-0.882 -3.906,0.143 -1.01,-0.116 3.548,-2.694 -0.004,-0.013 1.437,-1.99 -0.541,-1.289 -4.962,1.551 -0.866,0.995 -0.826,1.194 -0.827,1.455 -0.441,1.719 -0.09,0.756 -0.074,0.78 -0.004,0.761 0.005,0.78 0.244,1.473 1.193,1.983 2.034,1.436 1.526,0.272 0.315,0.038 1.035,0.155 0.743,-0.056 0.127,0.023 0.366,0.078 0.505,0.112 0.887,0.19 1.185,0.181 1.56,-0.156 1.418,-0.555 0.666,-0.455 0.673,-0.302 0.81,-0.496 0.142,-0.074 1.069,-0.41 1.188,-0.808 0.362,-0.245 0.814,-0.487 1.147,-1.109 0.604,-0.48 0.47,-0.528 0.303,-0.217 0.823,-0.661 0.675,-0.481 0.754,-0.484 1.127,-0.733 0.367,-0.303 0.683,-0.356 0.736,-0.622 0.424,-0.289 0.738,-0.523 0.409,-0.364 0.538,-0.334 0.5,-0.373 1.081,-0.722 0.606,-0.469 0.366,-0.276 0.481,-0.319 0.556,-0.39 0.693,-0.443 0.578,-0.431 0.808,-0.609 0.268,-0.259 0.656,-0.36 0.753,-0.641 0.306,-0.24 0.68,-0.436 0.7,-0.568 0.721,-0.497 0.847,-0.65 0.836,-0.657 0.893,-0.703 0.996,-0.87 0.688,-0.594 0.925,-0.672 0.81,-0.803 0.763,-0.587 0.81,-0.801 0.589,-0.535 0.704,-0.645 0.61,-0.554 0.941,-0.819 0.853,-0.849 0.781,-0.782 0.979,-0.919 0.919,-0.979 0.939,-0.939 0.95,-1.014 1.074,-1.212 0.979,-1.325 0.797,-1.224 0.751,-1.098 0.74,-1.11 0.782,-1.241 0.731,-1.326 0.721,-1.444 0.495,-1.164 0.573,-1.027 0.632,-1.402 0.514,-1.345 0.472,-1.291 0.326,-1.227 0.386,-1.438 0.036,-1.379 -0.037,-1.212 -0.437,-1.493 -0.921,-1.553 -0.986,-1.097 -1.716,-1.223 -2.604,-0.258 -2.016,0.91 -1.45,0.994 -1.244,1.09 -1.201,5.077 5.025,1.07 1.253,-0.695 1.277,-1.018 0.704,-0.727 1.483,-1.249 -2.73,-0.966 0.216,-0.876 z"
       id="path33"
       inkscape:connector-curvature="0"
       style="fill:#000000;stroke:none" />
    <path
       __timestamp="0x14bc2237d89"
       __comx="314.540"
       __comy="548.587"
       d="m 338.246,513.02 0.435,-0.949 1.406,0.55 -0.968,1.94 -0.428,0.44 1.258,-0.717 0.559,-0.299 0.998,-0.394 -0.052,-0.047 0.446,0.046 0.298,-0.101 0.143,0.081 0.036,-0.033 -0.34,-0.139 0.079,0.047 0.002,0.035 0.228,0.606 0.201,0.454 0.025,0.428 0.149,0.473 -0.028,0.267 0.07,0.239 -0.085,0.111 -0.161,0.708 -0.163,0.528 -0.244,0.628 -0.245,0.637 -0.31,0.528 -0.577,0.905 -0.496,0.986 -0.469,0.776 -0.491,0.845 -0.662,0.877 -0.636,0.984 -0.7,0.911 -0.831,1.128 -0.811,1.083 -0.911,1.081 -0.847,1.075 -0.997,1.114 -0.948,1.199 -0.846,1.071 -0.84,0.999 -1.035,1.111 -0.74,1.041 -0.88,0.998 -0.778,1.095 -0.699,0.913 -0.637,0.797 -0.718,0.827 -0.757,0.874 -0.738,0.846 -0.727,0.725 -0.763,0.822 -0.885,0.889 -0.442,0.554 -0.705,0.538 -0.682,0.679 -0.573,0.472 -0.555,0.456 -0.532,0.386 -0.844,0.587 -0.62,0.51 -0.838,0.555 -0.783,0.602 -0.862,0.591 -0.918,0.631 -1.056,0.704 -0.939,0.646 -0.977,0.652 -0.973,0.593 -0.972,0.572 -0.96,0.565 -0.951,0.529 -1.065,0.533 -0.901,0.509 -0.998,0.469 -0.975,0.547 -0.708,0.353 -1.045,0.493 -0.67,0.366 -0.994,0.408 -0.587,0.381 -0.657,0.218 -0.743,0.369 -0.712,0.272 -0.973,0.449 -0.694,0.377 -0.59,0.295 -0.766,0.353 -0.586,0.352 -0.526,0.233 -0.301,0.16 -0.067,0.022 -0.21,0.067 0.358,0.03 -0.658,-0.274 -0.547,-0.143 -0.437,-0.2 -0.737,-0.25 -0.76,-0.226 -0.837,-0.183 -0.843,-0.075 -0.186,-0.081 0.117,0.151 0.443,0.605 0.107,0.579 0.066,0.069 0.326,-0.869 -0.537,-3.78 -4.543,-1.131 -3.172,3.474 3.666,4.352 2.194,-1.129 0.574,-1.613 0.339,-2.492 -0.01,-0.01 -2.007,-0.38 -1.539,-0.909 1.138,-0.425 2.611,3.296 -1.765,2.535 -2.9,-1.13 -0.772,-2.608 -0.261,0.657 -0.403,1.829 0.46,2.456 1.38,1.896 1.643,0.973 1.457,0.505 1.269,0.16 0.219,0.051 0.413,0.126 0.319,0.103 0.619,0.268 0.744,0.21 1.22,0.43 1.531,0.147 1.667,-0.285 0.99,-0.33 0.637,-0.31 0.765,-0.353 0.587,-0.352 0.525,-0.233 0.818,-0.409 0.596,-0.327 0.553,-0.255 0.813,-0.315 0.665,-0.336 0.986,-0.368 0.704,-0.44 0.765,-0.296 0.856,-0.456 0.95,-0.446 0.935,-0.468 0.902,-0.509 0.997,-0.469 0.976,-0.547 1.047,-0.524 1.161,-0.644 1.034,-0.608 1.023,-0.602 1.14,-0.697 1.134,-0.756 0.939,-0.645 1.056,-0.704 0.96,-0.66 1.014,-0.699 0.743,-0.572 0.922,-0.618 0.67,-0.546 0.683,-0.469 0.758,-0.553 0.735,-0.6 0.836,-0.701 0.608,-0.612 0.938,-0.753 0.732,-0.854 0.757,-0.753 0.762,-0.821 0.799,-0.801 0.905,-1.031 0.768,-0.886 0.807,-0.933 0.771,-0.963 0.827,-1.081 0.629,-0.9 0.88,-0.997 0.669,-0.954 0.842,-0.884 1.037,-1.23 0.915,-1.158 0.812,-1.031 0.997,-1.115 0.914,-1.155 0.966,-1.148 0.949,-1.264 0.811,-1.101 0.825,-1.084 0.655,-1.01 0.746,-1.001 0.683,-1.15 0.587,-0.983 0.443,-0.891 0.479,-0.738 0.628,-1.115 0.459,-1.123 0.343,-0.898 0.307,-0.997 0.19,-0.818 0.267,-1.179 -0.047,-1.17 -0.028,-0.905 -0.203,-0.818 -0.092,-0.745 -0.504,-1.424 -0.593,-1.389 -1.054,-1.489 -1.564,-1.245 -1.396,-0.608 -0.902,-0.151 -1.266,-0.153 -0.875,0.134 -1.079,0.046 -1.225,0.422 -1.349,0.545 -1.201,0.64 -0.15,0.221 -1.249,0.557 -1.438,2.996 1.875,2.427 1.961,-0.01 z"
       id="path35"
       inkscape:connector-curvature="0"
       style="fill:#000000;stroke:none" />
    <path
       __timestamp="0x14bc2238531"
       __comx="320.404"
       __comy="548.587"
       d="m 349.041,532.831 1.361,-0.991 0.747,0.929 0.057,0.145 0.309,-0.412 0.464,-0.607 0.266,-0.318 0.061,-0.052 -0.18,0.042 -0.062,0.034 -0.153,-0.038 -0.222,-0.153 -0.028,0.069 0.18,0.16 0.239,0.822 0.148,0.136 -0.08,-0.023 0.049,0.559 0.031,0.132 -0.156,0.425 -0.172,0.784 -0.183,0.402 -0.204,0.42 -0.603,0.682 -0.665,0.987 -0.479,0.661 -0.734,0.8 -0.613,0.873 -0.605,0.768 -0.609,0.814 -0.642,0.96 -0.519,0.782 -0.554,0.717 -0.655,0.918 -0.532,0.802 -0.626,0.779 -0.8,1.028 -0.778,0.936 -0.751,0.802 -1.035,1.105 -0.81,1.035 -1.006,0.948 -0.932,1.184 -0.719,0.82 -0.786,0.842 -0.806,0.869 -0.809,0.932 -0.772,0.904 -0.792,1.033 -0.763,0.939 -0.714,0.937 -0.996,1.128 -0.824,1.196 -0.744,0.94 -0.902,1.014 -0.871,1.038 -0.915,0.911 -0.846,0.8 -1.025,0.806 -0.952,0.785 -0.973,0.717 -1.181,0.786 -1.098,0.752 -1.211,0.787 -1.037,0.75 -1.166,0.74 -1.272,0.986 -0.967,0.845 -0.867,0.704 -0.826,0.649 -0.685,0.56 -0.337,0.321 -0.484,0.199 -0.814,0.533 -0.348,0.191 -0.769,0.325 -0.693,0.408 -0.242,0.128 -0.433,0.135 -0.723,0.223 -0.616,0.193 -0.757,0.16 -0.762,0.208 -0.574,0.076 -1.054,0.125 -0.794,0.152 -0.809,-0.013 -0.905,0.001 -0.91,-0.047 -0.987,-0.116 -0.954,-0.055 -0.658,-0.097 -0.454,-0.057 0.059,0.022 -0.09,-0.062 -0.07,0.037 -0.047,-0.219 -0.58,-0.9 -0.612,-0.884 -1.101,-1.327 -1.663,-1.01 -0.824,-0.246 -0.642,-0.273 -1.145,-0.245 -0.742,-0.072 -0.979,-0.132 -0.894,-0.009 -0.389,0.014 -0.399,-0.086 0.374,0.31 1.273,1.857 -1.304,2.956 -1.118,0.653 1.506,-0.272 1.27,-0.275 1.318,-1.014 0.741,-0.856 0.813,-1.102 0.788,-1.365 0.587,-1.421 -0.007,-0.011 -1.525,-0.189 -1.324,-0.133 -1.064,-0.398 -1.136,-0.152 -1.147,-0.075 -0.725,0.136 -0.488,0.138 -2.409,0.536 -1.656,4.13 2.094,2.912 2.017,0.545 0.892,0.148 1.018,0.014 0.398,-0.009 0.663,0.103 0.549,0.046 0.029,-0.011 0.414,0.196 0.466,0.107 -0.255,-0.189 0.072,0.198 0.444,0.642 0.477,0.742 0.891,1.307 1.455,1.093 0.967,0.524 1.115,0.375 1.071,0.177 0.985,0.138 1.04,0.063 1.008,0.118 1.32,0.07 1.089,10e-4 1.42,-0.013 1.201,-0.2 0.94,-0.11 1.069,-0.158 0.999,-0.261 0.885,-0.192 0.91,-0.277 0.802,-0.247 0.975,-0.334 0.931,-0.458 0.481,-0.296 0.639,-0.262 0.943,-0.513 0.594,-0.405 0.806,-0.389 1.071,-0.851 0.606,-0.497 0.817,-0.641 1.01,-0.822 0.91,-0.797 0.84,-0.657 1.063,-0.668 1.075,-0.776 1.137,-0.738 1.131,-0.774 1.283,-0.856 1.257,-0.926 1.043,-0.858 1.203,-0.954 1.149,-1.077 1.197,-1.201 1.007,-1.192 0.975,-1.098 1.016,-1.289 0.701,-1.033 0.881,-0.984 0.812,-1.058 0.762,-0.938 0.734,-0.962 0.636,-0.739 0.716,-0.828 0.72,-0.773 0.856,-0.918 0.924,-1.058 0.71,-0.928 0.989,-0.929 0.951,-1.194 0.842,-0.89 0.892,-0.958 0.981,-1.177 0.844,-1.083 0.781,-0.982 0.642,-0.958 0.518,-0.725 0.62,-0.808 0.654,-0.977 0.531,-0.8 0.447,-0.594 0.686,-0.875 0.443,-0.652 0.674,-0.726 0.812,-1.099 0.508,-0.773 0.805,-0.961 0.734,-1.34 0.521,-1.241 0.298,-1.21 0.313,-1.218 0.031,-1.393 -0.068,-0.849 -0.197,-1.432 -0.439,-0.919 -0.465,-1.29 -0.993,-1.365 -1.201,-1.222 -1.749,-0.858 -1.325,-0.272 -1.823,0.034 -1.822,0.629 -1.465,1.003 -1.024,1.091 -0.71,0.917 -0.629,0.879 -0.765,1.671 0.63,2.688 2.534,0.418 z"
       id="path37"
       inkscape:connector-curvature="0"
       style="fill:#000000;stroke:none" />
    <path
       __timestamp="0x14bc2238b94"
       __comx="333.457"
       __comy="548.587"
       d="m 356.109,551.521 2.21,1.035 0.182,0.941 0.193,-0.874 -0.957,1.197 1.6,-1.234 1.098,-0.851 0.044,-0.214 0.419,-0.068 0.684,-0.528 0.667,-0.295 0.487,-0.355 0.681,-0.252 0.31,-0.218 0.217,-0.021 -0.356,-0.099 -1.451,-0.526 -0.221,-0.06 0.39,0.634 0.273,0.439 0.127,0.401 -0.007,0.115 0,0.328 -0.026,0.301 -0.085,0.448 -0.349,1.051 -0.058,0.939 -0.273,0.728 -0.133,1.066 -0.252,0.766 -0.254,1.133 -0.254,0.967 -0.263,0.848 -0.362,0.802 -0.524,1.049 -0.485,1.086 -0.704,1.232 -0.541,1.199 -0.528,0.957 -0.649,1.024 -0.681,1.079 -0.654,0.981 -0.666,0.944 -0.778,1.077 -0.777,1.135 -0.724,1.04 -0.719,0.861 -0.902,0.956 -0.972,1.093 -0.907,1.021 -0.81,0.864 -0.912,0.912 -0.73,0.677 -0.927,0.807 -0.865,0.862 -0.868,0.809 -0.808,0.867 -0.821,0.821 -0.848,0.913 -0.763,0.88 -0.677,0.73 -0.671,0.671 -0.771,0.715 -0.81,0.748 -0.556,0.58 -0.727,0.468 -0.88,0.704 -0.868,0.578 -0.821,0.645 -0.657,0.438 -0.918,0.515 -1.026,0.663 -1.084,0.642 -0.814,0.603 -0.931,0.487 -0.884,0.59 -0.598,0.317 -0.78,0.333 -0.805,0.403 -0.475,0.198 -0.491,0.163 -0.552,0.149 -0.498,0.139 -0.33,0.061 -0.536,0.041 -0.704,0.058 -0.847,0.074 -0.846,0.138 -0.729,0.121 -0.874,0.165 -0.763,0.235 -0.496,0.084 -1.012,0.22 -0.508,0.157 -0.358,0.055 -0.482,0.041 -0.663,0.05 -0.638,-0.003 -0.888,0.003 -1.088,0.078 -0.754,0.116 -1.172,0.104 -1.064,0.325 -0.866,0.249 -0.625,0.228 -0.761,0.215 -0.619,0.269 -0.175,0.101 0.321,-0.033 -0.704,-0.117 -0.564,-0.007 -0.335,-0.042 -0.587,-0.065 -0.763,-0.059 -0.349,-0.037 -0.283,-0.045 1.065,0.856 0.686,1.42 0.048,0.106 0.087,-0.509 0.241,-0.787 0.096,-0.619 0.21,-0.555 0.177,-0.762 0.237,-1.199 -1.096,1.665 -1.53,0.997 2.063,-0.26 0.763,-0.996 0.427,-1.718 0.296,-1.752 -0.008,-0.011 -1.464,-0.579 -1.215,-1.131 -0.411,-0.527 -0.518,-0.025 -3.173,0.879 -1.096,2.721 -0.114,0.444 -0.058,0.294 -0.26,0.736 -0.139,0.789 -0.228,0.738 -0.148,0.782 -0.186,1.162 1.038,3.298 2.473,1.324 1.007,0.19 0.707,0.08 0.763,0.059 0.469,0.053 0.721,0.074 0.374,-0.006 0.704,0.117 1.377,-0.033 1.585,-0.485 0.437,-0.201 0.531,-0.137 0.665,-0.241 0.776,-0.221 0.345,-0.144 0.588,-0.014 0.771,-0.118 0.555,-0.039 0.638,0.002 0.887,-0.002 0.98,-0.068 0.808,-0.075 1.05,-0.18 0.665,-0.195 0.631,-0.133 0.795,-0.15 0.762,-0.235 0.417,-0.069 0.679,-0.114 0.562,-0.096 0.561,-0.044 0.704,-0.059 0.872,-0.076 0.961,-0.174 0.792,-0.213 0.739,-0.203 0.917,-0.306 0.933,-0.389 0.838,-0.418 0.863,-0.372 1.162,-0.621 0.875,-0.584 1.064,-0.569 0.946,-0.687 0.911,-0.532 0.969,-0.628 0.959,-0.54 1.104,-0.736 0.821,-0.645 0.892,-0.596 0.88,-0.704 1.033,-0.705 0.969,-0.946 0.716,-0.659 0.872,-0.811 0.854,-0.855 0.848,-0.912 0.762,-0.88 0.678,-0.73 0.822,-0.822 0.717,-0.775 0.775,-0.717 0.778,-0.78 0.832,-0.719 0.913,-0.848 1.083,-1.083 0.95,-1.013 0.97,-1.091 0.905,-1.019 0.976,-1.039 1.041,-1.251 0.919,-1.307 0.748,-1.094 0.748,-1.035 0.741,-1.051 0.754,-1.131 0.727,-1.151 0.76,-1.205 0.762,-1.389 0.516,-1.148 0.704,-1.232 0.57,-1.26 0.532,-1.064 0.577,-1.31 0.441,-1.381 0.333,-1.263 0.215,-0.978 0.335,-1.112 0.102,-0.929 0.313,-0.915 0.059,-0.938 0.238,-0.592 0.267,-1.312 0.091,-0.989 0,-0.963 -0.123,-1.176 -0.578,-1.828 -0.665,-1.204 -0.549,-0.891 -1.277,-1.586 -2.625,-0.994 -1.881,0.37 -1.073,0.331 -0.63,0.368 -0.843,0.335 -0.687,0.466 -0.859,0.409 -0.488,0.411 -1.107,0.519 -0.778,0.842 -0.779,0.556 0.309,0.057 -2.013,1.197 0.546,0.182 -0.992,0.589 3.5,2.208 z"
       id="path39"
       inkscape:connector-curvature="0"
       style="fill:#000000;stroke:none" />
    <path
       __timestamp="0x14bc2239216"
       __comx="348.856"
       __comy="626.944"
       d="m 366.378,572.352 2.675,0.823 -0.581,1.244 1.672,-1.431 0.057,-0.223 0.592,-0.304 0.422,-0.605 0.722,-0.329 0.75,-0.848 0.659,-0.356 0.809,-0.695 0.843,-0.482 0.869,-0.602 1.008,-0.525 0.852,-0.51 0.977,-0.401 0.713,-0.418 0.678,-0.211 0.469,-0.215 0.621,-0.11 0.281,-0.161 -0.339,0.057 0.087,-0.059 -0.029,0.037 0.204,0.137 -0.014,0.173 0.216,0.419 -0.002,0.144 -0.049,0.645 -0.059,0.647 -0.275,0.867 -0.304,1.025 -0.398,0.988 -0.47,1.099 -0.585,1.168 -0.614,1.171 -0.615,1.118 -0.658,1.154 -0.7,1.129 -0.767,1.15 -0.789,1.127 -0.82,1.151 -0.789,0.998 -1.025,1.207 -0.919,1.224 -0.819,1.037 -0.975,1.16 -0.855,1.158 -0.852,1.079 -0.906,1.168 -0.872,1.305 -0.774,1.106 -0.788,1.068 -0.871,1.161 -0.88,1.174 -0.82,1.095 -0.882,1.045 -0.781,0.944 -0.808,0.803 -0.899,0.957 -0.86,0.804 -0.939,0.88 -0.938,0.88 -0.98,0.919 -0.92,0.919 -0.978,0.979 -0.88,0.939 -0.859,0.859 -0.854,0.8 -0.98,0.86 -0.882,0.886 -0.732,0.579 -0.88,0.704 -0.89,0.713 -1.038,0.845 -0.77,0.719 -0.807,0.6 -1.15,0.885 -1.008,0.948 -0.893,0.689 -1.044,0.769 -1.173,0.822 -1.047,0.773 -1.064,0.67 -1.058,0.726 -0.875,0.508 -0.872,0.412 -0.972,0.376 -0.791,0.335 -0.763,0.182 -0.896,0.268 -0.676,0.123 -0.674,0.091 -0.88,0.058 -0.88,0.118 -0.88,0.058 -0.88,0.118 -0.757,0.048 -0.939,0.059 -0.771,0.053 -0.398,0.007 -0.534,-0.085 -0.435,-0.065 -0.438,-0.141 -0.2,-0.071 0.076,0.063 -0.491,-0.461 -0.722,-0.667 -0.948,-0.864 -1.635,-1.04 -1.228,-0.283 0.874,0.555 0.906,1.515 0.158,-0.072 0.007,-0.759 -0.006,-0.37 0.065,-0.686 -0.123,-1.139 -0.677,-2.024 -1.507,-1.562 -0.127,0.033 0.413,0.708 -0.086,1.543 -0.239,-0.134 -0.806,-1.544 -0.694,-1.803 -0.012,-0.008 -2.102,0.309 -1.392,-0.136 -1.413,1.157 0.031,2.599 1,1.882 1.046,0.853 -0.099,-0.27 -0.207,-0.264 -0.006,-0.2 -0.052,0.251 -0.007,0.805 0.008,0.296 -0.077,1.688 1.492,2.689 2.048,0.906 0.18,-0.048 -0.11,0.016 0.577,0.544 0.804,0.741 1.269,1.065 1.014,0.532 0.739,0.281 1.088,0.328 0.973,0.17 1.109,0.15 1.127,0.006 0.989,-0.064 0.939,-0.058 1.002,-0.069 0.88,-0.117 0.88,-0.059 0.88,-0.117 0.88,-0.059 1.086,-0.144 1.202,-0.229 1.099,-0.319 1.114,-0.287 1.204,-0.486 1.14,-0.446 1.357,-0.644 1.354,-0.783 1.171,-0.799 1.166,-0.738 1.183,-0.869 1.173,-0.821 1.186,-0.874 1.219,-0.953 0.987,-0.93 0.845,-0.64 1.069,-0.808 0.873,-0.807 0.84,-0.68 0.87,-0.696 0.88,-0.704 1.028,-0.829 0.995,-0.99 0.897,-0.784 1.024,-0.959 1.019,-1.019 0.88,-0.938 0.899,-0.899 0.84,-0.84 0.897,-0.841 0.939,-0.88 0.939,-0.88 1.017,-0.957 0.978,-1.037 0.953,-0.957 0.978,-1.169 0.996,-1.184 0.94,-1.251 0.88,-1.174 0.889,-1.185 0.855,-1.161 0.869,-1.241 0.771,-1.16 0.736,-0.943 0.908,-1.151 0.788,-1.071 0.902,-1.069 0.941,-1.192 0.841,-1.124 0.97,-1.139 0.971,-1.231 0.94,-1.314 0.853,-1.219 0.876,-1.315 0.826,-1.334 0.749,-1.31 0.676,-1.23 0.678,-1.292 0.705,-1.413 0.586,-1.365 0.54,-1.359 0.4,-1.322 0.429,-1.48 0.176,-1.464 0.069,-1.467 -0.237,-1.734 -0.488,-1.224 -0.601,-1.352 -1.79,-1.858 -2.024,-1.136 -1.908,-0.294 -1.395,0.057 -0.892,0.308 -0.67,0.124 -0.939,0.373 -1.082,0.375 -0.93,0.521 -1.017,0.42 -1.143,0.664 -1.221,0.648 -1.009,0.689 -1.152,0.691 -0.834,0.713 -1.1,0.7 -0.541,0.678 -0.921,0.492 -0.517,0.686 -0.698,0.4 -0.647,0.833 0.264,-0.141 -1.872,1.596 3.144,2.466 z"
       id="path41"
       inkscape:connector-curvature="0"
       style="fill:#000000;stroke:none" />
    <path
       __timestamp="0x14bc22398a0"
       __comx="352.443"
       __comy="626.944"
       d="m 377.93,590.827 1.37,-0.378 -0.268,3.35 0.594,-0.232 1.627,-0.512 0.134,-0.232 0.255,0.142 0.477,-0.157 0.119,0.098 0.265,0.03 0.066,0.054 -0.105,-0.131 0.06,0.192 0.163,0.236 0.082,0.519 0.132,0.715 0.035,0.659 -0.049,0.852 -0.062,0.818 -0.297,0.937 -0.236,1.042 -0.444,1.003 -0.487,1.255 -0.55,1.092 -0.645,1.183 -0.673,1.142 -0.788,1.152 -0.92,1.265 -0.914,1.297 -0.949,1.102 -1.084,1.255 -1.059,1.17 -1.118,1.177 -0.994,1.108 -1.109,1.05 -1.205,1.205 -1.2,1.2 -1.232,1.174 -1.205,1.323 -1.229,1.229 -1.232,1.35 -1.179,1.178 -1.288,1.175 -1.319,1.2 -1.24,1.186 -1.325,1.111 -1.407,1.082 -1.549,1.09 -1.478,1.081 -0.777,0.507 -0.814,0.534 -0.815,0.505 -0.828,0.515 -0.857,0.514 -0.927,0.556 -1.548,0.999 -1.701,0.881 -1.578,1.019 -1.432,0.656 -1.652,0.773 -1.378,0.528 -1.197,0.44 -1.201,0.242 -1.023,0.245 -0.977,0.038 -0.86,0.107 -0.636,-0.053 -1.047,-0.064 -0.738,10e-4 -0.763,-0.059 -0.866,10e-4 -0.863,0.069 -0.658,0.059 -0.661,0.061 -0.587,0.058 -0.471,0.047 -0.428,-0.004 -0.393,0.005 -0.066,-0.002 -0.416,-0.124 -0.173,0.01 -0.633,-0.397 -1.042,-0.25 -0.459,-0.179 -0.472,-0.136 -1.017,-0.376 -0.981,-0.039 1.437,0.87 0.724,2.882 -0.583,1.208 -0.015,-0.061 0.136,0.032 1.334,-0.086 1.644,-1.735 0.215,-2.105 -0.006,-0.013 -1.076,-1.518 -1.172,-1.618 -1.951,0.149 -1.975,0.501 -1.659,1.113 -1.638,2.264 0.958,3.82 2.61,1.223 0.545,-0.04 0.038,0.093 0.702,0.217 0.832,0.29 0.249,-0.015 0.423,0.307 1.235,0.362 0.874,0.227 0.991,0.116 0.78,0.005 0.745,-0.004 0.819,-0.07 0.587,-0.059 0.63,-0.057 0.632,-0.058 0.546,-0.048 0.307,0 0.762,0.059 0.788,10e-4 0.83,0.053 1.241,0.065 1.252,-0.128 1.37,-0.08 1.559,-0.341 1.615,-0.345 1.736,-0.616 1.673,-0.646 1.868,-0.869 1.853,-0.869 1.708,-1.093 1.701,-0.88 1.737,-1.113 0.834,-0.5 0.903,-0.541 0.873,-0.542 0.887,-0.551 0.887,-0.581 0.924,-0.607 1.573,-1.148 1.619,-1.14 1.644,-1.265 1.609,-1.352 1.341,-1.278 1.262,-1.147 1.41,-1.289 1.404,-1.403 1.232,-1.35 1.234,-1.234 1.142,-1.259 1.115,-1.056 1.264,-1.263 1.141,-1.142 1.239,-1.18 1.117,-1.238 1.112,-1.17 1.17,-1.294 1.146,-1.326 1.162,-1.362 1.081,-1.52 0.957,-1.316 0.973,-1.429 0.852,-1.439 0.763,-1.399 0.741,-1.489 0.568,-1.444 0.613,-1.461 0.35,-1.422 0.407,-1.41 0.173,-1.646 0.068,-1.378 -0.082,-1.453 -0.22,-1.279 -0.387,-1.593 -0.658,-1.289 -0.88,-1.333 -1.278,-1.071 -1.459,-0.767 -1.26,-0.322 -1.641,-0.254 -1.166,0.195 -1.623,0.142 -1.039,0.589 -0.837,0.193 -0.931,0.354 -1.442,3.82 2.896,-0.261 z"
       id="path43"
       inkscape:connector-curvature="0"
       style="fill:#000000;stroke:none" />
    <path
       __timestamp="0x14bc2239e49"
       __comx="365.240"
       __comy="626.944"
       d="m 389.02,613.884 1.802,-1.8 0.209,2.988 -0.314,0.56 0.906,-0.51 1.199,-0.573 -0.068,-0.114 -0.099,0.139 0.704,0 0.569,-0.005 0.103,0.009 -0.164,-0.101 -0.183,-0.125 0.216,0.439 0.523,0.67 0.093,0.181 0.04,-0.02 -0.048,-0.004 0.069,0.796 0.096,0.509 -0.035,0.348 -0.152,0.776 -0.106,0.798 -0.349,0.852 -0.346,1.216 -0.351,0.872 -0.611,1.217 -0.559,1.235 -0.705,1.291 -0.559,1.237 -0.684,1.149 -0.666,1.167 -0.698,1.072 -0.738,1.11 -0.798,1.024 -0.813,1.163 -0.79,0.999 -0.747,0.9 -1.056,1.056 -0.911,1.092 -1.015,1.069 -0.999,1.116 -0.862,0.917 -1.04,0.927 -1.068,1.005 -1,0.999 -0.985,0.931 -0.889,0.807 -1.046,0.686 -1.331,0.908 -1.316,0.936 -1.504,0.888 -1.537,0.969 -1.631,0.899 -0.898,0.508 -0.862,0.489 -1.724,0.951 -1.706,1 -1.617,0.899 -1.53,0.942 -1.256,0.707 -1.473,0.648 -1.342,0.759 -1.159,0.499 -1.242,0.521 -1.17,0.369 -1.303,0.437 -1.314,0.326 -1.238,0.339 -1.261,0.273 -1.305,0.284 -1.188,0.226 -1.305,0.249 -0.769,0.194 -0.77,0.029 -0.783,0.054 -0.763,-10e-4 -0.546,0.003 -0.819,-0.062 -0.746,0.063 -0.528,0 -0.791,0.075 -1.016,0.119 -0.541,0.06 -0.6,0.094 1.267,0.501 1.28,1.976 0.131,0.459 0.217,-0.487 0.294,-0.592 0.518,-0.853 0.34,-0.798 0.323,-0.49 -1.644,1.015 -0.601,0.635 1.642,-1.052 -0.35,-4.894 -10e-4,-0.934 -2.83,-0.42 -2.231,2.07 -0.498,0.801 -0.364,0.845 -0.421,0.672 -0.527,1.05 -0.487,1.156 -0.456,2.689 1.867,3.032 2.675,0.618 1.277,-0.141 0.515,-0.057 0.979,-0.115 0.382,-0.043 0.528,0 0.428,-0.054 0.471,0.055 0.863,0.004 0.996,-0.002 0.977,-0.064 1.343,-0.088 1.226,-0.275 1.158,-0.22 1.277,-0.243 1.393,-0.303 1.439,-0.314 1.343,-0.365 1.501,-0.378 1.514,-0.502 1.411,-0.452 1.574,-0.653 1.54,-0.674 1.356,-0.766 1.461,-0.643 1.677,-0.935 1.52,-0.936 1.552,-0.861 1.697,-0.995 1.679,-0.926 0.897,-0.509 0.863,-0.489 1.772,-0.979 1.63,-1.025 1.664,-0.989 1.501,-1.059 1.25,-0.852 1.418,-0.957 1.34,-1.188 1.127,-1.064 0.995,-0.995 0.927,-0.872 1.189,-1.068 1.133,-1.195 0.996,-1.113 1.097,-1.16 0.848,-1.021 1.056,-1.056 1.014,-1.212 0.97,-1.23 0.829,-1.184 0.845,-1.088 0.905,-1.354 0.828,-1.275 0.742,-1.296 0.841,-1.433 0.614,-1.344 0.704,-1.291 0.614,-1.347 0.679,-1.364 0.588,-1.475 0.358,-1.248 0.472,-1.259 0.246,-1.432 0.2,-1.102 0.082,-1.529 -0.138,-1.016 -0.049,-0.612 -0.164,-1.178 -0.548,-1.31 -0.494,-0.875 -0.65,-0.855 -0.84,-1.204 -1.942,-1.416 -1.572,-0.453 -0.954,-0.108 -0.956,-0.006 -0.704,0 -1.859,0.14 -1.358,0.707 -1.031,0.483 -0.972,0.546 -1.956,1.382 -0.026,4.16 3.562,-1.095 z"
       id="path45"
       inkscape:connector-curvature="0"
       style="fill:#000000;stroke:none" />
    <path
       __timestamp="0x14bc223a37e"
       __comx="378.730"
       __comy="626.944"
       d="m 401.7,635.798 -0.024,-2.353 3.298,4.349 0.42,0.749 0.228,-1.026 -1.868,1.444 1.456,-0.477 0.563,-0.146 0.273,-0.017 0.443,-0.045 -0.229,-0.071 0.142,0.141 0.158,0.011 -0.067,-0.012 0.172,0.281 0.146,0.171 -0.017,0.254 0.148,0.868 -0.005,0.648 -0.068,0.63 -0.141,0.55 -0.208,0.604 -0.477,0.886 -0.487,0.938 -0.492,0.727 -0.79,0.825 -1.021,1.141 -1.02,1.131 -1.169,1.113 -1.23,1.118 -1.293,1.124 -1.38,1.15 -1.408,1.173 -1.374,1.146 -1.338,1.059 -1.466,1.102 -1.379,1.188 -1.294,1.11 -1.129,1.076 -1.134,0.904 -1.133,1.014 -0.993,0.818 -1.182,1.051 -0.761,0.773 -0.895,0.647 -1.179,0.856 -0.962,0.853 -0.978,0.661 -1.003,0.726 -0.933,0.59 -1.16,0.637 -1.09,0.684 -1.317,0.57 -1.291,0.763 -1.106,0.474 -1.419,0.567 -1.389,0.557 -1.468,0.507 -1.228,0.453 -1.39,0.259 -1.136,0.32 -1.055,0.098 -1.097,0.224 -0.916,0.044 -1.132,0.131 -0.88,0.117 -1.109,0.134 -1.17,0.234 -1.147,0.334 -0.997,0.293 -0.985,0.29 -0.849,0.243 -0.608,0.212 -0.178,-0.004 -0.118,0.018 0.656,0.231 0.459,0.389 0.144,0.09 -0.214,-0.476 -0.102,-0.251 -0.082,-0.505 -0.292,-1.045 -0.269,-0.62 -0.119,-0.369 -0.078,0 -0.184,1.097 -0.214,0.473 0.073,-0.04 0.513,-0.303 0.347,-0.268 0.067,-0.006 0.84,-0.243 -1.975,-6.715 -1.155,0.343 -1.106,0.463 -0.828,0.554 -0.66,0.401 -0.982,0.781 -1.388,1.881 -0.301,2.389 0.391,1.407 0.233,0.687 0.201,0.437 0.059,0.245 0.153,0.785 0.367,1.041 0.256,0.579 0.613,1.263 2.102,1.797 1.711,0.466 1.173,0.018 1.23,-0.12 1.27,-0.376 0.793,-0.226 1.011,-0.297 0.997,-0.293 0.848,-0.253 0.59,-0.118 0.885,-0.101 0.88,-0.117 0.863,-0.104 1.196,-0.073 1.25,-0.245 1.292,-0.138 1.446,-0.384 1.659,-0.327 1.706,-0.603 1.583,-0.549 1.544,-0.617 1.515,-0.606 1.592,-0.699 1.291,-0.763 1.381,-0.603 1.374,-0.841 1.187,-0.654 1.296,-0.818 1.109,-0.799 1.252,-0.865 1.032,-0.907 0.934,-0.67 1.334,-0.995 0.999,-0.987 0.931,-0.826 1.001,-0.825 1.096,-0.981 1.213,-0.973 1.218,-1.154 1.17,-1.001 1.203,-1.042 1.349,-1.01 1.478,-1.17 1.442,-1.201 1.408,-1.174 1.437,-1.197 1.406,-1.222 1.351,-1.228 1.412,-1.352 1.209,-1.333 0.974,-1.089 1.087,-1.169 1.034,-1.503 0.686,-1.291 0.697,-1.343 0.496,-1.391 0.328,-1.328 0.167,-1.481 -0.005,-1.582 -0.205,-1.362 -0.251,-1.388 -0.793,-1.589 -0.766,-1.126 -1.358,-1.304 -1.132,-0.575 -1.266,-0.563 -1.638,-0.189 -1.082,0.072 -0.9,0.101 -1.667,0.441 0.165,0.109 -2.924,1.21 0.815,0.147 -0.753,-0.072 4.237,5.523 -0.376,-3.644 z"
       id="path47"
       inkscape:connector-curvature="0"
       style="fill:#000000;stroke:none" />
    <path
       __timestamp="0x14bc223aa8c"
       __comx="384.612"
       __comy="659.355"
       d="m 407.497,653.602 -2.237,-0.78 -0.282,-0.988 4.501,0.872 -0.621,3.112 1.008,-0.277 0.398,-0.986 0.051,0.377 0.762,-0.637 0.676,-0.28 0.635,-0.379 0.695,-0.217 0.423,-0.228 0.163,0.032 0.5,-0.049 -0.042,-0.036 -0.404,-0.209 -0.114,0.045 0.064,0.069 -0.012,-0.039 0.072,0.375 0.093,0.225 -0.03,0.298 0.017,0.418 -0.085,0.358 -0.18,0.58 -0.339,0.761 -0.407,0.93 -0.465,1.046 -0.469,1.056 -0.436,0.984 -0.484,0.97 -0.433,1.038 -0.395,0.692 -0.359,0.601 -0.576,0.605 -0.614,0.779 -0.543,0.494 -0.723,0.577 -0.94,0.693 -1.033,0.899 -0.691,0.586 -0.758,0.594 -0.716,0.552 -1.106,0.83 -0.91,0.96 -0.684,0.632 -0.928,0.807 -0.832,0.832 -0.911,0.801 -0.952,0.833 -1.123,1.012 -1.019,0.829 -1.389,0.91 -1.285,1.097 -1.308,0.921 -1.387,1.026 -1.429,1.071 -1.211,0.923 -1.247,0.907 -1.253,0.895 -1.241,0.931 -1.192,0.941 -0.988,0.84 -1.173,0.762 -1.131,0.951 -1.119,0.74 -1.189,0.851 -1.291,0.805 -1.407,0.845 -1.526,0.873 -1.649,0.824 -1.449,0.841 -1.345,0.586 -1.307,0.627 -1.17,0.477 -1.06,0.412 -1.036,0.426 -0.592,0.25 -0.32,0.115 -0.461,0.066 -1.076,0.221 -0.671,0.282 -0.356,0.087 -0.012,0.03 -0.435,-0.02 -0.686,0.079 -0.588,0.092 0.05,0.017 0.154,0.073 -0.006,-0.063 -0.259,-0.147 0.056,-0.043 -0.342,-0.625 -0.284,-0.671 -0.233,-0.503 -0.126,-0.65 -0.457,-1.416 -0.327,-0.586 -0.153,-0.587 -0.457,-0.95 -0.123,-0.006 -0.16,1.608 -0.481,0.81 0.12,-0.028 -0.576,0.096 1.5,-0.12 0.612,-0.654 -0.091,0.354 0.477,-2.299 -0.79,-2.633 -0.696,-1.948 -2.203,0.354 -0.092,0.403 0.092,-0.355 -1.632,0.683 -0.936,0.558 -1.771,2.1 -0.161,2.782 0.698,1.52 0.131,0.223 0.198,0.703 0.377,0.705 0.13,0.462 0.226,0.993 0.47,1.139 0.421,0.971 0.362,0.667 0.525,1.012 1.384,1.379 1.167,0.875 1.797,0.66 1.575,0.135 1.29,-0.144 0.253,-0.038 0.855,-0.02 0.927,-0.204 0.935,-0.266 0.384,-0.187 0.215,-0.014 0.947,-0.168 1.088,-0.354 0.816,-0.337 0.959,-0.395 1.052,-0.41 1.412,-0.579 1.391,-0.664 1.588,-0.704 1.602,-0.92 1.636,-0.818 1.76,-1.004 1.526,-0.915 1.526,-0.956 1.275,-0.909 1.345,-0.903 1.098,-0.926 1.173,-0.763 1.242,-1.037 1.037,-0.819 1.106,-0.829 1.212,-0.865 1.334,-0.971 1.253,-0.954 1.387,-1.041 1.311,-0.969 1.509,-1.073 1.179,-1.015 1.31,-0.851 1.444,-1.165 1.224,-1.1 0.926,-0.81 1.084,-0.959 0.81,-0.81 0.832,-0.719 0.959,-0.893 0.615,-0.683 0.655,-0.461 0.808,-0.622 0.886,-0.696 0.833,-0.704 0.845,-0.744 0.82,-0.598 1.037,-0.831 1.1,-1.032 0.793,-0.98 0.832,-0.921 0.815,-1.276 0.661,-1.185 0.506,-1.192 0.455,-0.907 0.502,-1.129 0.47,-1.056 0.473,-1.065 0.415,-0.948 0.483,-1.116 0.406,-1.298 0.267,-1.402 0.018,-1.107 -0.031,-1.227 -0.259,-1.066 -0.28,-1.033 -0.599,-1.213 -0.639,-0.869 -1.522,-1.481 -2.283,-0.795 -1.331,-0.037 -0.791,0.069 -1.246,0.149 -1.219,0.477 -1.065,0.369 -1.008,0.56 -1.319,0.659 -0.411,0.419 -1.709,0.963 0.046,0.54 -0.634,-0.043 -1.208,4.638 5.791,1.576 -0.633,-1.927 -0.947,-1.015 z"
       id="path49"
       inkscape:connector-curvature="0"
       style="fill:#000000;stroke:none" />
    <path
       __timestamp="0x14bc223b6b8"
       __comx="396.770"
       __comy="681.383"
       d="m 417.766,674.912 3.726,1.161 -0.858,0.09 -1.77,1.567 1.948,-0.847 0.926,-0.409 0.413,-0.183 0.955,-0.24 0.597,-0.284 0.95,-0.092 0.739,-0.275 0.657,-0.013 0.403,-0.096 0.448,0.061 0.213,-0.035 -0.502,-0.172 -0.442,-0.429 -0.169,-0.137 0.036,0.37 0.089,0.556 -0.008,0.9 0.062,1.198 0.055,0.974 -0.087,0.849 -0.194,1.11 -0.281,1.175 -0.239,1.196 -0.375,0.983 -0.53,1.052 -0.756,1.349 -0.783,1.309 -0.942,1.326 -0.949,1.398 -0.985,1.256 -0.981,1.256 -1.015,1.126 -0.877,1.046 -0.881,0.877 -0.659,0.719 -0.664,0.554 -0.714,0.662 -0.817,0.642 -0.808,0.737 -0.675,0.626 -0.89,0.713 -0.788,0.756 -1.005,0.622 -1.131,0.909 -1.149,0.67 -1.368,0.892 -1.249,0.761 -1.467,0.821 -1.226,0.752 -1.419,0.652 -1.168,0.729 -1.236,0.501 -1.232,0.704 -1.203,0.486 -1.199,0.599 -1.202,0.514 -1.325,0.631 -1.072,0.539 -1.068,0.424 -1.088,0.459 -0.979,0.379 -0.877,0.214 -1.212,0.23 -1.205,0.288 -1.152,0.2 -1.307,0.156 -1.458,0.117 -1.521,0.175 -1.525,0.117 -1.536,0.177 -1.208,0.104 -1.204,-0.003 -1.29,0 -1.012,10e-4 -0.793,-0.046 -0.869,-0.104 -0.659,-0.083 -0.57,-0.147 -1.071,-0.225 -0.64,-0.066 -0.627,-0.115 -0.461,-0.048 0.492,0.219 1.072,1.213 0.23,1.515 -0.142,0.468 0.213,-0.276 0.475,-0.653 0.361,-0.545 0.55,-0.531 0.704,-0.704 0.704,-0.704 0.448,-0.472 0.727,-0.468 1.091,-0.871 0.693,-0.636 0.609,-0.479 0.697,-0.464 0.086,-0.14 -3.493,-0.811 0.687,-4.995 1.835,-0.488 1.15,1.806 -0.594,1.496 -0.949,-1.993 -0.012,-0.006 -2.24,0.706 -1.062,2.904 2.205,1.924 2.892,-0.136 1.038,-6.168 -4.666,-0.46 -0.97,0.682 -0.711,0.474 -1.033,0.812 -0.716,0.655 -0.669,0.537 -1.033,0.705 -0.96,0.936 -0.704,0.704 -0.704,0.704 -0.975,0.995 -0.695,0.98 -0.464,0.638 -0.609,0.897 -0.611,1.524 0.231,2.806 2.127,2.152 1.548,0.453 0.595,0.069 0.665,0.121 0.532,0.05 0.572,0.128 0.838,0.204 1.101,0.152 1.126,0.131 1.202,0.071 1.218,0.002 1.29,0 1.495,-0.003 1.609,-0.132 1.514,-0.175 1.525,-0.117 1.531,-0.177 1.475,-0.118 1.627,-0.195 1.546,-0.27 1.259,-0.299 1.252,-0.239 1.47,-0.372 1.485,-0.56 1.142,-0.48 1.278,-0.515 1.274,-0.634 1.139,-0.543 1.263,-0.542 1.147,-0.574 1.379,-0.57 1.232,-0.704 1.345,-0.555 1.297,-0.796 1.396,-0.64 1.473,-0.89 1.467,-0.821 1.45,-0.883 1.33,-0.867 1.432,-0.856 1.216,-0.968 1.225,-0.786 1.089,-1.004 0.87,-0.695 0.851,-0.782 0.599,-0.553 0.826,-0.65 0.811,-0.745 0.862,-0.737 0.866,-0.924 0.997,-1 1,-1.184 1.096,-1.221 1.132,-1.442 1.127,-1.443 1.046,-1.535 1.052,-1.49 0.978,-1.625 0.886,-1.584 0.761,-1.53 0.681,-1.833 0.348,-1.619 0.305,-1.289 0.276,-1.589 0.147,-1.615 -0.062,-1.49 -0.055,-1.032 -0.008,-1.212 -0.146,-1.087 -0.199,-1.155 -0.991,-2.249 -1.967,-1.602 -1.675,-0.525 -0.96,-0.034 -1.078,-0.057 -0.888,0.139 -1.22,0.104 -0.904,0.312 -1.161,0.143 -1.046,0.419 -0.922,0.23 -0.995,0.404 -1.421,0.647 0.422,0.091 -2.943,1.215 0.081,1.498 2.669,1.396 z"
       id="path51"
       inkscape:connector-curvature="0"
       style="fill:#000000;stroke:none" />
    <path
       __timestamp="0x14bc223c109"
       __comx="363.369"
       __comy="368.711"
       d="m 353.75,375.011 2.504,-1.634 0.15,1.106 -0.141,0.48 -0.086,-0.039 0.722,-0.412 0.573,-0.811 0.565,-0.382 0.601,-0.778 0.697,-0.522 0.717,-0.833 0.673,-0.512 0.716,-0.676 0.653,-0.422 0.731,-0.492 0.736,-0.387 0.886,-0.393 0.823,-0.343 1.098,-0.215 1.376,-0.276 1.47,-0.225 1.35,-0.226 1.247,-0.152 1.316,-0.048 1.165,10e-4 0.885,-0.012 0.561,0.099 0.836,0.252 0.442,0.08 0.311,0.235 0.733,0.451 0.768,0.494 0.527,0.345 0.377,0.31 0.31,0.347 0.249,0.315 0.175,0.38 0.237,0.497 0.103,0.341 0.047,0.264 0.03,0.304 -0.029,0.256 -0.085,0.448 0.01,0.107 -0.036,0.011 -0.273,0.472 -0.333,0.311 -0.35,0.276 -0.63,0.322 -0.925,0.494 -0.617,0.365 -0.448,0.165 0.087,-0.007 0.048,-0.015 -0.259,0.02 -0.287,-0.19 -0.872,-0.275 -0.362,-0.1 -0.522,-0.245 -1.118,-0.42 -0.836,-0.18 -0.982,-0.364 -1.155,-0.229 -1.016,-0.239 -1.094,-0.194 -0.833,-0.143 -0.892,-0.252 -0.873,-0.237 -0.897,-0.358 -0.88,-0.235 -0.88,-0.352 -1.051,-0.286 -0.822,-0.235 -0.88,-0.235 -0.928,-0.262 -0.961,-0.195 -1.122,-0.259 -0.915,-0.113 -0.814,-0.209 -0.687,-0.127 -0.833,-0.32 -1.152,-0.31 -0.776,-0.15 -0.956,-0.313 -0.996,-0.165 -1.095,-0.199 -1.183,-0.08 -2.375,0.053 -1.242,0.74 -1.269,-0.021 -1.44,0.987 -1.495,1.455 -1.694,0.802 -0.003,0.013 1.357,1.506 2.142,1.69 1.845,0.4 2.604,-0.138 0.987,-0.668 0.206,0.17 0.695,0.037 0.782,0.153 0.529,0.069 0.804,0.275 0.984,0.201 0.608,0.16 1.045,0.384 1.073,0.225 1.064,0.261 0.962,0.121 0.872,0.21 0.8,0.158 0.714,0.207 0.88,0.234 0.821,0.235 0.709,0.183 0.88,0.352 0.88,0.234 0.863,0.347 1.239,0.349 1.22,0.335 1.162,0.209 0.901,0.157 0.979,0.231 0.721,0.123 0.896,0.34 0.807,0.172 0.408,0.166 0.768,0.342 0.811,0.252 0.302,0.077 0.886,0.397 1.853,0.255 1.104,-0.016 1.143,-0.241 1.429,-0.539 1.026,-0.574 0.835,-0.444 1.13,-0.617 1.175,-0.898 1.192,-1.213 0.901,-1.406 0.551,-1.163 0.245,-1.066 0.149,-0.843 0.089,-1.152 -0.088,-1.221 -0.188,-1.027 -0.366,-1.184 -0.466,-1.028 -0.53,-1.028 -0.807,-1.094 -0.864,-0.943 -1.031,-0.864 -0.88,-0.593 -0.875,-0.562 -0.792,-0.488 -1.215,-0.704 -1.318,-0.389 -1.159,-0.335 -1.55,-0.252 -1.462,-0.012 -1.299,0 -1.734,0.069 -1.688,0.201 -1.465,0.243 -1.581,0.244 -1.557,0.311 -1.719,0.371 -1.524,0.596 -1.225,0.546 -1.259,0.669 -1.03,0.682 -1.107,0.751 -0.926,0.849 -0.969,0.779 -0.691,0.809 -0.829,0.652 -0.572,0.747 -0.843,0.674 -0.131,0.363 -0.451,0.174 -1.143,1.37 -0.845,1.535 0.151,2.28 3.442,0.478 z"
       id="path53"
       inkscape:connector-curvature="0"
       style="fill:#000000;stroke:none" />
    <path
       __timestamp="0x14bc223c7ff"
       __comx="161.904"
       __comy="374.940"
       d="m 171.021,375.053 -1.367,-2.33 2.753,-0.366 -0.462,-0.402 -0.303,-0.195 -0.668,-0.674 -1.672,-1.151 -0.535,-0.179 -0.544,-0.389 -1.181,-0.459 -1.027,-0.294 -0.762,-0.176 -0.791,-0.227 -0.936,-0.23 -1.247,-0.174 -1.069,-0.009 -0.946,0.003 -1.189,0.091 -1.436,0.321 -1.172,0.518 -1.017,0.512 -1.206,0.753 -1.163,0.872 -0.952,0.831 -1.123,0.871 -1.087,1.14 -1,0.882 -1.051,1.111 -0.96,1.018 -0.921,0.923 -0.924,1.045 -0.854,0.926 -0.755,1.001 -0.632,0.746 -0.854,1.143 -0.548,1.127 -0.414,0.77 -0.444,0.964 -0.452,1.225 -0.211,1.251 -0.083,1.104 0.088,1.222 0.129,0.728 0.273,1.25 1.51,2.138 1.487,1.101 0.87,0.549 1.016,0.509 0.897,0.349 0.859,0.343 1.22,0.469 1.459,0.274 1.36,0.148 1.48,-0.007 1.674,-0.283 1.393,-0.508 1.083,-0.507 1.22,-0.554 1.178,-0.819 0.762,-0.587 0.805,-0.574 0.753,-0.565 0.661,-0.512 0.699,-0.446 0.958,-0.62 0.908,-0.709 0.947,-0.698 0.947,-0.817 0.984,-0.802 1.001,-0.93 0.759,-0.817 0.776,-0.717 0.635,-0.696 0.529,-0.527 0.508,-0.511 0.734,-0.656 0.533,-0.356 0.646,-0.565 0.217,-0.196 0.34,-0.156 0.8,-0.527 0.366,-0.225 0.708,-0.268 0.763,-0.41 0.558,-0.208 0.505,-0.205 0.92,-0.207 0.594,-0.277 0.072,0.011 0.332,-0.031 -0.027,-0.026 -0.222,-0.1 -0.339,-0.199 3.486,1.712 1.244,-3.282 -0.717,-1.538 -0.01,-0.009 -1.891,-0.247 0.541,-1.874 2.194,0.187 -1.395,-1.02 -1.982,-0.57 -1.2,-0.026 -0.958,0.087 -1.219,0.245 -0.697,0.31 -0.722,0.145 -1.021,0.381 -0.968,0.379 -0.762,0.411 -0.817,0.319 -1.042,0.597 -0.608,0.411 -0.599,0.314 -0.957,0.742 -0.41,0.374 -0.523,0.348 -1.26,1.104 -0.665,0.662 -0.645,0.646 -0.538,0.596 -0.749,0.691 -0.767,0.825 -0.642,0.595 -0.893,0.724 -0.813,0.708 -0.813,0.593 -0.735,0.582 -0.684,0.435 -0.944,0.611 -0.865,0.661 -0.654,0.491 -0.839,0.599 -0.762,0.587 -0.465,0.354 -0.658,0.268 -0.911,0.431 -0.484,0.196 -0.439,0.069 -0.515,-0.007 -0.752,-0.087 -0.535,-0.077 -0.54,-0.236 -0.901,-0.361 -0.629,-0.237 -0.392,-0.195 -0.42,-0.272 -0.508,-0.308 0.102,0.261 0.156,0.311 -0.106,-0.563 -0.03,-0.303 0.035,-0.304 0.024,-0.275 0.135,-0.3 0.259,-0.561 0.407,-0.756 0.274,-0.632 0.319,-0.383 0.659,-0.779 0.653,-0.876 0.672,-0.717 0.836,-0.95 0.839,-0.837 1.034,-1.094 0.827,-0.884 0.995,-0.878 0.907,-0.972 0.871,-0.654 0.926,-0.812 0.714,-0.536 0.672,-0.42 0.625,-0.309 0.354,-0.186 0.207,-0.032 0.453,-0.026 0.697,0.002 0.573,-0.008 0.397,0.061 0.471,0.122 0.852,0.242 0.763,0.176 0.617,0.176 0.109,0.01 0.629,0.432 0.522,0.173 0.322,0.257 0.74,0.734 1.105,0.744 0.594,0.184 3.809,0.339 -1.367,-3.387 z"
       id="path55"
       inkscape:connector-curvature="0"
       style="fill:#000000;stroke:none" />
    <path
       __timestamp="0x14bc223cec5"
       __comx="384.139"
       __comy="429.933"
       d="m 368.314,430.615 1.464,2.375 1.557,-0.089 0.369,-1.055 0.171,0.601 0.479,-0.887 0.48,0.194 0.651,-0.721 0.71,-0.069 0.726,-0.543 0.796,-0.097 1.041,-0.424 1.045,-0.225 0.864,-0.234 0.835,-0.023 0.783,0.036 0.725,0.121 0.868,0.366 1,0.369 0.753,0.447 0.907,0.621 1.066,0.843 1.03,0.755 1.061,0.953 1.248,1 1.197,0.957 1.29,0.997 1.11,0.888 1.063,0.902 0.975,0.924 0.694,0.709 0.418,0.719 0.513,0.872 0.261,0.645 0.274,0.873 0.173,0.684 0.116,0.691 -0.011,0.782 0.008,0.59 -0.089,0.614 -0.084,0.569 0.07,-0.057 -0.06,-0.015 -0.014,0.07 0.227,-0.172 0.078,-0.06 -0.3,0.072 -0.628,0.085 -0.516,0.086 -0.417,-0.043 -0.377,-0.03 -0.486,-0.205 -0.532,-0.22 -0.488,-0.294 -0.541,-0.431 -0.499,-0.457 -0.529,-0.575 -0.638,-0.786 -0.645,-0.88 -0.785,-0.966 -0.702,-0.919 -0.837,-1.153 -0.994,-1.133 -0.907,-1.019 -0.914,-1.095 -1.004,-1.063 -0.838,-0.997 -0.91,-1.151 -0.938,-1.056 -0.913,-1.152 -1.077,-1.149 -1.113,-1.111 -1.115,-0.986 -1.175,-0.978 -1.333,-0.979 -1.337,-0.807 -1.2,-0.694 -1.142,-0.601 -1.088,-0.604 -0.532,-0.255 -1.186,-0.852 -0.973,0.485 -2.105,1.542 -0.01,0.01 -1.166,2.598 0.553,1.306 1.277,0.908 0.876,0.449 1.024,0.57 1.088,0.572 1.029,0.597 1.01,0.601 0.896,0.663 0.937,0.783 0.88,0.774 0.881,0.883 0.801,0.846 0.847,1.077 0.939,1.056 0.85,1.079 1.039,1.232 0.992,1.05 0.845,1.016 0.971,1.093 0.766,0.862 0.688,0.959 0.823,1.076 0.741,0.911 0.646,0.88 0.887,1.091 0.879,0.951 0.909,0.834 1.101,0.86 1.273,0.761 1.11,0.484 1.392,0.499 1.383,0.205 1.344,0.074 1.243,-0.148 1.015,-0.15 1.108,-0.28 1.252,-0.529 1.283,-0.994 0.689,-0.868 0.761,-1.189 0.423,-1.465 0.151,-0.956 0.145,-1.146 0.007,-1.053 -0.01,-1.33 -0.236,-1.539 -0.296,-1.192 -0.43,-1.357 -0.561,-1.35 -0.777,-1.358 -0.873,-1.392 -1.301,-1.403 -1.254,-1.188 -1.284,-1.093 -1.237,-0.99 -1.291,-0.997 -1.15,-0.92 -1.099,-0.878 -1.168,-1.041 -1.199,-0.888 -1.164,-0.917 -1.322,-0.904 -1.477,-0.845 -1.463,-0.569 -1.479,-0.573 -1.857,-0.348 -1.563,-0.082 -1.864,0.095 -1.483,0.353 -1.536,0.361 -0.954,0.398 -1.55,0.372 -0.917,0.63 -1.52,0.518 -0.405,0.569 -1.515,0.546 0.011,0.522 -1.355,0.601 0.604,0.353 0.266,-0.559 0.995,3.432 z"
       id="path57"
       inkscape:connector-curvature="0"
       style="fill:#000000;stroke:none" />
    <path
       __timestamp="0x14bc223d396"
       __comx="153.919"
       __comy="472.080"
       d="m 166.201,472.202 0.781,-2.194 0.264,-1.21 -0.681,-1.147 -1.998,-1.229 -2.222,-0.223 -0.637,0.124 -1.059,0.024 -0.811,0.254 -0.975,0.066 -1.175,0.385 -1.02,0.283 -1.017,0.338 -1.593,0.619 -0.849,0.602 -1.006,0.384 -1.028,0.69 -0.951,0.332 -1.256,0.654 -1.115,0.528 -1.029,0.545 -1.227,0.499 -1.318,0.627 -1.207,0.573 -1.273,0.698 -1.206,0.675 -1.078,0.736 -0.983,0.676 -1.195,0.898 -0.876,0.939 -0.828,0.989 -0.779,1.212 -0.573,1.215 -0.548,1.563 -0.134,1.561 0.044,1.608 0.496,1.615 0.708,1.461 1.13,1.365 1.352,1.014 1.671,0.732 1.549,0.306 1.471,0.084 1.417,-0.071 1.462,-0.189 1.294,-0.414 1.115,-0.293 1.277,-0.426 1.145,-0.469 0.938,-0.411 1.149,-0.479 1.274,-0.702 1.158,-0.684 1.27,-0.899 1.112,-0.975 1.159,-0.977 1.166,-1.1 1.27,-1.271 1.177,-1.299 1.097,-1.22 0.911,-1.083 1.004,-1.063 0.945,-1.132 0.793,-0.951 0.774,-0.715 0.727,-0.741 0.646,-0.461 0.851,-0.604 0.844,-0.494 0.671,-0.388 0.665,-0.239 0.71,-0.254 0.175,-0.068 -0.186,0.006 -0.207,-0.046 2.341,0.537 0.075,-3.926 -0.009,-0.01 -0.982,-2.987 0.698,-0.284 -1.731,-0.281 -1.36,0.124 -0.998,0.284 -0.933,0.332 -1.212,0.465 -1.207,0.668 -1.15,0.68 -1.144,0.803 -1.115,0.83 -1.032,1.02 -0.986,0.927 -1.084,1.278 -0.815,0.981 -0.992,1.049 -0.966,1.146 -1.015,1.127 -1.052,1.165 -1.077,1.075 -0.946,0.896 -1.07,0.899 -0.883,0.785 -0.725,0.51 -0.837,0.489 -0.837,0.471 -0.846,0.343 -0.939,0.41 -0.85,0.352 -0.835,0.278 -1.115,0.294 -0.818,0.29 -0.532,0.046 -0.813,0.046 -0.641,-0.033 -0.329,-0.046 -0.206,-0.09 -0.056,-0.042 -0.043,-0.042 -0.114,-0.3 -0.09,-0.145 0.044,-0.269 -0.017,-0.316 0.156,-0.315 0.249,-0.545 0.277,-0.431 0.462,-0.536 0.297,-0.351 0.565,-0.394 0.895,-0.614 0.8,-0.555 0.906,-0.498 1.073,-0.593 1.023,-0.482 1.146,-0.548 1.354,-0.557 1.2,-0.627 1.115,-0.528 0.973,-0.52 1.278,-0.489 1.084,-0.718 1.106,-0.437 0.794,-0.572 0.636,-0.202 0.744,-0.249 1.092,-0.304 0.468,-0.201 0.902,-0.052 0.597,-0.215 0.701,0.024 0.419,-0.111 -0.344,-0.105 -0.591,-0.408 0.141,0.026 1.789,0.668 2.307,-1.138 z"
       id="path59"
       inkscape:connector-curvature="0"
       style="fill:#000000;stroke:none" />
    <path
       __timestamp="0x14bc223da1f"
       __comx="221.125"
       __comy="295.831"
       d="m 211.664,276.543 0.885,-1.888 1.196,0.728 0.449,-0.287 -0.124,0.571 0.631,-0.711 0.209,-1.001 0.435,-0.314 0.545,-1.058 0.786,-0.745 0.584,-0.863 0.795,-0.535 0.899,-0.782 0.937,-0.467 1.014,-0.565 0.831,-0.329 0.528,-0.194 0.391,0.026 0.735,0.126 0.458,0.065 0.176,0.121 0.509,0.462 0.513,0.495 0.389,0.565 0.42,1.019 0.554,1.1 0.415,1.114 0.371,1.283 0.356,1.196 0.186,1.202 0.16,1.224 0.098,1.04 -0.055,0.993 -0.045,0.983 -0.109,0.707 -0.186,0.621 -0.303,0.747 -0.211,0.571 -0.278,0.494 -0.237,0.483 -0.449,0.715 -0.161,0.397 -0.317,0.401 -0.364,0.305 -0.536,0.536 -0.381,0.347 -0.443,0.317 -0.614,0.409 -0.614,0.39 -0.884,0.577 -0.502,0.466 -0.684,0.411 -1.026,1.089 -0.601,0.852 -0.484,0.807 -0.44,0.888 -0.398,1.114 -0.207,1.088 -0.091,1.117 0.133,1.362 0.436,1.303 1.099,1.73 1.446,1.273 0.717,0.42 0.42,0.292 0.742,-0.635 2.49,-0.287 0.013,-0.003 2.138,-1.578 0.038,-1.926 -1.809,-1.585 -0.691,-0.402 -0.197,-0.134 -0.074,-0.148 0.084,0.247 0.015,0.071 0.027,-0.173 0.028,-0.203 0.071,-0.177 0.146,-0.285 0.22,-0.366 0.221,-0.322 -0.088,0.033 0.373,-0.176 0.671,-0.589 0.406,-0.245 0.677,-0.431 0.794,-0.53 0.848,-0.622 0.793,-0.708 0.52,-0.521 0.691,-0.634 1.208,-1.593 0.309,-0.659 0.372,-0.576 0.35,-0.69 0.427,-0.797 0.375,-0.954 0.401,-1.013 0.4,-1.374 0.243,-1.522 0.073,-1.364 0.062,-1.471 -0.137,-1.659 -0.191,-1.474 -0.284,-1.732 -0.466,-1.62 -0.449,-1.533 -0.641,-1.702 -0.62,-1.247 -0.636,-1.445 -1.136,-1.664 -1.13,-1.148 -1.251,-1.063 -1.702,-0.935 -1.654,-0.404 -1.494,-0.227 -1.955,0.026 -1.819,0.511 -1.516,0.609 -1.332,0.726 -1.528,0.823 -1.33,1.096 -1.435,1.107 -0.941,1.25 -1.091,1.132 -0.628,1.171 -0.973,1.212 -0.144,0.876 -0.424,0.345 -0.829,2.801 0.918,1.708 1.431,2.018 2.059,-2.005 z"
       id="path61"
       inkscape:connector-curvature="0"
       style="fill:#000000;stroke:none" />
    <path
       __timestamp="0x14bc223dd0c"
       __comx="230.778"
       __comy="295.831"
       d="m 230.504,313.805 2.642,1.681 0.445,0.056 -0.318,-2.471 -1.714,-1.436 -0.013,-0.004 -2.3,0.324 -0.552,-1.415 -0.729,0.291 2.525,2.972 z"
       id="path63"
       inkscape:connector-curvature="0"
       style="fill:#000000;stroke:none" />
    <path
       __timestamp="0x14bc223e04b"
       __comx="277.491"
       __comy="295.831"
       d="m 279.374,258.83 1.796,1.037 -4.018,0.217 -0.902,-1.833 -0.246,0.624 0.22,1.671 -0.122,0.985 0.176,1.765 -0.174,1.692 0.028,1.301 0.033,0.821 -0.124,0.909 -0.157,1.269 -0.096,1.357 -0.076,1.123 -0.158,1.036 -0.178,1.185 -0.178,1.244 -0.152,1.086 -0.233,0.998 -0.254,1.102 -0.254,0.985 -0.25,0.974 -0.51,1.758 -0.443,1.496 -0.429,1.233 -0.504,1.503 0.382,0.043 -0.846,2.58 3.598,1.183 0.736,-3.312 2.542,0.949 0.093,1.993 0.382,-2.187 0.2,-0.374 0.509,-1.466 0.497,-1.671 0.545,-1.88 0.278,-1.079 0.274,-1.069 0.275,-1.187 0.294,-1.289 0.2,-1.379 0.174,-1.22 0.174,-1.161 0.194,-1.311 0.101,-1.399 0.08,-1.166 0.136,-1.078 0.169,-1.437 -0.026,-1.351 -0.03,-0.869 0.178,-1.946 -0.176,-1.754 0.112,-1.362 -0.249,-0.558 0.223,-0.433 -1.136,-3.358 -5.192,-0.135 2.501,3.149 z"
       id="path65"
       inkscape:connector-curvature="0"
       style="fill:#000000;stroke:none" />
    <path
       __timestamp="0x14bc223e1f6"
       __comx="270.423"
       __comy="295.831"
       d="m 270.333,314.546 0.023,2.752 -3.311,-2.109 -0.059,-0.362 -0.112,0.552 0.29,2.67 5.135,1.852 0.983,-3.704 -1.861,-0.801 -1.122,0.102 -1.743,0.489 0.749,-2.413 4.079,1.265 0.407,1.614 0.122,-0.621 0.059,-1.654 -4.015,-3.868 -0.33,4.043 z"
       id="path67"
       inkscape:connector-curvature="0"
       style="fill:#000000;stroke:none" />
    <path
       __timestamp="0x14bc223e8c9"
       __comx="191.016"
       __comy="310.575"
       d="m 182.455,309.697 0.049,-0.655 2.585,-1.551 -4.255,-3.005 -2.101,5.231 1.359,2.022 0.794,0.877 1.174,1.115 1.02,1.015 1.47,1.228 1.255,1.143 1.245,1.074 1.099,1.442 1.365,1.368 0.956,1.217 0.972,1.293 0.821,1.232 0.956,1.276 0.845,1.087 0.785,0.989 0.966,0.955 1.867,1.2 2.014,0.372 3.259,-1.225 0.343,-2.696 -5.679,-0.567 0.227,-1.522 1.85,-0.99 0.606,0.137 -0.01,-0.091 -0.207,-0.219 -0.506,-0.654 -0.797,-1.025 -0.805,-1.07 -0.821,-1.232 -1.141,-1.523 -1.273,-1.599 -1.333,-1.331 -1.249,-1.608 -1.688,-1.508 -1.326,-1.204 -1.346,-1.118 -0.858,-0.863 -1.055,-0.997 -0.38,-0.414 -0.283,-0.207 -2.335,3.471 -3.317,-1.362 2.702,-0.143 0.167,0.636 z"
       id="path69"
       inkscape:connector-curvature="0"
       style="fill:#000000;stroke:none" />
    <path
       __timestamp="0x14bc223ea82"
       __comx="213.249"
       __comy="337.852"
       d="m 210.316,340.094 3.246,1.902 -0.146,-0.397 -0.085,0.644 -2.06,0.164 -3.165,-2.944 3.956,-2.887 2.685,4.341 -0.018,0.222 0.168,-0.076 -0.249,0.037 -1.105,0.091 -1.596,-1.093 -0.556,-1.056 -0.053,0.324 3.392,-2.13 0.364,2.511 -0.196,-0.891 -0.014,-0.002 -0.43,0.869 0.481,4.506 3.392,-4.476 0.064,-0.733 -0.79,-3.05 -2.887,-1.68 -2.396,0.209 -1.304,0.74 -0.889,0.628 -1.778,2.216 2.568,5.398 4.191,-3.943 -3.4,-4.117 -2.412,1.22 -1.141,0.644 0.088,0.775 2.073,2.02 z"
       id="path71"
       inkscape:connector-curvature="0"
       style="fill:#000000;stroke:none" />
    <path
       __timestamp="0x14bc223edf8"
       __comx="322.177"
       __comy="278.687"
       d="m 321.313,278.127 -0.442,-1.004 1.914,-0.897 0.376,1.787 -0.193,0.308 0.595,-0.365 0.106,-0.295 -0.116,0.188 0.219,-0.146 0.183,0.059 0.255,-0.056 -0.032,0.023 0.39,0.282 0.608,0.486 0.51,0.64 0.616,0.872 0.482,0.919 0.355,1.022 0.217,1.268 0.142,1.16 -0.034,1.178 -0.253,1.089 -0.398,1.203 -0.6,1.238 -0.684,1.145 -0.875,1.109 -0.853,1.007 -1.027,0.824 -1.055,0.825 -1.035,0.582 -0.9,0.531 -0.62,0.256 -0.489,0.077 -0.791,0.092 -0.791,0.052 -1.012,0.07 -0.992,0.139 -1.837,0.392 -0.583,0.461 -1.348,0.174 -1.46,2.109 0.689,1.556 2.287,1.524 1.392,0.5 -0.051,0.701 0.763,0.057 0.943,-0.595 0.275,0.039 0.65,-0.095 0.749,-0.047 0.968,-0.066 1.204,-0.143 1.389,-0.275 1.727,-0.683 1.329,-0.758 1.429,-0.827 1.527,-1.169 1.554,-1.288 1.376,-1.575 1.237,-1.59 1.076,-1.788 0.926,-1.93 0.657,-1.965 0.452,-2.079 0.083,-2.342 -0.21,-1.892 -0.37,-2.017 -0.7,-2.028 -0.927,-1.78 -1.026,-1.475 -1.133,-1.354 -1.387,-1.157 -1.37,-0.891 -1.91,-0.681 -1.504,-0.056 -1.46,0.059 -1.306,0.44 -1.524,0.658 -0.833,0.878 -0.813,0.574 -1.367,2.068 0.024,3.898 4.026,0.159 0.615,-1.356 z"
       id="path73"
       inkscape:connector-curvature="0"
       style="fill:#000000;stroke:none" />
    <path
       __timestamp="0x14bc223f057"
       __comx="302.207"
       __comy="325.622"
       d="m 301.31,326.6 1.396,3.357 -1.477,-0.504 -1.291,-2.618 0.69,-1.69 0.052,-0.036 0.096,-0.065 2.181,0.9 0.861,3.456 -0.638,0.874 0.742,-0.224 -0.297,-0.106 0.099,0.254 0.803,-0.629 1.24,-2.558 0.002,-0.014 -0.638,-2.792 -0.371,-0.746 -2.716,-0.334 -1.353,0.716 -0.784,0.245 -2.398,2.282 0.861,4.864 3.824,0.666 1.386,-0.418 1.813,-1.208 1.511,-2.747 -1.995,-4.026 -2.533,-0.504 -1.068,3.592 z"
       id="path75"
       inkscape:connector-curvature="0"
       style="fill:#000000;stroke:none" />
  </g>
</svg>
